<?xml version="1.0" encoding="utf-8"?>
<!-- Generator: Adobe Illustrator 21.0.2, SVG Export Plug-In . SVG Version: 6.00 Build 0)  -->
<svg version="1.1" id="Capa_1" xmlns="http://www.w3.org/2000/svg" xmlns:xlink="http://www.w3.org/1999/xlink" x="0px" y="0px"
	 viewBox="0 0 96.5 103.8" style="enable-background:new 0 0 96.5 103.8;" xml:space="preserve">
<style type="text/css">
	.st0{fill:#221F20;}
	.st1{fill:#FFFFFF;}
	.st2{opacity:0.1;}
	.st3{opacity:8.000000e-02;fill:#C7C8CA;}
	.st4{opacity:0.43;fill:none;stroke:#FFFFFF;stroke-width:1.9494;stroke-miterlimit:10;}
	.st5{opacity:0.1;fill-rule:evenodd;clip-rule:evenodd;fill:#FFFFFF;}
	.st6{fill:#0D1117;}
	.st7{fill:#20252C;}
	.st8{fill:#EB0029;}
	.st9{fill:none;stroke:#FFFFFF;stroke-width:0.7615;stroke-miterlimit:10;}
	.st10{fill:#666666;}
	.st11{opacity:0.29;}
	.st12{fill:url(#SVGID_3_);}
	.st13{clip-path:url(#SVGID_7_);}
	.st14{fill:#D0D1D2;}
	.st15{clip-path:url(#SVGID_9_);}
	.st16{clip-path:url(#SVGID_11_);}
	.st17{clip-path:url(#SVGID_11_);fill:none;}
	.st18{fill:#BB2829;}
	.st19{opacity:0.39;fill:#211F20;}
	.st20{fill:none;stroke:#FFFFFF;stroke-width:7.3691;stroke-miterlimit:10;}
	.st21{fill:#BD2F27;}
	.st22{opacity:0.48;fill:#38383A;}
	.st23{opacity:0.59;fill:#665940;}
	.st24{opacity:0.2;}
	.st25{fill:none;stroke:#C7C8CA;stroke-width:2;stroke-miterlimit:10;}
	.st26{fill:#C7C8CA;}
	.st27{fill:none;stroke:#FFFFFF;stroke-width:7.3432;stroke-miterlimit:10;}
	.st28{fill:none;stroke:#FFFFFF;stroke-width:7.9334;stroke-miterlimit:10;}
	.st29{clip-path:url(#SVGID_13_);}
	.st30{clip-path:url(#SVGID_13_);fill:none;}
	.st31{clip-path:url(#SVGID_15_);}
	.st32{clip-path:url(#SVGID_15_);fill:none;}
	.st33{fill:none;}
	.st34{fill:#B12E33;}
	.st35{fill:none;stroke:#191919;stroke-width:4;stroke-miterlimit:10;}
	.st36{fill:#353535;}
	.st37{fill:#232323;}
	.st38{fill:none;stroke:#232323;stroke-width:2;stroke-miterlimit:10;}
	.st39{fill:none;stroke:#312783;stroke-width:3;stroke-linecap:round;stroke-linejoin:round;stroke-miterlimit:10;}
	.st40{fill:none;stroke:#99999E;stroke-width:3;stroke-linecap:round;stroke-linejoin:round;stroke-miterlimit:10;}
	.st41{fill:#312783;}
	.st42{fill:#99999E;}
	.st43{opacity:0.57;fill:#C7C8CA;}
	.st44{fill:#1A181B;fill-opacity:0.3;}
	.st45{opacity:0.8;fill:#BB2829;}
	.st46{fill:#CC1719;}
	.st47{fill:#BDBDBD;}
	.st48{clip-path:url(#SVGID_19_);}
	.st49{clip-path:url(#SVGID_19_);fill:none;}
</style>
<g class="st11">
	<defs>
		<rect id="SVGID_1_" x="-436.6" y="-379.9" class="st11" width="372.2" height="455.4"/>
	</defs>
	<clipPath id="SVGID_2_">
		<use xlink:href="#SVGID_1_"  style="overflow:visible;"/>
	</clipPath>
	<g style="clip-path:url(#SVGID_2_);">
		
			<image style="overflow:visible;" width="8042" height="5365" xlink:href="CCF4EE333AE2639F.jpg"  transform="matrix(8.507866e-02 0 0 8.507866e-02 -449.1244 -379.8762)">
		</image>
	</g>
</g>
<g>
	<path class="st41" d="M28.7,91.6c-0.2,0-0.5-0.1-0.7-0.2c-8-4.1-14.4-10.4-18.6-18.2C6,66.9,4.2,59.8,4.2,52.6
		c0-0.8,0.7-1.5,1.5-1.5s1.5,0.7,1.5,1.5c0,6.7,1.7,13.3,4.8,19.2C16,79.1,22,85,29.4,88.7c0.7,0.4,1,1.3,0.7,2
		C29.8,91.3,29.3,91.6,28.7,91.6z"/>
</g>
<g>
	<path class="st41" d="M80.5,80.5c-0.3,0-0.7-0.1-0.9-0.3c-0.6-0.5-0.7-1.5-0.2-2.1c5.8-7.2,9-16.2,9-25.4c0-11.6-5-22.6-13.7-30.3
		c-7.4-6.6-17-10.2-26.9-10.2c-0.8,0-1.5-0.7-1.5-1.5s0.7-1.5,1.5-1.5c10.7,0,20.9,3.9,28.9,11c9.3,8.3,14.7,20.1,14.7,32.6
		c0,9.9-3.4,19.6-9.6,27.3C81.4,80.3,80.9,80.5,80.5,80.5z"/>
</g>
<g>
	<path class="st42" d="M94.8,35.6c-0.6,0-1.2-0.4-1.4-1C88,20.6,76.7,10,62.3,5.6C51.8,2.4,40.9,2.8,30.7,6.7
		c-8.2,3.2-15.4,8.5-20.8,15.4c-0.5,0.7-1.5,0.8-2.1,0.3c-0.7-0.5-0.8-1.5-0.3-2.1c5.7-7.3,13.4-13,22.1-16.3
		C40.4-0.2,52-0.6,63.1,2.7c15.3,4.7,27.4,15.9,33.1,30.8c0.3,0.8-0.1,1.6-0.9,1.9C95.2,35.5,95,35.6,94.8,35.6z"/>
</g>
<g>
	<path class="st42" d="M48.1,103.6c-10.4,0-20.7-3.1-29.5-9.3C10.2,88.5,3.7,80.3,0,70.6c-0.3-0.8,0.1-1.6,0.9-1.9
		c0.8-0.3,1.6,0.1,1.9,0.9c3.5,9.1,9.6,16.8,17.6,22.4c13.3,9.2,30.2,11.3,45.2,5.5c0.8-0.3,1.6,0.1,1.9,0.9
		c0.3,0.8-0.1,1.6-0.9,1.9C60.6,102.5,54.4,103.6,48.1,103.6z"/>
</g>
<g>
	<path class="st34" d="M51.4,48.6c0.2,0.3,0.5,0.5,0.8,0.5c0.1,0,0.3,0,0.4-0.1c0.1,0,5.3-2.7,7.9-3.5c0.5-0.1,0.7-0.7,0.6-1.1
		c-0.1-0.5-0.6-0.7-1.1-0.6c-2.7,0.9-8,3.5-8.2,3.6C51.4,47.6,51.2,48.2,51.4,48.6z"/>
	<path class="st34" d="M52.2,38.4c0.1,0,0.3,0,0.4-0.1c0.1,0,5.3-2.7,7.9-3.5c0.5-0.1,0.7-0.7,0.6-1.1c-0.1-0.5-0.6-0.7-1.1-0.6
		c-2.7,0.9-8,3.5-8.2,3.6c-0.4,0.2-0.6,0.8-0.4,1.2C51.6,38.2,51.9,38.4,52.2,38.4z"/>
	<path class="st34" d="M73.7,36.6c-0.5,0-0.9,0.4-0.9,0.9v34.9c0,1.5-1.2,2.7-2.7,2.7H48.7V73c1.3-0.5,4.7-1.5,8.1-1.5
		c7.8,0,13.1,1.7,13.1,1.7c0.3,0.1,0.6,0,0.8-0.1c0.2-0.2,0.4-0.4,0.4-0.7V33c0-0.4-0.3-0.8-0.7-0.9c0,0-0.7-0.2-1.9-0.4
		c-0.5-0.1-1,0.2-1,0.7c-0.1,0.5,0.2,1,0.7,1c0.5,0.1,0.8,0.2,1.1,0.2v37.4c-2-0.5-6.5-1.5-12.5-1.5c-3.9,0-7.7,1.3-8.9,1.7
		c-1.1-0.5-4.2-1.7-8.1-1.7c-6.2,0-11.2,1-13.4,1.5V33.7c1.8-0.4,7.1-1.6,13.4-1.6c3.3,0,6.1,1,7.2,1.5v35.2c0,0.3,0.2,0.6,0.5,0.8
		c0.3,0.2,0.6,0.2,0.9,0c0.1-0.1,9-5.3,16.8-8c0.4-0.1,0.6-0.5,0.6-0.8V24.1c0-0.3-0.1-0.6-0.4-0.7c-0.2-0.2-0.5-0.2-0.8-0.1
		C57.3,25.9,50,30.4,50,30.5c-0.4,0.3-0.5,0.8-0.3,1.2c0.3,0.4,0.8,0.5,1.2,0.3c0.1,0,6.4-4,12.9-6.6v34.7
		c-6.1,2.1-12.5,5.6-15.2,7.1V33c0-0.3-0.2-0.6-0.5-0.8c-0.2-0.1-3.8-1.9-8.5-1.9c-8.1,0-14.3,1.7-14.6,1.8
		c-0.4,0.1-0.6,0.5-0.6,0.9v39.4c0,0.3,0.1,0.5,0.4,0.7c0.2,0.1,0.3,0.2,0.5,0.2c0.1,0,0.2,0,0.2,0c0.1,0,6.2-1.8,14.1-1.8
		c3.3,0,6.1,1,7.2,1.5v2.1H25.4c-1.5,0-2.7-1.2-2.7-2.7V37.5c0-0.5-0.4-0.9-0.9-0.9c-0.5,0-0.9,0.4-0.9,0.9v34.9
		c0,2.5,2,4.5,4.5,4.5h44.7c2.5,0,4.5-2,4.5-4.5V37.5C74.6,37,74.2,36.6,73.7,36.6z"/>
	<path class="st34" d="M51.4,43.3c0.2,0.3,0.5,0.5,0.8,0.5c0.1,0,0.3,0,0.4-0.1c0.1,0,5.3-2.7,7.9-3.5c0.5-0.1,0.7-0.7,0.6-1.1
		c-0.1-0.5-0.6-0.7-1.1-0.6c-2.7,0.9-8,3.5-8.2,3.6C51.4,42.3,51.2,42.8,51.4,43.3z"/>
	<path class="st34" d="M51.4,54c0.2,0.3,0.5,0.5,0.8,0.5c0.1,0,0.3,0,0.4-0.1c0.1,0,5.3-2.7,7.9-3.5c0.5-0.1,0.7-0.7,0.6-1.1
		C61,49.3,60.5,49,60,49.2c-2.7,0.9-8,3.5-8.2,3.6C51.4,53,51.2,53.6,51.4,54z"/>
	<path class="st34" d="M42.6,39.8c-5.5-1.3-11.8,0.4-12.1,0.4c-0.5,0.1-0.8,0.6-0.6,1.1c0.1,0.4,0.5,0.7,0.9,0.7c0.1,0,0.2,0,0.2,0
		c0.1,0,6.1-1.6,11.2-0.4c0.5,0.1,1-0.2,1.1-0.7C43.4,40.4,43.1,39.9,42.6,39.8z"/>
	<path class="st34" d="M42.6,45.1c-5.5-1.3-11.8,0.4-12.1,0.4c-0.5,0.1-0.8,0.6-0.6,1.1c0.1,0.4,0.5,0.7,0.9,0.7c0.1,0,0.2,0,0.2,0
		c0.1,0,6.1-1.6,11.2-0.4c0.5,0.1,1-0.2,1.1-0.7C43.4,45.7,43.1,45.3,42.6,45.1z"/>
	<path class="st34" d="M51.4,59.4c0.2,0.3,0.5,0.5,0.8,0.5c0.1,0,0.3,0,0.4-0.1c0.1,0,5.3-2.7,7.9-3.5c0.5-0.1,0.7-0.7,0.6-1.1
		c-0.1-0.5-0.6-0.7-1.1-0.6c-2.7,0.9-8,3.5-8.2,3.6C51.4,58.4,51.2,58.9,51.4,59.4z"/>
	<path class="st34" d="M42.6,50.5c-5.5-1.3-11.8,0.4-12.1,0.4c-0.5,0.1-0.8,0.6-0.6,1.1c0.1,0.4,0.5,0.7,0.9,0.7c0.1,0,0.2,0,0.2,0
		c0.1,0,6.1-1.6,11.2-0.4c0.5,0.1,1-0.2,1.1-0.7C43.4,51.1,43.1,50.6,42.6,50.5z"/>
	<path class="st34" d="M42.6,61.2c-5.5-1.3-11.8,0.4-12.1,0.4c-0.5,0.1-0.8,0.6-0.6,1.1c0.1,0.4,0.5,0.7,0.9,0.7c0.1,0,0.2,0,0.2,0
		c0.1,0,6.1-1.6,11.2-0.4c0.5,0.1,1-0.2,1.1-0.7C43.4,61.8,43.1,61.4,42.6,61.2z"/>
	<path class="st34" d="M42.6,55.9c-5.5-1.3-11.8,0.4-12.1,0.4c-0.5,0.1-0.8,0.6-0.6,1.1c0.1,0.4,0.5,0.7,0.9,0.7c0.1,0,0.2,0,0.2,0
		c0.1,0,6.1-1.6,11.2-0.4c0.5,0.1,1-0.2,1.1-0.7C43.4,56.5,43.1,56,42.6,55.9z"/>
</g>
</svg>
