<?xml version="1.0" encoding="utf-8"?>
<!-- Generator: Adobe Illustrator 21.0.2, SVG Export Plug-In . SVG Version: 6.00 Build 0)  -->
<svg version="1.1" id="Capa_1" xmlns="http://www.w3.org/2000/svg" xmlns:xlink="http://www.w3.org/1999/xlink" x="0px" y="0px"
	 viewBox="0 0 96.5 103.8" style="enable-background:new 0 0 96.5 103.8;" xml:space="preserve">
<style type="text/css">
	.st0{fill:#221F20;}
	.st1{fill:#FFFFFF;}
	.st2{opacity:0.1;}
	.st3{opacity:8.000000e-02;fill:#C7C8CA;}
	.st4{opacity:0.43;fill:none;stroke:#FFFFFF;stroke-width:1.9494;stroke-miterlimit:10;}
	.st5{opacity:0.1;fill-rule:evenodd;clip-rule:evenodd;fill:#FFFFFF;}
	.st6{fill:#0D1117;}
	.st7{fill:#20252C;}
	.st8{fill:#EB0029;}
	.st9{fill:none;stroke:#FFFFFF;stroke-width:0.7615;stroke-miterlimit:10;}
	.st10{fill:#666666;}
	.st11{opacity:0.29;}
	.st12{fill:url(#SVGID_3_);}
	.st13{clip-path:url(#SVGID_7_);}
	.st14{fill:#D0D1D2;}
	.st15{clip-path:url(#SVGID_9_);}
	.st16{clip-path:url(#SVGID_11_);}
	.st17{clip-path:url(#SVGID_11_);fill:none;}
	.st18{fill:#BB2829;}
	.st19{opacity:0.39;fill:#211F20;}
	.st20{fill:none;stroke:#FFFFFF;stroke-width:7.3691;stroke-miterlimit:10;}
	.st21{fill:#BD2F27;}
	.st22{opacity:0.48;fill:#38383A;}
	.st23{opacity:0.59;fill:#665940;}
	.st24{opacity:0.2;}
	.st25{fill:none;stroke:#C7C8CA;stroke-width:2;stroke-miterlimit:10;}
	.st26{fill:#C7C8CA;}
	.st27{fill:none;stroke:#FFFFFF;stroke-width:7.3432;stroke-miterlimit:10;}
	.st28{fill:none;stroke:#FFFFFF;stroke-width:7.9334;stroke-miterlimit:10;}
	.st29{clip-path:url(#SVGID_13_);}
	.st30{clip-path:url(#SVGID_13_);fill:none;}
	.st31{clip-path:url(#SVGID_15_);}
	.st32{clip-path:url(#SVGID_15_);fill:none;}
	.st33{fill:none;}
	.st34{fill:#B12E33;}
	.st35{fill:none;stroke:#191919;stroke-width:4;stroke-miterlimit:10;}
	.st36{fill:#353535;}
	.st37{fill:#232323;}
	.st38{fill:none;stroke:#232323;stroke-width:2;stroke-miterlimit:10;}
	.st39{fill:none;stroke:#312783;stroke-width:3;stroke-linecap:round;stroke-linejoin:round;stroke-miterlimit:10;}
	.st40{fill:none;stroke:#99999E;stroke-width:3;stroke-linecap:round;stroke-linejoin:round;stroke-miterlimit:10;}
	.st41{fill:#312783;}
	.st42{fill:#99999E;}
	.st43{opacity:0.57;fill:#C7C8CA;}
	.st44{fill:#1A181B;fill-opacity:0.3;}
	.st45{opacity:0.8;fill:#BB2829;}
	.st46{fill:#CC1719;}
	.st47{fill:#BDBDBD;}
	.st48{clip-path:url(#SVGID_19_);}
	.st49{clip-path:url(#SVGID_19_);fill:none;}
</style>
<g class="st11">
	<defs>
		<rect id="SVGID_1_" x="-554.9" y="-379.9" class="st11" width="372.2" height="455.4"/>
	</defs>
	<clipPath id="SVGID_2_">
		<use xlink:href="#SVGID_1_"  style="overflow:visible;"/>
	</clipPath>
	<g style="clip-path:url(#SVGID_2_);">
		
			<image style="overflow:visible;" width="8042" height="5365" xlink:href="CCFD593FF4F0B7E6.jpg"  transform="matrix(8.507866e-02 0 0 8.507866e-02 -567.3745 -379.8762)">
		</image>
	</g>
</g>
<g>
	<path class="st41" d="M28.8,90.9c-0.2,0-0.5-0.1-0.7-0.2c-8-4.1-14.4-10.4-18.6-18.2c-3.4-6.3-5.2-13.4-5.2-20.6
		c0-0.8,0.7-1.5,1.5-1.5s1.5,0.7,1.5,1.5c0,6.7,1.7,13.3,4.8,19.2c3.9,7.3,9.9,13.2,17.4,17c0.7,0.4,1,1.3,0.7,2
		C29.9,90.6,29.4,90.9,28.8,90.9z"/>
</g>
<g>
	<path class="st41" d="M80.6,79.8c-0.3,0-0.7-0.1-0.9-0.3c-0.6-0.5-0.7-1.5-0.2-2.1c5.8-7.2,9-16.2,9-25.4c0-11.6-5-22.6-13.7-30.3
		c-7.4-6.6-17-10.2-26.9-10.2c-0.8,0-1.5-0.7-1.5-1.5s0.7-1.5,1.5-1.5c10.7,0,20.9,3.9,28.9,11c9.3,8.3,14.7,20.1,14.7,32.6
		c0,9.9-3.4,19.6-9.6,27.3C81.5,79.6,81.1,79.8,80.6,79.8z"/>
</g>
<g>
	<path class="st42" d="M95,34.9c-0.6,0-1.2-0.4-1.4-1c-5.4-14-16.8-24.6-31.2-29C51.9,1.7,41,2.1,30.8,6C22.6,9.2,15.4,14.5,10,21.4
		c-0.5,0.7-1.5,0.8-2.1,0.3c-0.7-0.5-0.8-1.5-0.3-2.1c5.7-7.3,13.4-13,22.1-16.3C40.6-0.9,52.2-1.4,63.3,2
		c15.3,4.7,27.4,15.9,33.1,30.8c0.3,0.8-0.1,1.6-0.9,1.9C95.3,34.8,95.1,34.9,95,34.9z"/>
</g>
<g>
	<path class="st42" d="M48.2,102.9c-10.4,0-20.7-3.1-29.5-9.3C10.3,87.8,3.9,79.6,0.1,69.9c-0.3-0.8,0.1-1.6,0.9-1.9
		c0.8-0.3,1.6,0.1,1.9,0.9c3.5,9.1,9.6,16.8,17.6,22.4c13.3,9.2,30.2,11.3,45.2,5.5c0.8-0.3,1.6,0.1,1.9,0.9
		c0.3,0.8-0.1,1.6-0.9,1.9C60.8,101.8,54.5,102.9,48.2,102.9z"/>
</g>
<g>
	<g>
		<g>
			<path class="st34" d="M58.7,39.5h-1.8c-0.5,0-0.9,0.4-0.9,0.9s0.4,0.9,0.9,0.9h1.8c0.5,0,0.9-0.4,0.9-0.9S59.1,39.5,58.7,39.5z"
				/>
			<path class="st34" d="M58.7,43h-1.8c-0.5,0-0.9,0.4-0.9,0.9c0,0.5,0.4,0.9,0.9,0.9h1.8c0.5,0,0.9-0.4,0.9-0.9
				C59.5,43.4,59.1,43,58.7,43z"/>
			<path class="st34" d="M58.7,35.9h-1.8c-0.5,0-0.9,0.4-0.9,0.9s0.4,0.9,0.9,0.9h1.8c0.5,0,0.9-0.4,0.9-0.9
				C59.5,36.3,59.1,35.9,58.7,35.9z"/>
			<path class="st34" d="M58.7,64.5h-1.8c-0.5,0-0.9,0.4-0.9,0.9s0.4,0.9,0.9,0.9h1.8c0.5,0,0.9-0.4,0.9-0.9S59.1,64.5,58.7,64.5z"
				/>
			<path class="st34" d="M39,35.9h-5.4c-0.5,0-0.9,0.4-0.9,0.9v12.5c0,0.5,0.4,0.9,0.9,0.9H39c0.5,0,0.9-0.4,0.9-0.9V36.8
				C39.9,36.3,39.5,35.9,39,35.9z M38.1,48.4h-3.6V37.7h3.6V48.4z"/>
			<path class="st34" d="M39,64.5h-5.4c-0.5,0-0.9,0.4-0.9,0.9s0.4,0.9,0.9,0.9H39c0.5,0,0.9-0.4,0.9-0.9S39.5,64.5,39,64.5z"/>
			<path class="st34" d="M39,68.1h-5.4c-0.5,0-0.9,0.4-0.9,0.9c0,0.5,0.4,0.9,0.9,0.9H39c0.5,0,0.9-0.4,0.9-0.9
				C39.9,68.5,39.5,68.1,39,68.1z"/>
			<path class="st34" d="M58.7,68.1h-1.8c-0.5,0-0.9,0.4-0.9,0.9c0,0.5,0.4,0.9,0.9,0.9h1.8c0.5,0,0.9-0.4,0.9-0.9
				C59.5,68.5,59.1,68.1,58.7,68.1z"/>
			<path class="st34" d="M69.4,68.1h-3.6c-0.5,0-0.9,0.4-0.9,0.9c0,0.5,0.4,0.9,0.9,0.9h3.6c0.5,0,0.9-0.4,0.9-0.9
				C70.3,68.5,69.9,68.1,69.4,68.1z"/>
			<path class="st34" d="M50.6,36.8c0-0.5-0.4-0.9-0.9-0.9h-3.6c-0.5,0-0.9,0.4-0.9,0.9v12.5c0,0.5,0.4,0.9,0.9,0.9h3.6
				c0.5,0,0.9-0.4,0.9-0.9V36.8z M48.8,48.4H47V37.7h1.8V48.4z"/>
			<path class="st34" d="M69.4,64.5h-3.6c-0.5,0-0.9,0.4-0.9,0.9s0.4,0.9,0.9,0.9h3.6c0.5,0,0.9-0.4,0.9-0.9S69.9,64.5,69.4,64.5z"
				/>
			<path class="st34" d="M49.7,68.1h-3.6c-0.5,0-0.9,0.4-0.9,0.9c0,0.5,0.4,0.9,0.9,0.9h3.6c0.5,0,0.9-0.4,0.9-0.9
				C50.6,68.5,50.2,68.1,49.7,68.1z"/>
			<path class="st34" d="M65.8,53.8c0.5,0,0.9-0.4,0.9-0.9v-8.9c0-0.5-0.4-0.9-0.9-0.9c-0.5,0-0.9,0.4-0.9,0.9v8.9
				C64.9,53.4,65.3,53.8,65.8,53.8z"/>
			<path class="st34" d="M70.3,43.9c0-0.5-0.4-0.9-0.9-0.9c-0.5,0-0.9,0.4-0.9,0.9v8.9c0,0.5,0.4,0.9,0.9,0.9c0.5,0,0.9-0.4,0.9-0.9
				V43.9z"/>
			<path class="st34" d="M71.2,28.8h-5.4c-0.5,0-0.9,0.4-0.9,0.9c0,0.5,0.4,0.9,0.9,0.9h5.4c0.5,0,0.9,0.4,0.9,0.9v41.1
				c0,0.5-0.4,0.9-0.9,0.9h-8V35.9h5.4c0.5,0,0.9-0.4,0.9-0.9s-0.4-0.9-0.9-0.9h-5.4v-8c0-1.5-1.2-2.7-2.7-2.7h-5.4
				c-1.5,0-2.7,1.2-2.7,2.7v47.3h-8.9V27h6.3c0.5,0,0.9-0.4,0.9-0.9c0-0.5-0.4-0.9-0.9-0.9h-6.3v-0.9c0-1.5-1.2-2.7-2.7-2.7h-8.9
				c-1.5,0-2.7,1.2-2.7,2.7v8h-4.5c-0.5,0-0.9,0.4-0.9,0.9s0.4,0.9,0.9,0.9h4.5v39.3h-6.3c-0.5,0-0.9-0.4-0.9-0.9V29.7
				c0-0.5,0.4-0.9,0.9-0.9h3.6c0.5,0,0.9-0.4,0.9-0.9S27,27,26.5,27h-3.6c-1.5,0-2.7,1.2-2.7,2.7v42.9c0,1.5,1.2,2.7,2.7,2.7h48.2
				c1.5,0,2.7-1.2,2.7-2.7V31.4C73.8,30,72.6,28.8,71.2,28.8z M41.7,73.4H31V28.8h8c0.5,0,0.9-0.4,0.9-0.9c0-0.5-0.4-0.9-0.9-0.9h-8
				v-2.7c0-0.5,0.4-0.9,0.9-0.9h8.9c0.5,0,0.9,0.4,0.9,0.9L41.7,73.4L41.7,73.4z M61.3,73.4h-7.1V30.5h4.5c0.5,0,0.9-0.4,0.9-0.9
				c0-0.5-0.4-0.9-0.9-0.9h-4.5v-2.7c0-0.5,0.4-0.9,0.9-0.9h5.4c0.5,0,0.9,0.4,0.9,0.9V73.4z"/>
			<path class="st34" d="M26.5,64.5h-1.8c-0.5,0-0.9,0.4-0.9,0.9s0.4,0.9,0.9,0.9h1.8c0.5,0,0.9-0.4,0.9-0.9S27,64.5,26.5,64.5z"/>
			<path class="st34" d="M26.5,68.1h-1.8c-0.5,0-0.9,0.4-0.9,0.9c0,0.5,0.4,0.9,0.9,0.9h1.8c0.5,0,0.9-0.4,0.9-0.9
				C27.4,68.5,27,68.1,26.5,68.1z"/>
			<path class="st34" d="M49.7,64.5h-3.6c-0.5,0-0.9,0.4-0.9,0.9s0.4,0.9,0.9,0.9h3.6c0.5,0,0.9-0.4,0.9-0.9S50.2,64.5,49.7,64.5z"
				/>
			<path class="st34" d="M26.5,43h-1.8c-0.5,0-0.9,0.4-0.9,0.9c0,0.5,0.4,0.9,0.9,0.9h1.8c0.5,0,0.9-0.4,0.9-0.9
				C27.4,43.4,27,43,26.5,43z"/>
			<path class="st34" d="M26.5,46.6h-1.8c-0.5,0-0.9,0.4-0.9,0.9s0.4,0.9,0.9,0.9h1.8c0.5,0,0.9-0.4,0.9-0.9
				C27.4,47,27,46.6,26.5,46.6z"/>
		</g>
	</g>
</g>
</svg>
