<?xml version="1.0" encoding="utf-8"?>
<!-- Generator: Adobe Illustrator 21.0.2, SVG Export Plug-In . SVG Version: 6.00 Build 0)  -->
<svg version="1.1" id="Capa_1" xmlns="http://www.w3.org/2000/svg" xmlns:xlink="http://www.w3.org/1999/xlink" x="0px" y="0px"
	 viewBox="0 0 63.1 65.1" style="enable-background:new 0 0 63.1 65.1;" xml:space="preserve">
<style type="text/css">
	.st0{fill:#221F20;}
	.st1{fill:#FFFFFF;}
	.st2{opacity:0.1;}
	.st3{opacity:8.000000e-02;fill:#C7C8CA;}
	.st4{opacity:0.43;fill:none;stroke:#FFFFFF;stroke-width:1.9494;stroke-miterlimit:10;}
	.st5{opacity:0.1;fill-rule:evenodd;clip-rule:evenodd;fill:#FFFFFF;}
	.st6{fill:#0D1117;}
	.st7{fill:#20252C;}
	.st8{fill:#EB0029;}
	.st9{fill:none;stroke:#FFFFFF;stroke-width:0.7615;stroke-miterlimit:10;}
	.st10{fill:#666666;}
	.st11{opacity:0.29;}
	.st12{fill:url(#SVGID_3_);}
	.st13{clip-path:url(#SVGID_7_);}
	.st14{fill:#D0D1D2;}
	.st15{clip-path:url(#SVGID_9_);}
	.st16{clip-path:url(#SVGID_11_);}
	.st17{clip-path:url(#SVGID_11_);fill:none;}
	.st18{fill:#BB2829;}
	.st19{opacity:0.39;fill:#211F20;}
	.st20{fill:none;stroke:#FFFFFF;stroke-width:7.3691;stroke-miterlimit:10;}
	.st21{fill:#BD2F27;}
	.st22{opacity:0.48;fill:#38383A;}
	.st23{opacity:0.59;fill:#665940;}
	.st24{opacity:0.2;}
	.st25{fill:none;stroke:#C7C8CA;stroke-width:2;stroke-miterlimit:10;}
	.st26{fill:#C7C8CA;}
	.st27{fill:none;stroke:#FFFFFF;stroke-width:7.3432;stroke-miterlimit:10;}
	.st28{fill:none;stroke:#FFFFFF;stroke-width:7.9334;stroke-miterlimit:10;}
	.st29{fill:#B12E33;}
	.st30{fill:none;stroke:#191919;stroke-width:4;stroke-miterlimit:10;}
	.st31{fill:#353535;}
	.st32{fill:#232323;}
	.st33{fill:none;stroke:#232323;stroke-width:2;stroke-miterlimit:10;}
	.st34{fill:none;stroke:#312783;stroke-width:3;stroke-linecap:round;stroke-linejoin:round;stroke-miterlimit:10;}
	.st35{fill:none;stroke:#99999E;stroke-width:3;stroke-linecap:round;stroke-linejoin:round;stroke-miterlimit:10;}
	.st36{opacity:0.57;fill:#C7C8CA;}
	.st37{fill:#1A181B;fill-opacity:0.3;}
	.st38{opacity:0.8;fill:#BB2829;}
</style>
<g>
	<ellipse class="st1" cx="32.2" cy="32.2" rx="28.9" ry="29.8"/>
	<g>
		<path class="st8" d="M0.2,35.4c0-1.8,0-3.5,0-5.3c0-0.2,0.1-0.3,0.1-0.5c0.4-4.4,1.6-8.7,3.8-12.5C9.6,7.2,17.9,1.6,28.8,0.5
			C33.5,0,38,0.7,42.4,2.4c13,5,21.6,18.4,20.3,33.2c-0.4,4.5-1.6,8.7-3.7,12.7c-6.4,11.9-19.5,19-33.1,16.3
			C13.5,62,5.3,54.2,1.4,41.8C0.7,39.7,0.4,37.5,0.2,35.4z M31.5,51L31.5,51c3.5,0,7,0,10.5,0c0.5,0,1,0,1.5-0.1
			c3.4-0.6,5.7-3.4,5.7-6.9c0-7.5,0-15,0-22.5c0-0.4,0-0.8-0.1-1.1c-0.6-3.5-3.3-5.9-6.8-5.9c-7.2,0-14.5,0-21.7,0
			c-0.4,0-0.8,0-1.2,0.1c-3.4,0.6-5.7,3.4-5.7,7c0,7.5,0,15,0,22.4c0,0.4,0,0.8,0.1,1.2c0.6,3.5,3.3,5.8,6.7,5.8
			C24.2,51,27.9,51,31.5,51z"/>
		<path class="st8" d="M31.5,47.6c-3.4,0-6.8,0-10.2,0c-0.6,0-1.1,0-1.6-0.2c-1.7-0.5-2.6-1.9-2.6-4c0-4.1,0-8.2,0-12.4
			c0-0.5,0-1.1,0-1.6c0-0.4,0.2-0.6,0.6-0.6c1.4,0,2.8,0,4.2,0c0.6,0,0.7,0.2,0.5,0.7c-0.9,2.9-0.6,5.7,0.9,8.3
			c2.1,3.6,6.2,5.4,10.2,4.6c3.9-0.8,6.9-4.1,7.6-8.2c0.2-1.6,0.1-3.1-0.4-4.7c-0.2-0.7-0.2-0.7,0.5-0.7c1.4,0,2.7,0,4.1,0
			c0.5,0,0.7,0.2,0.7,0.7c0,4.7,0,9.4,0,14.1c0,2-1,3.3-2.6,3.7c-0.5,0.1-1.1,0.2-1.6,0.2C38.3,47.6,34.9,47.6,31.5,47.6z"/>
		<path class="st8" d="M37.8,32.5c0.3,3.1-2.4,6.4-5.5,6.7c-3.9,0.5-6.8-2.6-7.1-5.6c-0.4-3.9,2.3-7,5.5-7.3
			C34.7,25.8,37.7,29,37.8,32.5z"/>
		<path class="st8" d="M45.2,21.7c0,0.8,0,1.7,0,2.5c0,0.4-0.1,0.7-0.6,0.7c-1.7,0-3.3,0-5,0c-0.4,0-0.6-0.2-0.6-0.6
			c0-1.7,0-3.4,0-5.2c0-0.5,0.2-0.6,0.6-0.6c1.6,0,3.3,0,4.9,0c0.4,0,0.6,0.2,0.6,0.6C45.2,20,45.2,20.9,45.2,21.7z"/>
	</g>
</g>
</svg>
