<?xml version="1.0" encoding="utf-8"?>
<!-- Generator: Adobe Illustrator 21.0.2, SVG Export Plug-In . SVG Version: 6.00 Build 0)  -->
<svg version="1.1" id="Capa_1" xmlns="http://www.w3.org/2000/svg" xmlns:xlink="http://www.w3.org/1999/xlink" x="0px" y="0px"
	 viewBox="0 0 63.1 65.1" style="enable-background:new 0 0 63.1 65.1;" xml:space="preserve">
<style type="text/css">
	.st0{fill:#221F20;}
	.st1{fill:#FFFFFF;}
	.st2{opacity:0.1;}
	.st3{opacity:8.000000e-02;fill:#C7C8CA;}
	.st4{opacity:0.43;fill:none;stroke:#FFFFFF;stroke-width:1.9494;stroke-miterlimit:10;}
	.st5{opacity:0.1;fill-rule:evenodd;clip-rule:evenodd;fill:#FFFFFF;}
	.st6{fill:#0D1117;}
	.st7{fill:#20252C;}
	.st8{fill:#EB0029;}
	.st9{fill:none;stroke:#FFFFFF;stroke-width:0.7615;stroke-miterlimit:10;}
	.st10{fill:#666666;}
	.st11{opacity:0.29;}
	.st12{fill:url(#SVGID_3_);}
	.st13{clip-path:url(#SVGID_7_);}
	.st14{fill:#D0D1D2;}
	.st15{clip-path:url(#SVGID_9_);}
	.st16{clip-path:url(#SVGID_11_);}
	.st17{clip-path:url(#SVGID_11_);fill:none;}
	.st18{fill:#BB2829;}
	.st19{opacity:0.39;fill:#211F20;}
	.st20{fill:none;stroke:#FFFFFF;stroke-width:7.3691;stroke-miterlimit:10;}
	.st21{fill:#BD2F27;}
	.st22{opacity:0.48;fill:#38383A;}
	.st23{opacity:0.59;fill:#665940;}
	.st24{opacity:0.2;}
	.st25{fill:none;stroke:#C7C8CA;stroke-width:2;stroke-miterlimit:10;}
	.st26{fill:#C7C8CA;}
	.st27{fill:none;stroke:#FFFFFF;stroke-width:7.3432;stroke-miterlimit:10;}
	.st28{fill:none;stroke:#FFFFFF;stroke-width:7.9334;stroke-miterlimit:10;}
	.st29{fill:#B12E33;}
	.st30{fill:none;stroke:#191919;stroke-width:4;stroke-miterlimit:10;}
	.st31{fill:#353535;}
	.st32{fill:#232323;}
	.st33{fill:none;stroke:#232323;stroke-width:2;stroke-miterlimit:10;}
	.st34{fill:none;stroke:#312783;stroke-width:3;stroke-linecap:round;stroke-linejoin:round;stroke-miterlimit:10;}
	.st35{fill:none;stroke:#99999E;stroke-width:3;stroke-linecap:round;stroke-linejoin:round;stroke-miterlimit:10;}
	.st36{opacity:0.57;fill:#C7C8CA;}
	.st37{fill:#1A181B;fill-opacity:0.3;}
	.st38{opacity:0.8;fill:#BB2829;}
</style>
<g>
	<ellipse class="st1" cx="31.3" cy="32.7" rx="28.4" ry="29.3"/>
	<g>
		<path class="st8" d="M28.9,0c1.7,0,3.4,0,5.2,0c1.5,0.2,2.9,0.3,4.3,0.7c11.9,3.2,19.7,10.8,23.4,22.9c0.6,2,0.9,4.1,1.1,6.1
			c0,1.8,0,3.5,0,5.3c-0.2,1.5-0.4,3-0.7,4.5c-3.8,17.4-20.5,28.5-37.7,24.5C7.7,60.2-3.2,42.9,0.8,25.2C3.7,12.9,11.3,4.9,23,1.1
			C24.9,0.5,26.9,0.2,28.9,0z M52.7,14.4c-1.6,0.8-3.2,1.5-4.9,1.9c-0.5,0.1-0.9,0-1.3-0.3c-4.4-4.3-11.8-2.9-14.5,2.7
			c-0.9,1.9-1.1,3.8-0.9,5.8c0.1,0.7,0,0.8-0.6,0.7c-0.6,0-1.1-0.1-1.7-0.2c-6.5-1-11.9-4-16.3-9.1c-0.5-0.6-0.6-0.6-0.9,0.2
			c-1.7,3.8-0.7,8.6,2.6,11.3c0.2,0.2,0.5,0.2,0.5,0.6c-0.2,0.1-0.5,0.1-0.7,0c-1-0.1-1.9-0.4-2.8-0.8c-0.4-0.2-0.6-0.2-0.5,0.4
			c0.4,4.2,2.9,7.4,6.8,8.6c0.2,0,0.4,0,0.5,0.3c-1.1,0.2-2.2,0.4-3.3,0.2c-0.5-0.1-0.7,0-0.4,0.6c1.5,3.4,4,5.3,7.6,5.8
			c0.2,0,0.5-0.1,0.5,0.2c0.1,0.3-0.2,0.4-0.4,0.5c-3,2.2-6.3,3.4-10,3.6c-0.9,0-1.7,0-2.6,0c0.1,0.3,0.3,0.3,0.5,0.4
			C15.4,51,21.3,52,27.6,51c7-1.1,12.6-4.7,16.8-10.7c3.5-5,5.2-10.6,5.2-16.8c0-0.5,0.1-0.8,0.5-1.1c1.4-1.1,2.5-2.3,3.6-3.7
			c0.1-0.1,0.3-0.2,0.2-0.5c-1.5,0.6-3,1.1-4.7,1.1C50.7,18,52.1,16.5,52.7,14.4z"/>
	</g>
</g>
</svg>
