<?xml version="1.0" encoding="utf-8"?>
<!-- Generator: Adobe Illustrator 21.0.2, SVG Export Plug-In . SVG Version: 6.00 Build 0)  -->
<svg version="1.1" id="Capa_1" xmlns="http://www.w3.org/2000/svg" xmlns:xlink="http://www.w3.org/1999/xlink" x="0px" y="0px"
	 viewBox="0 0 63.1 65.1" style="enable-background:new 0 0 63.1 65.1;" xml:space="preserve">
<style type="text/css">
	.st0{fill:#221F20;}
	.st1{fill:#FFFFFF;}
	.st2{opacity:0.1;}
	.st3{opacity:8.000000e-02;fill:#C7C8CA;}
	.st4{opacity:0.43;fill:none;stroke:#FFFFFF;stroke-width:1.9494;stroke-miterlimit:10;}
	.st5{opacity:0.1;fill-rule:evenodd;clip-rule:evenodd;fill:#FFFFFF;}
	.st6{fill:#0D1117;}
	.st7{fill:#20252C;}
	.st8{fill:#EB0029;}
	.st9{fill:none;stroke:#FFFFFF;stroke-width:0.7615;stroke-miterlimit:10;}
	.st10{fill:#666666;}
	.st11{opacity:0.29;}
	.st12{fill:url(#SVGID_3_);}
	.st13{clip-path:url(#SVGID_7_);}
	.st14{fill:#D0D1D2;}
	.st15{clip-path:url(#SVGID_9_);}
	.st16{clip-path:url(#SVGID_11_);}
	.st17{clip-path:url(#SVGID_11_);fill:none;}
	.st18{fill:#BB2829;}
	.st19{opacity:0.39;fill:#211F20;}
	.st20{fill:none;stroke:#FFFFFF;stroke-width:7.3691;stroke-miterlimit:10;}
	.st21{fill:#BD2F27;}
	.st22{opacity:0.48;fill:#38383A;}
	.st23{opacity:0.59;fill:#665940;}
	.st24{opacity:0.2;}
	.st25{fill:none;stroke:#C7C8CA;stroke-width:2;stroke-miterlimit:10;}
	.st26{fill:#C7C8CA;}
	.st27{fill:none;stroke:#FFFFFF;stroke-width:7.3432;stroke-miterlimit:10;}
	.st28{fill:none;stroke:#FFFFFF;stroke-width:7.9334;stroke-miterlimit:10;}
	.st29{fill:#B12E33;}
	.st30{fill:none;stroke:#191919;stroke-width:4;stroke-miterlimit:10;}
	.st31{fill:#353535;}
	.st32{fill:#232323;}
	.st33{fill:none;stroke:#232323;stroke-width:2;stroke-miterlimit:10;}
	.st34{fill:none;stroke:#312783;stroke-width:3;stroke-linecap:round;stroke-linejoin:round;stroke-miterlimit:10;}
	.st35{fill:none;stroke:#99999E;stroke-width:3;stroke-linecap:round;stroke-linejoin:round;stroke-miterlimit:10;}
	.st36{opacity:0.57;fill:#C7C8CA;}
	.st37{fill:#1A181B;fill-opacity:0.3;}
	.st38{opacity:0.8;fill:#BB2829;}
</style>
<g>
	<ellipse class="st1" cx="30.7" cy="31.9" rx="28.9" ry="29.8"/>
	<g>
		<path class="st8" d="M30.2,0c0.9,0,1.8,0,2.7,0c0,0,0.1,0,0.1,0c0.8,0,1.6,0.1,2.4,0.2c2,0.3,3.9,0.7,5.9,1.3
			c5.7,1.9,10.4,5.2,14.3,9.9c3.2,3.9,5.4,8.4,6.6,13.4c0.4,1.8,0.7,3.7,0.8,5.6c0,0.2,0,0.5,0,0.7c0,0.9,0,1.8,0,2.7
			c0,0.1,0,0.1,0,0.2c0,0.9-0.1,1.7-0.2,2.6c-0.2,2-0.7,4-1.3,5.9c-1.8,5.7-4.9,10.6-9.3,14.5c-3.4,3.1-7.4,5.3-11.7,6.6
			c-2.3,0.7-4.6,1.1-6.9,1.3c-0.2,0-0.5,0-0.7,0.1c-0.9,0-1.8,0-2.7,0c0,0-0.1,0-0.1,0c-0.5,0-0.9-0.1-1.4-0.1
			c-1.3-0.1-2.6-0.3-3.9-0.6c-3-0.7-5.9-1.8-8.6-3.3c-3.5-2-6.5-4.6-9.1-7.8c-3.3-4.1-5.5-8.7-6.5-13.9c-0.3-1.5-0.5-3.1-0.6-4.7
			c0-0.2,0-0.5-0.1-0.7c0-0.9,0-1.8,0-2.7c0-0.4,0.1-0.8,0.1-1.2c0.1-1.1,0.2-2.1,0.4-3.2c0.7-3.9,2-7.6,4-11
			c2.3-3.9,5.2-7.2,8.8-9.8c3.5-2.6,7.4-4.4,11.7-5.3c1.5-0.3,3-0.5,4.5-0.6C29.7,0,30,0,30.2,0z M31.6,47.8c1.8,0,3.6,0,5.4-0.1
			c1.4,0,2.7-0.1,4.1-0.1c1.1-0.1,2.3-0.1,3.4-0.2c1.1-0.1,2.1-0.2,3.1-0.4c1.8-0.3,3.1-1.3,3.9-2.9c0.3-0.7,0.5-1.4,0.6-2.1
			c0.3-1.5,0.4-3,0.5-4.6c0.1-1.4,0.1-2.7,0.2-4.1c0-1.2,0-2.3,0-3.5c0-1.4-0.1-2.8-0.3-4.2c-0.1-1.1-0.2-2.2-0.5-3.3
			c-0.3-1.6-1.1-2.8-2.5-3.7c-0.8-0.5-1.6-0.7-2.5-0.8c-1.7-0.3-3.4-0.4-5.1-0.5c-1-0.1-2-0.1-3-0.1c-1.5,0-2.9-0.1-4.4-0.1
			c-2.9,0-5.7,0-8.6,0.1c-1,0-2,0.1-3.1,0.1c-1.6,0.1-3.1,0.1-4.7,0.3c-0.9,0.1-1.8,0.2-2.7,0.3c-2,0.4-3.3,1.5-4.1,3.4
			c-0.4,0.9-0.5,1.8-0.6,2.8c-0.2,1.2-0.3,2.5-0.3,3.7c-0.1,1.3-0.1,2.6-0.1,3.9c0,1,0,2,0,3c0,0.6,0,1.1,0.1,1.7
			c0.1,1.2,0.1,2.4,0.3,3.6c0.1,1,0.2,1.9,0.5,2.9c0.6,2.1,1.9,3.4,3.9,4c1,0.3,2.1,0.3,3.1,0.4c1.2,0.1,2.3,0.2,3.5,0.2
			c1.2,0.1,2.4,0.1,3.6,0.1c1,0,2,0.1,3.1,0.1C29.4,47.8,30.5,47.8,31.6,47.8z"/>
		<path class="st8" d="M27.3,32.5c0-2.1,0-4.2,0-6.3c0-0.3,0-0.3,0.2-0.1c3.6,2.1,7.1,4.2,10.7,6.3c0,0,0,0,0.1,0
			c0.1,0.1,0.1,0.1,0,0.2c-0.5,0.3-1,0.6-1.5,0.9c-3.1,1.8-6.1,3.6-9.2,5.4c0,0,0,0,0,0c-0.2,0.1-0.2,0.1-0.2-0.1
			C27.3,36.8,27.3,34.6,27.3,32.5z"/>
	</g>
</g>
</svg>
