<?xml version="1.0" encoding="iso-8859-1"?>
<!-- Generator: Adobe Illustrator 21.0.2, SVG Export Plug-In . SVG Version: 6.00 Build 0)  -->
<svg version="1.1" id="Capa_1" xmlns="http://www.w3.org/2000/svg" xmlns:xlink="http://www.w3.org/1999/xlink" x="0px" y="0px"
	 viewBox="0 0 439 281" style="enable-background:new 0 0 439 281;" xml:space="preserve">
<g>
	<g>
		
			<image style="overflow:visible;opacity:0.75;" width="492" height="334" xlink:href="C13C5408CE0CC4C1.png"  transform="matrix(1 0 0 1 -19.5117 -19.5117)">
		</image>
		<g>
			<rect x="-0.041" y="-0.058" style="fill:#BB2829;" width="438.461" height="280.844"/>
		</g>
	</g>
	<g style="opacity:0.2;">
		<polygon style="fill:#FFFFFF;" points="415.245,153.18 437.732,153.18 437.316,111.116 373.441,153.18 		"/>
		<polygon style="fill:#FFFFFF;" points="415.348,195.244 437.835,195.244 437.419,153.18 373.544,195.244 		"/>
		<polygon style="fill:#FFFFFF;" points="351.474,195.244 373.96,195.244 373.544,153.18 309.669,195.244 		"/>
		<polygon style="fill:#FFFFFF;" points="351.474,238.346 373.96,238.346 373.544,196.282 309.669,238.346 		"/>
		<polygon style="fill:#FFFFFF;" points="351.474,280.929 373.96,280.929 373.544,238.865 309.669,280.929 		"/>
		<polygon style="fill:#FFFFFF;" points="287.599,238.346 310.085,238.346 309.669,196.282 245.795,238.346 		"/>
		<polygon style="fill:#FFFFFF;" points="287.599,280.929 310.085,280.929 309.669,238.865 245.795,280.929 		"/>
		<polygon style="fill:#FFFFFF;" points="224.243,280.929 246.73,280.929 246.314,238.865 182.439,280.929 		"/>
		<polygon style="fill:#FFFFFF;" points="415.348,238.346 437.835,238.346 437.419,196.282 373.544,238.346 		"/>
		<polygon style="fill:#FFFFFF;" points="415.348,280.41 437.835,280.41 437.419,238.346 373.544,280.41 		"/>
	</g>
</g>
<g>
</g>
<g>
</g>
<g>
</g>
<g>
</g>
<g>
</g>
<g>
</g>
<g>
</g>
<g>
</g>
<g>
</g>
<g>
</g>
<g>
</g>
<g>
</g>
<g>
</g>
<g>
</g>
<g>
</g>
</svg>
