<?xml version="1.0" encoding="utf-8"?>
<!-- Generator: Adobe Illustrator 21.0.2, SVG Export Plug-In . SVG Version: 6.00 Build 0)  -->
<svg version="1.1" id="Capa_1" xmlns="http://www.w3.org/2000/svg" xmlns:xlink="http://www.w3.org/1999/xlink" x="0px" y="0px"
	 viewBox="0 0 153.2 68.6" style="enable-background:new 0 0 153.2 68.6;" xml:space="preserve">
<style type="text/css">
	.st0{fill:#221F20;}
	.st1{fill:#FFFFFF;}
	.st2{opacity:0.1;}
	.st3{opacity:8.000000e-02;fill:#C7C8CA;}
	.st4{opacity:0.43;fill:none;stroke:#FFFFFF;stroke-width:1.9494;stroke-miterlimit:10;}
	.st5{opacity:0.1;fill-rule:evenodd;clip-rule:evenodd;fill:#FFFFFF;}
	.st6{fill:#0D1117;}
	.st7{fill:#20252C;}
	.st8{fill:#EB0029;}
	.st9{fill:none;stroke:#FFFFFF;stroke-width:0.7615;stroke-miterlimit:10;}
	.st10{fill:#666666;}
	.st11{opacity:0.29;}
	.st12{fill:url(#SVGID_3_);}
	.st13{clip-path:url(#SVGID_7_);}
	.st14{fill:#D0D1D2;}
	.st15{clip-path:url(#SVGID_9_);}
	.st16{clip-path:url(#SVGID_11_);}
	.st17{clip-path:url(#SVGID_11_);fill:none;}
	.st18{fill:#BB2829;}
	.st19{opacity:0.39;fill:#211F20;}
	.st20{fill:none;stroke:#FFFFFF;stroke-width:7.3691;stroke-miterlimit:10;}
	.st21{fill:#BD2F27;}
	.st22{opacity:0.48;fill:#38383A;}
	.st23{opacity:0.59;fill:#665940;}
	.st24{opacity:0.2;}
	.st25{fill:none;stroke:#C7C8CA;stroke-width:2;stroke-miterlimit:10;}
	.st26{fill:#C7C8CA;}
	.st27{fill:none;stroke:#FFFFFF;stroke-width:7.3432;stroke-miterlimit:10;}
	.st28{fill:none;stroke:#FFFFFF;stroke-width:7.9334;stroke-miterlimit:10;}
	.st29{clip-path:url(#SVGID_13_);}
	.st30{clip-path:url(#SVGID_13_);fill:none;}
	.st31{clip-path:url(#SVGID_15_);}
	.st32{clip-path:url(#SVGID_15_);fill:none;}
	.st33{fill:none;}
	.st34{fill:#B12E33;}
	.st35{fill:none;stroke:#191919;stroke-width:4;stroke-miterlimit:10;}
	.st36{fill:#353535;}
	.st37{fill:#232323;}
	.st38{fill:none;stroke:#232323;stroke-width:2;stroke-miterlimit:10;}
	.st39{fill:none;stroke:#312783;stroke-width:3;stroke-linecap:round;stroke-linejoin:round;stroke-miterlimit:10;}
	.st40{fill:none;stroke:#99999E;stroke-width:3;stroke-linecap:round;stroke-linejoin:round;stroke-miterlimit:10;}
	.st41{fill:#312783;}
	.st42{fill:#99999E;}
	.st43{opacity:0.57;fill:#C7C8CA;}
	.st44{fill:#1A181B;fill-opacity:0.3;}
	.st45{opacity:0.8;fill:#BB2829;}
	.st46{fill:#CC1719;}
	.st47{fill:#BDBDBD;}
	.st48{clip-path:url(#SVGID_19_);}
	.st49{clip-path:url(#SVGID_19_);fill:none;}
</style>
<g>
	<g>
		<path class="st1" d="M16,16.3V10c0-1-0.1-1.8-0.4-2.2S14.7,7.1,14,7c-0.2,0-0.4-0.1-0.4-0.3c0-0.2,0.1-0.3,0.2-0.3
			c0.2,0,0.4,0,0.8,0.1c0.3,0,0.7,0.1,1.1,0.1c0.9,0,1.5,0,1.7,0c0.3,0,0.5,0,0.5,0c0.2,0,0.2,0.1,0.2,0.2c0,0.1-0.1,0.2-0.3,0.3
			c-0.5,0.2-0.8,0.5-1,0.9S16.8,9,16.8,10v6c0,2.2-0.4,3.9-1.3,5.1c-0.6,0.8-1.4,1.4-2.4,1.8c-1,0.5-2.2,0.7-3.4,0.7
			c-1.4,0-2.6-0.3-3.7-0.8c-1.1-0.5-1.9-1.3-2.4-2.2c-0.6-1.1-0.9-2.4-0.9-4.1v-6.2l0-0.7c0-0.9-0.1-1.5-0.4-1.8
			C2.1,7.5,1.6,7.3,0.9,7.2c-0.2,0-0.3-0.1-0.3-0.3c0-0.2,0.2-0.3,0.5-0.3c0.2,0,0.5,0,0.8,0c0.4,0,0.6,0,0.8,0l0.9,0h0.9
			c0.1,0,0.3,0,0.7,0c0.3,0,0.5,0,0.6,0c0.2,0,0.3,0.1,0.3,0.2C6.1,6.9,6,7,5.7,7.1C5.2,7.2,4.9,7.4,4.8,7.7C4.6,8,4.5,8.6,4.5,9.4
			l0,0.8v6.1c0,2.1,0.3,3.6,1,4.5c0.9,1.3,2.5,1.9,4.6,1.9c1.9,0,3.4-0.5,4.4-1.6C15.5,20,16,18.4,16,16.3z"/>
		<path class="st1" d="M33.3,11.4v10.2c0,0.9,0,1.5-0.1,1.7c0,0.2-0.2,0.3-0.3,0.3c-0.1,0-0.2,0-0.3-0.1l-0.3-0.3L22,11.4l-0.1-0.1
			c0,0-0.1-0.1-0.2-0.1c-0.2,0-0.2,0.2-0.2,0.5V20l0,0.5l0,0.9c0.1,0.5,0.2,0.9,0.4,1.1s0.7,0.4,1.3,0.5c0.3,0,0.4,0.1,0.4,0.3
			c0,0.2-0.1,0.2-0.3,0.2c-0.1,0-0.2,0-0.4,0c-0.1,0-0.4,0-1.1-0.1l-1.2-0.1l-0.6,0c-0.3,0-0.6,0-0.9,0.1c-0.2,0-0.4,0-0.5,0
			c-0.2,0-0.3-0.1-0.3-0.2c0-0.1,0.1-0.2,0.3-0.3c0.7-0.2,1.1-0.6,1.4-0.9c0.2-0.4,0.4-1,0.4-1.9v-8.3c0-1.4-0.2-2.5-0.7-3.3
			c-0.4-0.8-1.1-1.3-1.9-1.4c-0.2,0-0.3-0.1-0.3-0.3c0-0.2,0.1-0.2,0.3-0.2c0,0,0.1,0,0.2,0l0.5,0l0.8,0l0.2,0c0.2,0,0.3,0,0.5,0
			c0.2,0,0.4,0.1,0.6,0.4l11.2,12.7c0.2,0.2,0.3,0.3,0.3,0.3c0.1,0,0.1-0.1,0.1-0.2v-6l0-1.6l-0.1-2.8c-0.1-0.7-0.3-1.2-0.6-1.5
			c-0.3-0.3-0.9-0.5-1.7-0.6c-0.2,0-0.4-0.1-0.4-0.3c0-0.2,0.1-0.2,0.4-0.2c0.1,0,0.3,0,0.5,0c0.6,0.1,1.3,0.1,2.3,0.1
			c0.5,0,0.9,0,1.2-0.1c0.3,0,0.5-0.1,0.6-0.1c0.2,0,0.3,0.1,0.3,0.3c0,0.1-0.1,0.2-0.2,0.2c-0.5,0.1-0.8,0.3-1,0.6
			c-0.2,0.3-0.2,0.8-0.2,1.6v1.3L33.3,11.4z"/>
		<path class="st1" d="M39,10.2v9.2c0,1.1,0.1,1.9,0.2,2.3c0.2,0.4,0.4,0.7,0.6,0.9c0.2,0.2,0.6,0.3,1.1,0.4
			c0.4,0.1,0.6,0.2,0.6,0.3c0,0.2-0.1,0.3-0.4,0.3c-0.1,0-0.3,0-0.5,0c-0.3,0-0.7-0.1-1.3-0.1l-1.8,0l-1.4,0.1c-0.2,0-0.4,0-0.6,0
			c-0.2,0-0.3-0.1-0.3-0.3c0-0.1,0.1-0.2,0.4-0.3c0.6-0.1,1-0.3,1.2-0.6c0.2-0.3,0.3-1,0.3-2V9.8c0-1-0.1-1.7-0.3-2
			c-0.2-0.4-0.7-0.6-1.5-0.7c-0.3,0-0.4-0.1-0.4-0.3c0-0.2,0.1-0.3,0.4-0.3c0.1,0,0.1,0,0.2,0c0.6,0.1,1.4,0.1,2.4,0.1
			c0.6,0,1.1,0,1.6,0l0.8-0.1c0.2,0,0.3,0,0.3,0c0.2,0,0.3,0.1,0.3,0.2c0,0.1-0.1,0.3-0.3,0.3l-0.6,0.2C39.3,7.5,39,8.5,39,10.2z"/>
		<path class="st1" d="M44.6,9.6l4.7,10.8c0.1,0.3,0.2,0.4,0.3,0.4c0.1,0,0.2-0.2,0.4-0.7l0.2-0.5l2.7-6.4c1.2-2.7,1.7-4.5,1.7-5.3
			c0-0.3-0.1-0.5-0.2-0.6c-0.1-0.1-0.4-0.2-0.7-0.3C53.2,7,53,6.9,53,6.8c0-0.2,0.1-0.2,0.4-0.2c0.1,0,0.2,0,0.4,0c0.6,0,1,0,1.1,0
			h0.5l0.6,0h0.3l1,0c0.2,0,0.2,0.1,0.2,0.2c0,0.1-0.1,0.2-0.3,0.3c-0.6,0.2-1,0.7-1.3,1.4l-0.3,0.8l-6.1,14.2
			c-0.2,0.4-0.3,0.6-0.5,0.6c-0.2,0-0.3-0.2-0.5-0.6L42.3,9.1C42,8.5,41.8,8,41.5,7.7c-0.2-0.3-0.6-0.4-1-0.5
			c-0.4-0.1-0.7-0.1-0.8-0.2c-0.1,0-0.1-0.1-0.1-0.2c0-0.2,0.1-0.2,0.3-0.2c0.1,0,0.2,0,0.4,0c0.1,0,0.5,0,1.2,0l1.2,0l0.8,0
			c0.2,0,0.4,0,0.8,0c0.2,0,0.3,0,0.3,0c0.2,0,0.3,0.1,0.3,0.2c0,0.1-0.1,0.2-0.2,0.3c-0.3,0.1-0.5,0.2-0.6,0.3
			c-0.1,0.1-0.1,0.2-0.1,0.4C44.1,8.2,44.2,8.8,44.6,9.6z"/>
		<path class="st1" d="M60.1,8.6v4.9c0,0.4,0,0.6,0.1,0.7s0.3,0.1,0.6,0.1h1.9c0.9,0,1.5,0,2-0.1c0.4-0.1,0.7-0.2,0.9-0.4
			c0.1-0.1,0.2-0.5,0.4-1c0-0.2,0.1-0.3,0.3-0.3c0.2,0,0.2,0.1,0.2,0.3c0,0.1,0,0.1,0,0.3c-0.1,0.8-0.1,1.5-0.1,2.2
			c0,0.5,0,1,0.1,1.5c0,0.2,0,0.3,0,0.4c0,0.2-0.1,0.3-0.2,0.3c-0.2,0-0.3-0.1-0.3-0.3l-0.1-0.3c-0.1-0.5-0.3-0.9-0.6-1.1
			c-0.3-0.2-0.8-0.3-1.5-0.3h-2.7c-0.4,0-0.7,0-0.8,0.1s-0.2,0.2-0.2,0.5l0,0.4v4.5c0,0.7,0.1,1.1,0.4,1.3c0.2,0.2,0.9,0.3,1.9,0.3
			c3.2,0,5.2-0.7,6.2-2.2c0.1-0.1,0.2-0.2,0.3-0.2c0.1,0,0.2,0.1,0.2,0.3c0,0.5-0.3,1.2-0.9,1.9c-0.7,0.9-1.6,1.3-2.7,1.3
			c-0.2,0-0.6,0-1,0c-1.6-0.1-2.8-0.2-3.9-0.2c-1.4,0-2.4,0-3,0.1c-0.3,0.1-0.5,0.1-0.6,0.1c-0.3,0-0.4-0.1-0.4-0.3
			c0-0.1,0.1-0.2,0.3-0.3l0.5-0.1c0.6-0.2,0.9-0.7,0.9-1.7l0-0.8V10c0-1.2-0.1-2-0.4-2.4C57.6,7.2,57.1,7,56.3,7C56.1,7,56,7,56,6.8
			c0-0.2,0.2-0.3,0.5-0.3c0.2,0,0.5,0,0.8,0.1c1.2,0.1,2.6,0.2,4.2,0.2c1,0,1.9,0,2.6,0l1.7-0.1c0.5,0,0.8,0,0.9,0
			c0.2,0,0.4,0,0.5,0c0.3,0,0.4,0.1,0.4,0.4c0,0.1,0,0.2,0,0.3c0,0.1-0.1,0.4-0.1,1l0,0.7c0,0.5-0.1,0.8-0.1,0.9
			c0,0.1-0.1,0.2-0.3,0.2c-0.2,0-0.2-0.1-0.2-0.4V9.2c0-0.3,0-0.5-0.1-0.7c-0.2-0.4-0.5-0.6-0.9-0.7c-0.5-0.1-1.3-0.2-2.6-0.2h-1.9
			c-0.5,0-0.8,0.1-1,0.2C60.1,7.9,60.1,8.2,60.1,8.6z"/>
		<path class="st1" d="M77.6,15l3.4,5l0.4,0.6c1,1.5,2,2.3,2.9,2.4l0.4,0c0.1,0,0.2,0.1,0.2,0.2c0,0.1-0.2,0.2-0.5,0.3
			c-0.4,0.1-0.8,0.1-1.2,0.1c-0.7,0-1.4-0.2-2-0.6c-0.6-0.4-1.2-1.1-1.8-2l-3-4.6l-0.2-0.3c-0.2-0.3-0.5-0.5-1-0.5h-1.6l-0.3,0
			c-0.1,0.1-0.1,0.2-0.1,0.4v3.8l0,0.5c0,0.7,0,1.2,0.1,1.4c0.1,0.3,0.2,0.5,0.5,0.7c0.3,0.3,0.9,0.5,1.6,0.5c0.3,0,0.4,0.1,0.5,0.3
			c0,0.2-0.1,0.2-0.4,0.2c-0.1,0-0.4,0-0.7-0.1c-0.3,0-0.9-0.1-1.6-0.1l-1.2,0l-0.6,0c-0.3,0-0.6,0-1,0.1c-0.3,0-0.5,0-0.7,0
			c-0.2,0-0.3-0.1-0.3-0.2c0-0.1,0.1-0.2,0.3-0.2c0.7-0.1,1.1-0.4,1.3-0.9c0.2-0.5,0.3-1.4,0.3-2.8v-8.8l0-1.3c0-1.3-0.4-2-1.3-2.1
			l-0.6-0.1C69.1,7.1,69,7,69,6.8c0-0.2,0.1-0.3,0.4-0.3c0.1,0,0.3,0,0.9,0c0.3,0,0.7,0,1.1,0c0.4,0,1,0,1.9-0.1
			c0.7,0,1.2-0.1,1.7-0.1c1.9,0,3.3,0.4,4.2,1.1c1,0.7,1.4,1.8,1.4,3.1C80.7,12.6,79.7,14,77.6,15z M74.1,14.7h1.4
			c1.1,0,1.9-0.3,2.5-0.9c0.6-0.6,0.9-1.4,0.9-2.4c0-1.2-0.4-2.2-1.2-2.9c-0.8-0.8-1.9-1.1-3.2-1.1c-0.5,0-0.8,0.1-1,0.2
			S73.2,8,73.2,8.5l0,0.4v5c0,0.4,0.1,0.6,0.2,0.7C73.4,14.7,73.7,14.7,74.1,14.7z"/>
		<path class="st1" d="M88.4,6.4c0.9,0,1.6,0.1,2.2,0.4l0.8,0.4c0.1,0,0.1,0,0.2,0c0.1,0,0.2,0,0.3-0.1l0.2-0.1c0,0,0.1,0,0.1,0
			c0.2,0,0.3,0.2,0.3,0.6c0,0.1,0.1,0.5,0.2,1.2L93,9.9c0,0.3,0.1,0.4,0.1,0.5c0,0.3-0.1,0.4-0.3,0.4c-0.1,0-0.3-0.2-0.4-0.6
			c-0.3-0.9-0.9-1.6-1.8-2.2s-1.9-0.9-3-0.9c-0.9,0-1.6,0.3-2.2,0.8c-0.6,0.5-0.9,1.2-0.9,1.9c0,0.7,0.2,1.3,0.6,1.8
			c0.3,0.4,0.7,0.7,1.1,0.9c0.4,0.2,1.4,0.5,2.9,1.1c3,1,4.5,2.6,4.5,4.8c0,1.5-0.6,2.8-1.7,3.7c-1.1,1-2.5,1.5-4.3,1.5
			c-0.6,0-1.3-0.1-2.1-0.3S84.3,23,84,22.8c-0.1-0.1-0.2-0.2-0.3-0.3s-0.1-0.4-0.2-0.8c0-0.1-0.1-0.4-0.3-1.1
			c-0.2-0.7-0.3-1.3-0.3-1.6c0-0.2,0.1-0.4,0.2-0.4c0.1,0,0.3,0.2,0.4,0.6c0.3,1,0.9,1.9,1.9,2.5c0.9,0.7,2,1,3.1,1
			c1.1,0,2.1-0.3,2.8-1c0.8-0.7,1.2-1.5,1.2-2.4c0-0.9-0.4-1.7-1.1-2.3c-0.4-0.3-1.4-0.8-3.2-1.4c-1.8-0.6-3.1-1.3-3.8-2
			c-0.8-0.7-1.1-1.7-1.1-2.9c0-1.3,0.5-2.4,1.5-3.2S86.9,6.4,88.4,6.4z"/>
		<path class="st1" d="M97.7,10.2v9.2c0,1.1,0.1,1.9,0.2,2.3c0.2,0.4,0.4,0.7,0.6,0.9c0.2,0.2,0.6,0.3,1.1,0.4
			c0.4,0.1,0.6,0.2,0.6,0.3c0,0.2-0.1,0.3-0.4,0.3c-0.1,0-0.3,0-0.5,0c-0.3,0-0.7-0.1-1.3-0.1l-1.8,0l-1.4,0.1c-0.2,0-0.4,0-0.6,0
			c-0.2,0-0.3-0.1-0.3-0.3c0-0.1,0.1-0.2,0.4-0.3c0.6-0.1,1-0.3,1.2-0.6c0.2-0.3,0.3-1,0.3-2V9.8c0-1-0.1-1.7-0.3-2
			c-0.2-0.4-0.7-0.6-1.5-0.7c-0.3,0-0.4-0.1-0.4-0.3c0-0.2,0.1-0.3,0.4-0.3c0.1,0,0.1,0,0.2,0c0.6,0.1,1.4,0.1,2.4,0.1
			c0.6,0,1.1,0,1.6,0l0.8-0.1c0.2,0,0.3,0,0.3,0c0.2,0,0.3,0.1,0.3,0.2c0,0.1-0.1,0.3-0.3,0.3l-0.6,0.2C98,7.5,97.7,8.5,97.7,10.2z"
			/>
		<path class="st1" d="M102.5,9.6c0-0.8-0.1-1.4-0.4-1.8c-0.3-0.4-0.7-0.6-1.4-0.7c-0.3,0-0.4-0.1-0.4-0.3c0-0.2,0.1-0.2,0.3-0.2
			l1,0c0.1,0,0.4,0,0.9,0c0.8,0,1.5,0,1.9-0.1l1.1-0.1c0.5,0,1-0.1,1.6-0.1c3.3,0,5.8,0.8,7.5,2.5c1.5,1.5,2.3,3.5,2.3,5.9
			c0,1.5-0.3,3-1,4.2c-0.7,1.3-1.6,2.3-2.8,3c-1.5,0.9-3.1,1.4-4.9,1.4c-0.2,0-0.6,0-1.1-0.1c-1.1-0.1-2-0.1-2.8-0.1
			c-0.9,0-1.6,0-2.3,0.1c-0.3,0-0.5,0.1-0.7,0.1c-0.3,0-0.4-0.1-0.4-0.3c0-0.1,0.1-0.2,0.3-0.3c0.6-0.1,0.9-0.3,1.1-0.6
			c0.2-0.3,0.2-0.9,0.2-1.8V9.6z M104.4,8.6v12.6c0,0.5,0.2,0.8,0.7,1c0.4,0.2,1,0.3,1.7,0.4c0.7,0.1,1.2,0.2,1.7,0.2
			c1.4,0,2.6-0.3,3.8-1c1.9-1.2,2.8-3.2,2.8-6c0-1.5-0.3-2.9-0.9-4.2c-0.6-1.3-1.4-2.3-2.4-3c-1.3-0.9-2.8-1.4-4.6-1.4
			c-1.3,0-2.1,0.1-2.5,0.4C104.5,7.8,104.4,8.1,104.4,8.6z"/>
		<path class="st1" d="M125.9,17h-4.4c-0.6,0-1,0-1.1,0.1c-0.1,0.1-0.3,0.4-0.6,1l-0.8,1.8c-0.4,0.8-0.5,1.4-0.5,1.8
			c0,0.4,0.1,0.7,0.3,0.8c0.2,0.2,0.6,0.3,1.1,0.4c0.2,0,0.4,0.1,0.4,0.3c0,0.1-0.1,0.2-0.3,0.2c-0.1,0-0.2,0-0.4,0l-1.2-0.1
			c-0.4,0-0.8,0-1.4,0c-0.2,0-0.4,0-0.5,0c-0.4,0-0.6,0.1-0.7,0.1c-0.2,0-0.3-0.1-0.3-0.2c0-0.1,0.1-0.2,0.2-0.3l0.5-0.1
			c0.2,0,0.4-0.2,0.7-0.6s0.5-0.7,0.7-1.1l0.4-0.8l6.3-13.9c0.1-0.2,0.2-0.4,0.4-0.4c0.1,0,0.2,0.1,0.3,0.4l5.2,13.4l0.3,0.7
			c0.4,1,0.7,1.6,1,1.8c0.3,0.2,0.8,0.4,1.5,0.6c0.3,0,0.4,0.1,0.4,0.3c0,0.1-0.1,0.2-0.3,0.2c-0.1,0-0.2,0-0.5,0
			c-0.4,0-1.2-0.1-2.3-0.1c-1.1,0-1.8,0-2.1,0.1c-0.2,0-0.3,0-0.4,0c-0.2,0-0.3-0.1-0.3-0.3c0-0.1,0.1-0.2,0.3-0.2l0.4-0.1
			c0.4-0.1,0.6-0.4,0.6-0.8c0-0.4-0.2-1.3-0.7-2.6l-0.6-1.6c-0.2-0.4-0.3-0.7-0.4-0.8S126.4,17,125.9,17z M126.1,15l-1.9-4.8
			l-0.1-0.3c-0.1-0.3-0.2-0.4-0.3-0.4c-0.1,0-0.1,0.1-0.2,0.2l-2.4,5.3c-0.1,0.2-0.2,0.4-0.2,0.5c0,0.2,0.2,0.3,0.6,0.3l0.3,0h3.7
			c0.4,0,0.6-0.1,0.6-0.3c0-0.1,0-0.2-0.1-0.3L126.1,15z"/>
		<path class="st1" d="M133.8,9.6c0-0.8-0.1-1.4-0.4-1.8c-0.3-0.4-0.7-0.6-1.4-0.7c-0.3,0-0.4-0.1-0.4-0.3c0-0.2,0.1-0.2,0.3-0.2
			l1,0c0.1,0,0.4,0,0.9,0c0.8,0,1.5,0,1.9-0.1l1.1-0.1c0.5,0,1-0.1,1.6-0.1c3.3,0,5.8,0.8,7.5,2.5c1.5,1.5,2.3,3.5,2.3,5.9
			c0,1.5-0.3,3-1,4.2c-0.7,1.3-1.6,2.3-2.8,3c-1.5,0.9-3.1,1.4-4.9,1.4c-0.2,0-0.6,0-1.1-0.1c-1.1-0.1-2-0.1-2.8-0.1
			c-0.9,0-1.6,0-2.3,0.1c-0.3,0-0.5,0.1-0.7,0.1c-0.3,0-0.4-0.1-0.4-0.3c0-0.1,0.1-0.2,0.3-0.3c0.6-0.1,0.9-0.3,1.1-0.6
			c0.2-0.3,0.2-0.9,0.2-1.8V9.6z M135.6,8.6v12.6c0,0.5,0.2,0.8,0.7,1c0.4,0.2,1,0.3,1.7,0.4c0.7,0.1,1.2,0.2,1.7,0.2
			c1.4,0,2.6-0.3,3.8-1c1.9-1.2,2.8-3.2,2.8-6c0-1.5-0.3-2.9-0.9-4.2c-0.6-1.3-1.4-2.3-2.4-3c-1.3-0.9-2.8-1.4-4.6-1.4
			c-1.3,0-2.1,0.1-2.5,0.4C135.8,7.8,135.6,8.1,135.6,8.6z"/>
	</g>
	<g>
		<path class="st1" d="M15.9,35.3v10.2c0,0.9,0,1.5-0.1,1.7c0,0.2-0.2,0.3-0.3,0.3c-0.1,0-0.2,0-0.3-0.1l-0.3-0.3L4.6,35.3l-0.1-0.1
			c0,0-0.1-0.1-0.2-0.1c-0.2,0-0.2,0.2-0.2,0.5v8.3l0,0.5l0,0.9c0.1,0.5,0.2,0.9,0.4,1.1s0.7,0.4,1.3,0.5c0.3,0,0.4,0.1,0.4,0.3
			c0,0.2-0.1,0.2-0.3,0.2c-0.1,0-0.2,0-0.4,0c-0.1,0-0.4,0-1.1-0.1l-1.2-0.1l-0.6,0c-0.3,0-0.6,0-0.9,0.1c-0.2,0-0.4,0-0.5,0
			c-0.2,0-0.3-0.1-0.3-0.2c0-0.1,0.1-0.2,0.3-0.3c0.7-0.2,1.1-0.6,1.4-0.9c0.2-0.4,0.4-1,0.4-1.9v-8.3c0-1.4-0.2-2.5-0.7-3.3
			C2,31.5,1.3,31.1,0.5,31c-0.2,0-0.3-0.1-0.3-0.3c0-0.2,0.1-0.2,0.3-0.2c0,0,0.1,0,0.2,0l0.5,0l0.8,0l0.2,0c0.2,0,0.3,0,0.5,0
			c0.2,0,0.4,0.1,0.6,0.4l11.2,12.7c0.2,0.2,0.3,0.3,0.3,0.3c0.1,0,0.1-0.1,0.1-0.2v-6l0-1.6l-0.1-2.8c-0.1-0.7-0.3-1.2-0.6-1.5
			c-0.3-0.3-0.9-0.5-1.7-0.6c-0.2,0-0.4-0.1-0.4-0.3c0-0.2,0.1-0.2,0.4-0.2c0.1,0,0.3,0,0.5,0c0.6,0.1,1.3,0.1,2.3,0.1
			c0.5,0,0.9,0,1.2-0.1c0.3,0,0.5-0.1,0.6-0.1c0.2,0,0.3,0.1,0.3,0.3c0,0.1-0.1,0.2-0.2,0.2c-0.5,0.1-0.8,0.3-1,0.6
			c-0.2,0.3-0.2,0.8-0.2,1.6v1.3L15.9,35.3z"/>
		<path class="st1" d="M30.9,40.9h-4.4c-0.6,0-1,0-1.1,0.1c-0.1,0.1-0.3,0.4-0.6,1L24,43.8c-0.4,0.8-0.5,1.4-0.5,1.8
			c0,0.4,0.1,0.7,0.3,0.8c0.2,0.2,0.6,0.3,1.1,0.4c0.2,0,0.4,0.1,0.4,0.3c0,0.1-0.1,0.2-0.3,0.2c-0.1,0-0.2,0-0.4,0l-1.2-0.1
			c-0.4,0-0.8,0-1.4,0c-0.2,0-0.4,0-0.5,0c-0.4,0-0.6,0.1-0.7,0.1c-0.2,0-0.3-0.1-0.3-0.2c0-0.1,0.1-0.2,0.2-0.3l0.5-0.1
			c0.2,0,0.4-0.2,0.7-0.6s0.5-0.7,0.7-1.1l0.4-0.8l6.3-13.9c0.1-0.2,0.2-0.4,0.4-0.4c0.1,0,0.2,0.1,0.3,0.4L35,43.8l0.3,0.7
			c0.4,1,0.7,1.6,1,1.8c0.3,0.2,0.8,0.4,1.5,0.6c0.3,0,0.4,0.1,0.4,0.3c0,0.1-0.1,0.2-0.3,0.2c-0.1,0-0.2,0-0.5,0
			c-0.4,0-1.2-0.1-2.3-0.1c-1.1,0-1.8,0-2.1,0.1c-0.2,0-0.3,0-0.4,0c-0.2,0-0.3-0.1-0.3-0.3c0-0.1,0.1-0.2,0.3-0.2l0.4-0.1
			c0.4-0.1,0.6-0.4,0.6-0.8c0-0.4-0.2-1.3-0.7-2.6l-0.6-1.6c-0.2-0.4-0.3-0.7-0.4-0.8S31.4,40.9,30.9,40.9z M31.1,38.9l-1.9-4.8
			l-0.1-0.3c-0.1-0.3-0.2-0.4-0.3-0.4c-0.1,0-0.1,0.1-0.2,0.2L26.2,39c-0.1,0.2-0.2,0.4-0.2,0.5c0,0.2,0.2,0.3,0.6,0.3l0.3,0h3.7
			c0.4,0,0.6-0.1,0.6-0.3c0-0.1,0-0.2-0.1-0.3L31.1,38.9z"/>
		<path class="st1" d="M56.2,32l0.4,2.9l0,0.3l0,0.1c0,0.1-0.1,0.1-0.2,0.1c-0.1,0-0.2-0.2-0.4-0.5c-1.5-2.7-3.6-4-6.2-4
			c-2.1,0-3.7,0.6-4.9,1.9c-1.2,1.3-1.8,3-1.8,5.2c0,2.5,0.7,4.6,2,6.2c1.3,1.6,3,2.4,5.1,2.4c1.2,0,2.4-0.3,3.6-1
			c1.2-0.7,2-1.4,2.5-2.4c0.2-0.4,0.4-0.7,0.5-0.7c0.1,0,0.2,0.1,0.2,0.2l0,0.1l0,0.3l-0.3,1.5l0,0.2c0,0.2-0.2,0.4-0.6,0.7
			c-1.9,1.2-4,1.8-6.2,1.8c-2.6,0-4.7-0.8-6.3-2.3c-1.6-1.6-2.4-3.6-2.4-6.1c0-2.5,0.8-4.6,2.5-6.3c1.7-1.7,3.7-2.5,6.2-2.5
			c1.7,0,3.3,0.4,4.7,1.2l0.5,0.3l0.2,0.1l0.2,0.1c0,0,0.1,0,0.2-0.1c0.2-0.1,0.3-0.2,0.4-0.2C56,31.6,56.1,31.7,56.2,32z"/>
		<path class="st1" d="M65.1,34.2v9.2c0,1.1,0.1,1.9,0.2,2.3c0.2,0.4,0.4,0.7,0.6,0.9c0.2,0.2,0.6,0.3,1.1,0.4
			c0.4,0.1,0.6,0.2,0.6,0.3c0,0.2-0.1,0.3-0.4,0.3c-0.1,0-0.3,0-0.5,0c-0.3,0-0.7-0.1-1.3-0.1l-1.8,0l-1.4,0.1c-0.2,0-0.4,0-0.6,0
			c-0.2,0-0.3-0.1-0.3-0.3c0-0.1,0.1-0.2,0.4-0.3c0.6-0.1,1-0.3,1.2-0.6c0.2-0.3,0.3-1,0.3-2V33.8c0-1-0.1-1.7-0.3-2
			c-0.2-0.4-0.7-0.6-1.5-0.7c-0.3,0-0.4-0.1-0.4-0.3c0-0.2,0.1-0.3,0.4-0.3c0.1,0,0.1,0,0.2,0c0.6,0.1,1.4,0.1,2.4,0.1
			c0.6,0,1.1,0,1.6,0l0.8-0.1c0.2,0,0.3,0,0.3,0c0.2,0,0.3,0.1,0.3,0.2c0,0.1-0.1,0.3-0.3,0.3L66,31.3
			C65.4,31.5,65.1,32.5,65.1,34.2z"/>
		<path class="st1" d="M80.5,30.3c2.5,0,4.6,0.8,6.3,2.4c1.6,1.6,2.4,3.6,2.4,6c0,2.6-0.8,4.7-2.5,6.4s-3.7,2.5-6.3,2.5
			c-2.6,0-4.8-0.8-6.4-2.4c-1.6-1.6-2.4-3.7-2.4-6.3c0-1.1,0.2-2.2,0.6-3.3c0.4-1.1,1-2,1.7-2.8c0.8-0.8,1.7-1.4,2.9-1.9
			C78.1,30.5,79.3,30.3,80.5,30.3z M79.7,31.1c-1.9,0-3.4,0.6-4.5,1.9c-1.1,1.3-1.7,3-1.7,5.1c0,2.5,0.7,4.5,2.1,6.2
			c1.4,1.7,3.2,2.5,5.2,2.5c1.9,0,3.5-0.7,4.7-2.1c1.2-1.4,1.8-3.1,1.8-5.2c0-2.4-0.7-4.5-2.2-6.1C83.8,31.9,81.9,31.1,79.7,31.1z"
			/>
		<path class="st1" d="M108.5,35.3v10.2c0,0.9,0,1.5-0.1,1.7c0,0.2-0.2,0.3-0.3,0.3c-0.1,0-0.2,0-0.3-0.1l-0.3-0.3L97.2,35.3
			l-0.1-0.1c0,0-0.1-0.1-0.2-0.1c-0.2,0-0.2,0.2-0.2,0.5v8.3l0,0.5l0,0.9c0.1,0.5,0.2,0.9,0.4,1.1s0.7,0.4,1.3,0.5
			c0.3,0,0.4,0.1,0.4,0.3c0,0.2-0.1,0.2-0.3,0.2c-0.1,0-0.2,0-0.4,0c-0.1,0-0.4,0-1.1-0.1l-1.2-0.1l-0.6,0c-0.3,0-0.6,0-0.9,0.1
			c-0.2,0-0.4,0-0.5,0c-0.2,0-0.3-0.1-0.3-0.2c0-0.1,0.1-0.2,0.3-0.3c0.7-0.2,1.1-0.6,1.4-0.9c0.2-0.4,0.4-1,0.4-1.9v-8.3
			c0-1.4-0.2-2.5-0.7-3.3c-0.4-0.8-1.1-1.3-1.9-1.4c-0.2,0-0.3-0.1-0.3-0.3c0-0.2,0.1-0.2,0.3-0.2c0,0,0.1,0,0.2,0l0.5,0l0.8,0
			l0.2,0c0.2,0,0.3,0,0.5,0c0.2,0,0.4,0.1,0.6,0.4L107,43.6c0.2,0.2,0.3,0.3,0.3,0.3c0.1,0,0.1-0.1,0.1-0.2v-6l0-1.6l-0.1-2.8
			c-0.1-0.7-0.3-1.2-0.6-1.5c-0.3-0.3-0.9-0.5-1.7-0.6c-0.2,0-0.4-0.1-0.4-0.3c0-0.2,0.1-0.2,0.4-0.2c0.1,0,0.3,0,0.5,0
			c0.6,0.1,1.3,0.1,2.3,0.1c0.5,0,0.9,0,1.2-0.1c0.3,0,0.5-0.1,0.6-0.1c0.2,0,0.3,0.1,0.3,0.3c0,0.1-0.1,0.2-0.2,0.2
			c-0.5,0.1-0.8,0.3-1,0.6c-0.2,0.3-0.2,0.8-0.2,1.6v1.3L108.5,35.3z"/>
		<path class="st1" d="M122.5,40.9h-4.4c-0.6,0-1,0-1.1,0.1c-0.1,0.1-0.3,0.4-0.6,1l-0.8,1.8c-0.4,0.8-0.5,1.4-0.5,1.8
			c0,0.4,0.1,0.7,0.3,0.8c0.2,0.2,0.6,0.3,1.1,0.4c0.2,0,0.4,0.1,0.4,0.3c0,0.1-0.1,0.2-0.3,0.2c-0.1,0-0.2,0-0.4,0l-1.2-0.1
			c-0.4,0-0.8,0-1.4,0c-0.2,0-0.4,0-0.5,0c-0.4,0-0.6,0.1-0.7,0.1c-0.2,0-0.3-0.1-0.3-0.2c0-0.1,0.1-0.2,0.2-0.3l0.5-0.1
			c0.2,0,0.4-0.2,0.7-0.6s0.5-0.7,0.7-1.1l0.4-0.8l6.3-13.9c0.1-0.2,0.2-0.4,0.4-0.4c0.1,0,0.2,0.1,0.3,0.4l5.2,13.4l0.3,0.7
			c0.4,1,0.7,1.6,1,1.8c0.3,0.2,0.8,0.4,1.5,0.6c0.3,0,0.4,0.1,0.4,0.3c0,0.1-0.1,0.2-0.3,0.2c-0.1,0-0.2,0-0.5,0
			c-0.4,0-1.2-0.1-2.3-0.1c-1.1,0-1.8,0-2.1,0.1c-0.2,0-0.3,0-0.4,0c-0.2,0-0.3-0.1-0.3-0.3c0-0.1,0.1-0.2,0.3-0.2l0.4-0.1
			c0.4-0.1,0.6-0.4,0.6-0.8c0-0.4-0.2-1.3-0.7-2.6l-0.6-1.6c-0.2-0.4-0.3-0.7-0.4-0.8S123,40.9,122.5,40.9z M122.7,38.9l-1.9-4.8
			l-0.1-0.3c-0.1-0.3-0.2-0.4-0.3-0.4c-0.1,0-0.1,0.1-0.2,0.2l-2.4,5.3c-0.1,0.2-0.2,0.4-0.2,0.5c0,0.2,0.2,0.3,0.6,0.3l0.3,0h3.7
			c0.4,0,0.6-0.1,0.6-0.3c0-0.1,0-0.2-0.1-0.3L122.7,38.9z"/>
		<path class="st1" d="M137.6,44l0,0.4c0,1,0.1,1.6,0.3,1.7s0.8,0.3,1.8,0.3c1.5,0,2.8-0.2,4-0.5c1.1-0.4,1.8-0.8,2.1-1.4
			c0.1-0.2,0.2-0.3,0.3-0.3c0.1,0,0.2,0.1,0.2,0.2c0,0.5-0.3,1.1-0.8,1.8c-0.7,0.9-1.8,1.3-3.4,1.3c-0.3,0-0.6,0-0.9,0l-1.3-0.1
			c-0.8-0.1-1.6-0.1-2.5-0.1c-1,0-1.8,0-2.5,0.1c-0.3,0-0.5,0.1-0.7,0.1c-0.2,0-0.3-0.1-0.3-0.2c0-0.1,0.1-0.2,0.3-0.3
			c0.6-0.2,0.9-0.4,1.1-0.8s0.3-0.9,0.3-1.7l0-0.6V33c0-1.1-0.4-1.7-1.3-1.9l-0.5-0.1c-0.2,0-0.3-0.1-0.3-0.2c0-0.2,0.1-0.3,0.4-0.3
			c0.2,0,0.4,0,0.8,0c0.6,0,1.2,0.1,1.9,0.1c0.7,0,1.4,0,2-0.1c0.3,0,0.5,0,0.5,0c0.2,0,0.3,0.1,0.3,0.2c0,0.2-0.1,0.3-0.4,0.3
			l-0.4,0.1c-0.7,0.2-1.1,0.9-1.1,2.2V44z"/>
	</g>
	<g>
		<path class="st1" d="M7.6,55.3l0.2,1.5l0,0.2l0,0.1c0,0-0.1,0.1-0.1,0.1c0,0-0.1-0.1-0.2-0.3c-0.8-1.3-1.8-2-3.1-2
			c-1,0-1.8,0.3-2.4,1S1,57.2,1,58.3c0,1.3,0.3,2.3,1,3.1s1.5,1.2,2.6,1.2c0.6,0,1.2-0.2,1.8-0.5c0.6-0.3,1-0.7,1.2-1.2
			c0.1-0.2,0.2-0.3,0.2-0.3c0.1,0,0.1,0,0.1,0.1l0,0.1l0,0.1l-0.1,0.7l0,0.1c0,0.1-0.1,0.2-0.3,0.3c-0.9,0.6-2,0.9-3.1,0.9
			C3,63,2,62.7,1.2,61.9C0.4,61.1,0,60.1,0,58.8c0-1.3,0.4-2.3,1.2-3.1c0.8-0.8,1.9-1.3,3.1-1.3c0.9,0,1.6,0.2,2.4,0.6L7,55.1l0.1,0
			l0.1,0c0,0,0.1,0,0.1,0c0.1-0.1,0.2-0.1,0.2-0.1C7.5,55.1,7.5,55.1,7.6,55.3z"/>
		<path class="st1" d="M21.9,54.4c1.3,0,2.3,0.4,3.1,1.2c0.8,0.8,1.2,1.8,1.2,3c0,1.3-0.4,2.4-1.2,3.2c-0.8,0.8-1.9,1.2-3.1,1.2
			c-1.3,0-2.4-0.4-3.2-1.2c-0.8-0.8-1.2-1.8-1.2-3.1c0-0.6,0.1-1.1,0.3-1.7s0.5-1,0.9-1.4c0.4-0.4,0.9-0.7,1.4-0.9
			C20.7,54.5,21.3,54.4,21.9,54.4z M21.5,54.8c-0.9,0-1.7,0.3-2.2,1c-0.6,0.6-0.8,1.5-0.8,2.6c0,1.2,0.4,2.3,1.1,3.1
			c0.7,0.8,1.6,1.3,2.6,1.3c0.9,0,1.7-0.3,2.3-1c0.6-0.7,0.9-1.6,0.9-2.6c0-1.2-0.4-2.2-1.1-3C23.5,55.2,22.6,54.8,21.5,54.8z"/>
		<path class="st1" d="M38.5,54.4c0.4,0,0.8,0.1,1.1,0.2l0.4,0.2c0,0,0.1,0,0.1,0c0,0,0.1,0,0.1-0.1l0.1-0.1c0,0,0,0,0.1,0
			c0.1,0,0.2,0.1,0.2,0.3c0,0.1,0,0.3,0.1,0.6l0.1,0.6c0,0.1,0,0.2,0,0.2c0,0.1,0,0.2-0.1,0.2c-0.1,0-0.1-0.1-0.2-0.3
			c-0.1-0.4-0.4-0.8-0.9-1.1c-0.4-0.3-0.9-0.4-1.5-0.4c-0.4,0-0.8,0.1-1.1,0.4c-0.3,0.3-0.4,0.6-0.4,1c0,0.3,0.1,0.6,0.3,0.9
			c0.2,0.2,0.3,0.4,0.5,0.5c0.2,0.1,0.7,0.3,1.4,0.5c1.5,0.5,2.2,1.3,2.2,2.4c0,0.8-0.3,1.4-0.8,1.9C39.7,62.8,39,63,38.1,63
			c-0.3,0-0.7,0-1-0.1c-0.4-0.1-0.6-0.2-0.8-0.3c-0.1,0-0.1-0.1-0.1-0.2S36.1,62.3,36,62c0,0-0.1-0.2-0.2-0.6
			c-0.1-0.4-0.2-0.6-0.2-0.8c0-0.1,0-0.2,0.1-0.2c0.1,0,0.1,0.1,0.2,0.3c0.1,0.5,0.5,0.9,0.9,1.3s1,0.5,1.5,0.5c0.6,0,1-0.2,1.4-0.5
			s0.6-0.7,0.6-1.2c0-0.5-0.2-0.8-0.5-1.1c-0.2-0.2-0.7-0.4-1.6-0.7c-0.9-0.3-1.5-0.6-1.9-1c-0.4-0.4-0.6-0.8-0.6-1.4
			c0-0.7,0.2-1.2,0.7-1.6S37.8,54.4,38.5,54.4z"/>
		<path class="st1" d="M56.6,55.2h-1.7c-0.2,0-0.3,0-0.3,0.1c0,0-0.1,0.2-0.1,0.4v6l0,0.2c0,0.5,0.3,0.8,0.8,0.8
			c0.1,0,0.2,0.1,0.2,0.1c0,0.1-0.1,0.1-0.2,0.1c0,0-0.1,0-0.3,0c-0.1,0-0.3,0-0.5,0l-0.4,0l-0.5,0c-0.2,0-0.3,0-0.4,0
			c-0.2,0-0.4,0-0.4,0c-0.1,0-0.2,0-0.2-0.1c0-0.1,0.1-0.1,0.2-0.1c0.3,0,0.5-0.1,0.6-0.3s0.2-0.4,0.2-0.7v-6l0-0.2
			c0-0.1,0-0.2-0.1-0.3c0,0-0.1-0.1-0.3-0.1h-1.6c-0.3,0-0.6,0.1-0.7,0.2c-0.1,0.1-0.3,0.4-0.3,0.7c0,0.2-0.1,0.2-0.2,0.2
			c-0.1,0-0.1-0.1-0.1-0.2c0-0.1,0-0.2,0.1-0.5c0.1-0.3,0.1-0.5,0.1-0.7c0-0.2,0-0.3,0.1-0.4c0-0.1,0.1-0.1,0.3-0.1h6.5
			c0.2,0,0.4,0,0.4,0.1s0.1,0.2,0.1,0.4c0,0.2,0,0.4,0,0.5c0,0.1,0,0.2,0,0.3c0,0.1,0,0.2-0.1,0.2c-0.1,0-0.1-0.1-0.1-0.2
			c-0.1-0.3-0.1-0.5-0.3-0.6C57.2,55.3,56.9,55.2,56.6,55.2z"/>
		<path class="st1" d="M70.3,59.7h-2.2c-0.3,0-0.5,0-0.6,0.1c-0.1,0-0.2,0.2-0.3,0.5l-0.4,0.9c-0.2,0.4-0.3,0.7-0.3,0.9
			c0,0.2,0,0.3,0.1,0.4c0.1,0.1,0.3,0.2,0.6,0.2c0.1,0,0.2,0.1,0.2,0.1c0,0.1-0.1,0.1-0.2,0.1c0,0-0.1,0-0.2,0l-0.6,0
			c-0.2,0-0.4,0-0.7,0c-0.1,0-0.2,0-0.3,0c-0.2,0-0.3,0-0.3,0c-0.1,0-0.2,0-0.2-0.1c0-0.1,0-0.1,0.1-0.1l0.2-0.1
			c0.1,0,0.2-0.1,0.3-0.3S66,62,66,61.8l0.2-0.4l3.1-6.9c0.1-0.1,0.1-0.2,0.2-0.2c0.1,0,0.1,0.1,0.2,0.2l2.6,6.7l0.1,0.3
			c0.2,0.5,0.3,0.8,0.5,0.9c0.1,0.1,0.4,0.2,0.8,0.3c0.1,0,0.2,0.1,0.2,0.1c0,0.1-0.1,0.1-0.2,0.1c0,0-0.1,0-0.2,0
			c-0.2,0-0.6,0-1.1,0c-0.6,0-0.9,0-1.1,0c-0.1,0-0.1,0-0.2,0c-0.1,0-0.2,0-0.2-0.1c0-0.1,0.1-0.1,0.2-0.1l0.2,0
			c0.2,0,0.3-0.2,0.3-0.4c0-0.2-0.1-0.6-0.4-1.3l-0.3-0.8c-0.1-0.2-0.2-0.4-0.2-0.4C70.7,59.7,70.5,59.7,70.3,59.7z M70.4,58.7
			l-1-2.4l0-0.1c0-0.1-0.1-0.2-0.2-0.2c0,0-0.1,0-0.1,0.1l-1.2,2.6c-0.1,0.1-0.1,0.2-0.1,0.2c0,0.1,0.1,0.2,0.3,0.2l0.2,0h1.8
			c0.2,0,0.3-0.1,0.3-0.2c0,0,0-0.1,0-0.1L70.4,58.7z"/>
		<path class="st1" d="M98.7,58.7l1.7,2.5l0.2,0.3c0.5,0.8,1,1.2,1.4,1.2l0.2,0c0.1,0,0.1,0,0.1,0.1c0,0.1-0.1,0.1-0.3,0.2
			c-0.2,0-0.4,0.1-0.6,0.1c-0.4,0-0.7-0.1-1-0.3s-0.6-0.5-0.9-1l-1.5-2.3L98,59.3c-0.1-0.2-0.3-0.2-0.5-0.2h-0.8l-0.1,0
			c0,0-0.1,0.1-0.1,0.2v1.9l0,0.2c0,0.4,0,0.6,0.1,0.7c0,0.1,0.1,0.2,0.2,0.3c0.2,0.1,0.4,0.2,0.8,0.3c0.1,0,0.2,0.1,0.2,0.1
			c0,0.1-0.1,0.1-0.2,0.1c-0.1,0-0.2,0-0.4,0c-0.2,0-0.4,0-0.8,0l-0.6,0l-0.3,0c-0.1,0-0.3,0-0.5,0c-0.2,0-0.3,0-0.3,0
			c-0.1,0-0.2,0-0.2-0.1c0-0.1,0.1-0.1,0.2-0.1c0.3-0.1,0.5-0.2,0.6-0.4c0.1-0.2,0.2-0.7,0.2-1.4v-4.4l0-0.6c0-0.6-0.2-1-0.7-1.1
			l-0.3,0c-0.1,0-0.2-0.1-0.2-0.1c0-0.1,0.1-0.1,0.2-0.1c0,0,0.2,0,0.4,0c0.1,0,0.3,0,0.5,0c0.2,0,0.5,0,1,0c0.3,0,0.6,0,0.9,0
			c0.9,0,1.6,0.2,2.1,0.5c0.5,0.4,0.7,0.9,0.7,1.6C100.2,57.5,99.7,58.2,98.7,58.7z M96.9,58.6h0.7c0.5,0,1-0.1,1.3-0.4
			c0.3-0.3,0.5-0.7,0.5-1.2c0-0.6-0.2-1.1-0.6-1.5c-0.4-0.4-0.9-0.6-1.6-0.6c-0.2,0-0.4,0-0.5,0.1c-0.1,0.1-0.1,0.2-0.1,0.4l0,0.2
			v2.5c0,0.2,0,0.3,0.1,0.4C96.6,58.6,96.7,58.6,96.9,58.6z"/>
		<path class="st1" d="M113.3,56.4v4.6c0,0.6,0,0.9,0.1,1.1c0.1,0.2,0.2,0.4,0.3,0.4c0.1,0.1,0.3,0.1,0.6,0.2c0.2,0,0.3,0.1,0.3,0.1
			c0,0.1-0.1,0.1-0.2,0.1c-0.1,0-0.1,0-0.2,0c-0.1,0-0.3,0-0.6,0l-0.9,0l-0.7,0c-0.1,0-0.2,0-0.3,0c-0.1,0-0.2,0-0.2-0.1
			c0-0.1,0.1-0.1,0.2-0.1c0.3-0.1,0.5-0.2,0.6-0.3c0.1-0.2,0.1-0.5,0.1-1v-5.2c0-0.5-0.1-0.8-0.2-1c-0.1-0.2-0.4-0.3-0.7-0.4
			c-0.1,0-0.2-0.1-0.2-0.1c0-0.1,0.1-0.1,0.2-0.1c0,0,0.1,0,0.1,0c0.3,0,0.7,0.1,1.2,0.1c0.3,0,0.6,0,0.8,0l0.4,0c0.1,0,0.1,0,0.2,0
			c0.1,0,0.2,0,0.2,0.1c0,0.1-0.1,0.1-0.2,0.2l-0.3,0.1C113.4,55,113.3,55.5,113.3,56.4z"/>
		<path class="st1" d="M131.6,55.3l0.2,1.5l0,0.2l0,0.1c0,0-0.1,0.1-0.1,0.1c0,0-0.1-0.1-0.2-0.3c-0.8-1.3-1.8-2-3.1-2
			c-1,0-1.8,0.3-2.4,1s-0.9,1.5-0.9,2.6c0,1.3,0.3,2.3,1,3.1s1.5,1.2,2.6,1.2c0.6,0,1.2-0.2,1.8-0.5c0.6-0.3,1-0.7,1.2-1.2
			c0.1-0.2,0.2-0.3,0.2-0.3c0.1,0,0.1,0,0.1,0.1l0,0.1l0,0.1l-0.1,0.7l0,0.1c0,0.1-0.1,0.2-0.3,0.3c-0.9,0.6-2,0.9-3.1,0.9
			c-1.3,0-2.4-0.4-3.2-1.2c-0.8-0.8-1.2-1.8-1.2-3.1c0-1.3,0.4-2.3,1.2-3.1c0.8-0.8,1.9-1.3,3.1-1.3c0.9,0,1.6,0.2,2.4,0.6l0.2,0.1
			l0.1,0l0.1,0c0,0,0.1,0,0.1,0c0.1-0.1,0.2-0.1,0.2-0.1C131.5,55.1,131.6,55.1,131.6,55.3z"/>
		<path class="st1" d="M146,59.7h-2.2c-0.3,0-0.5,0-0.6,0.1c-0.1,0-0.2,0.2-0.3,0.5l-0.4,0.9c-0.2,0.4-0.3,0.7-0.3,0.9
			c0,0.2,0,0.3,0.1,0.4c0.1,0.1,0.3,0.2,0.6,0.2c0.1,0,0.2,0.1,0.2,0.1c0,0.1-0.1,0.1-0.2,0.1c0,0-0.1,0-0.2,0l-0.6,0
			c-0.2,0-0.4,0-0.7,0c-0.1,0-0.2,0-0.3,0c-0.2,0-0.3,0-0.3,0c-0.1,0-0.2,0-0.2-0.1c0-0.1,0-0.1,0.1-0.1l0.2-0.1
			c0.1,0,0.2-0.1,0.3-0.3s0.3-0.4,0.3-0.5l0.2-0.4l3.1-6.9c0.1-0.1,0.1-0.2,0.2-0.2c0.1,0,0.1,0.1,0.2,0.2l2.6,6.7l0.1,0.3
			c0.2,0.5,0.3,0.8,0.5,0.9c0.1,0.1,0.4,0.2,0.8,0.3c0.1,0,0.2,0.1,0.2,0.1c0,0.1-0.1,0.1-0.2,0.1c0,0-0.1,0-0.2,0
			c-0.2,0-0.6,0-1.1,0c-0.6,0-0.9,0-1.1,0c-0.1,0-0.1,0-0.2,0c-0.1,0-0.2,0-0.2-0.1c0-0.1,0.1-0.1,0.2-0.1l0.2,0
			c0.2,0,0.3-0.2,0.3-0.4c0-0.2-0.1-0.6-0.4-1.3l-0.3-0.8c-0.1-0.2-0.2-0.4-0.2-0.4C146.3,59.7,146.2,59.7,146,59.7z M146.1,58.7
			l-1-2.4l0-0.1c0-0.1-0.1-0.2-0.2-0.2c0,0-0.1,0-0.1,0.1l-1.2,2.6c-0.1,0.1-0.1,0.2-0.1,0.2c0,0.1,0.1,0.2,0.3,0.2l0.2,0h1.8
			c0.2,0,0.3-0.1,0.3-0.2c0,0,0-0.1,0-0.1L146.1,58.7z"/>
	</g>
	<g>
		<rect x="0.2" y="26.3" class="st1" width="153" height="0.9"/>
	</g>
	<g>
		<path class="st1" d="M153.2,68.6H0.2v-2.4h153V68.6z M153.2,2.2H0.2v-2.4h153V2.2z"/>
	</g>
	<g>
		<rect x="0.2" y="50.1" class="st1" width="153" height="0.9"/>
	</g>
</g>
</svg>
