<?xml version="1.0" encoding="utf-8"?>
<!-- Generator: Adobe Illustrator 21.0.2, SVG Export Plug-In . SVG Version: 6.00 Build 0)  -->
<svg version="1.1" id="Capa_1" xmlns="http://www.w3.org/2000/svg" xmlns:xlink="http://www.w3.org/1999/xlink" x="0px" y="0px"
	 viewBox="0 0 109.6 46" style="enable-background:new 0 0 109.6 46;" xml:space="preserve">
<style type="text/css">
	.st0{fill:#221F20;}
	.st1{fill:#FFFFFF;}
	.st2{opacity:0.1;}
	.st3{opacity:8.000000e-02;fill:#C7C8CA;}
	.st4{opacity:0.43;fill:none;stroke:#FFFFFF;stroke-width:1.9494;stroke-miterlimit:10;}
	.st5{opacity:0.1;fill-rule:evenodd;clip-rule:evenodd;fill:#FFFFFF;}
	.st6{fill:#0D1117;}
	.st7{fill:#20252C;}
	.st8{fill:#EB0029;}
	.st9{fill:none;stroke:#FFFFFF;stroke-width:0.7615;stroke-miterlimit:10;}
	.st10{fill:#666666;}
	.st11{opacity:0.29;}
	.st12{fill:url(#SVGID_3_);}
	.st13{clip-path:url(#SVGID_7_);}
	.st14{fill:#D0D1D2;}
	.st15{clip-path:url(#SVGID_9_);}
	.st16{clip-path:url(#SVGID_11_);}
	.st17{clip-path:url(#SVGID_11_);fill:none;}
	.st18{fill:#BB2829;}
	.st19{opacity:0.39;fill:#211F20;}
	.st20{fill:none;stroke:#FFFFFF;stroke-width:7.3691;stroke-miterlimit:10;}
	.st21{fill:#BD2F27;}
	.st22{opacity:0.48;fill:#38383A;}
	.st23{opacity:0.59;fill:#665940;}
	.st24{opacity:0.2;}
	.st25{fill:none;stroke:#C7C8CA;stroke-width:2;stroke-miterlimit:10;}
	.st26{fill:#C7C8CA;}
	.st27{fill:none;stroke:#FFFFFF;stroke-width:7.3432;stroke-miterlimit:10;}
	.st28{fill:none;stroke:#FFFFFF;stroke-width:7.9334;stroke-miterlimit:10;}
	.st29{clip-path:url(#SVGID_13_);}
	.st30{clip-path:url(#SVGID_13_);fill:none;}
	.st31{clip-path:url(#SVGID_15_);}
	.st32{clip-path:url(#SVGID_15_);fill:none;}
	.st33{fill:none;}
	.st34{fill:#B12E33;}
	.st35{fill:none;stroke:#191919;stroke-width:4;stroke-miterlimit:10;}
	.st36{fill:#353535;}
	.st37{fill:#232323;}
	.st38{fill:none;stroke:#232323;stroke-width:2;stroke-miterlimit:10;}
	.st39{fill:none;stroke:#312783;stroke-width:3;stroke-linecap:round;stroke-linejoin:round;stroke-miterlimit:10;}
	.st40{fill:none;stroke:#99999E;stroke-width:3;stroke-linecap:round;stroke-linejoin:round;stroke-miterlimit:10;}
	.st41{fill:#312783;}
	.st42{fill:#99999E;}
	.st43{opacity:0.57;fill:#C7C8CA;}
	.st44{fill:#1A181B;fill-opacity:0.3;}
	.st45{opacity:0.8;fill:#BB2829;}
	.st46{fill:#CC1719;}
	.st47{fill:#BDBDBD;}
	.st48{clip-path:url(#SVGID_19_);}
	.st49{clip-path:url(#SVGID_19_);fill:none;}
</style>
<g>
	<g>
		<path class="st1" d="M109.6,46H0v-1.6h109.6V46z M109.6,1.6H0V0h109.6V1.6z"/>
	</g>
	<g>
		<g>
			<path class="st1" d="M33.7,26.5V13c0-2.2-0.3-3.8-0.9-4.7c-0.6-1-1.7-1.5-3.2-1.7c-0.5-0.1-0.8-0.2-0.8-0.6
				c0-0.4,0.2-0.6,0.5-0.5c0.4,0,0.9,0.1,1.7,0.2c0.7,0.1,1.5,0.2,2.4,0.2c1.9,0,3.1,0,3.6-0.1c0.6-0.1,1-0.1,1.1-0.1
				c0.3,0,0.5,0.2,0.5,0.5c0,0.3-0.2,0.5-0.5,0.6c-1.1,0.4-1.8,1-2.1,1.8c-0.3,0.8-0.5,2.3-0.5,4.4v13c0,4.8-1,8.4-2.9,11
				c-1.2,1.6-2.9,2.9-5.2,3.9c-2.2,1-4.6,1.5-7.2,1.5c-3,0-5.6-0.6-8-1.7s-4.1-2.7-5.2-4.7c-1.2-2.3-1.9-5.2-1.9-8.9V13.7l-0.1-1.5
				c0-1.9-0.3-3.2-0.8-3.9C3.9,7.7,2.9,7.2,1.3,7C0.9,6.9,0.6,6.7,0.6,6.4c0-0.4,0.3-0.6,1-0.6c0.4,0,1,0,1.8,0.1
				C4.2,5.9,4.8,6,5.2,6l2,0h2c0.2,0,0.7,0,1.5-0.1c0.6-0.1,1.1-0.1,1.3-0.1c0.4,0,0.6,0.1,0.6,0.4c0,0.3-0.3,0.5-0.8,0.6
				c-1,0.2-1.7,0.7-2,1.3c-0.3,0.7-0.5,1.8-0.5,3.5l0.1,1.7v13.2c0,4.5,0.7,7.7,2.1,9.6c2,2.7,5.3,4.1,9.9,4.1
				c4.2,0,7.3-1.1,9.3-3.4C32.7,34.5,33.7,31.1,33.7,26.5z"/>
		</g>
		<g>
			<path class="st1" d="M70.8,15.9v21.9c0,2,0,3.2-0.1,3.6c-0.1,0.4-0.3,0.6-0.7,0.6c-0.3,0-0.5-0.1-0.6-0.2l-0.6-0.7L46.7,15.9
				l-0.3-0.3c-0.1-0.1-0.2-0.2-0.4-0.2c-0.3,0-0.5,0.4-0.5,1.2v17.8l0,1.1l0.1,1.9c0.1,1.2,0.4,1.9,0.9,2.4c0.5,0.4,1.4,0.8,2.8,1
				c0.6,0.1,0.9,0.3,0.9,0.7c0,0.3-0.2,0.5-0.5,0.5c-0.2,0-0.5,0-0.8-0.1c-0.2,0-1-0.1-2.3-0.2l-2.7-0.1l-1.3,0
				c-0.7,0-1.3,0-1.9,0.1c-0.5,0.1-0.8,0.1-1,0.1c-0.5,0-0.7-0.2-0.7-0.5c0-0.3,0.2-0.5,0.7-0.6c1.5-0.5,2.5-1.2,3-2
				c0.5-0.8,0.8-2.2,0.8-4.1V16.8c0-3-0.5-5.4-1.4-7.1s-2.3-2.7-4.2-3c-0.5-0.1-0.7-0.3-0.7-0.6c0-0.3,0.2-0.5,0.6-0.5
				c0.1,0,0.2,0,0.4,0l1.1,0L41,5.7l0.4,0c0.4,0,0.7,0,1,0c0.4,0,0.9,0.3,1.3,0.8l24.1,27.3c0.4,0.4,0.6,0.6,0.7,0.6
				c0.2,0,0.3-0.2,0.3-0.5v-13l0-3.5l-0.3-6c-0.2-1.5-0.6-2.5-1.3-3.2c-0.7-0.6-1.9-1.1-3.7-1.4c-0.5-0.1-0.8-0.3-0.8-0.6
				c0-0.3,0.3-0.5,0.8-0.5c0.2,0,0.6,0,1.1,0.1c1.2,0.1,2.8,0.2,4.8,0.2c1.1,0,1.9-0.1,2.6-0.2c0.6-0.1,1-0.2,1.3-0.2
				c0.5,0,0.7,0.2,0.7,0.5c0,0.2-0.2,0.4-0.5,0.5c-1.1,0.3-1.8,0.7-2.1,1.3c-0.3,0.6-0.5,1.8-0.5,3.4v2.8L70.8,15.9z"/>
		</g>
		<g>
			<path class="st1" d="M93.1,28h-9.5c-1.3,0-2.1,0.1-2.4,0.3c-0.3,0.2-0.7,0.9-1.3,2.1l-1.7,3.9c-0.8,1.8-1.2,3.1-1.2,3.9
				c0,0.8,0.2,1.4,0.6,1.8c0.4,0.4,1.2,0.7,2.4,0.9c0.5,0.1,0.8,0.3,0.8,0.6c0,0.3-0.2,0.4-0.7,0.4c-0.2,0-0.5,0-0.9,0l-2.5-0.1
				c-0.8,0-1.8-0.1-2.9-0.1c-0.5,0-0.9,0-1.2,0c-0.9,0.1-1.4,0.1-1.5,0.1c-0.5,0-0.7-0.2-0.7-0.5c0-0.3,0.1-0.5,0.4-0.6l1-0.3
				c0.3-0.1,0.8-0.5,1.4-1.3c0.6-0.7,1.1-1.5,1.5-2.3l0.8-1.7L89,5.4c0.2-0.5,0.5-0.8,0.8-0.8s0.5,0.3,0.7,0.8l11.3,28.8l0.6,1.4
				c0.8,2.1,1.5,3.4,2,3.9c0.5,0.5,1.6,0.9,3.3,1.2c0.5,0.1,0.8,0.3,0.8,0.6c0,0.3-0.3,0.4-0.7,0.4c-0.2,0-0.5,0-1-0.1
				c-0.9-0.1-2.5-0.1-4.8-0.1c-2.4,0-3.9,0.1-4.6,0.2c-0.4,0.1-0.6,0.1-0.8,0.1c-0.5,0-0.7-0.2-0.7-0.5c0-0.3,0.2-0.5,0.7-0.5
				l0.8-0.2c0.9-0.2,1.3-0.8,1.3-1.8c0-0.9-0.5-2.8-1.6-5.5l-1.3-3.5c-0.4-1-0.7-1.5-0.9-1.7C94.6,28,94.1,28,93.1,28z M93.4,23.8
				l-4.1-10.4l-0.2-0.5c-0.2-0.6-0.4-0.8-0.7-0.9c-0.1,0-0.3,0.1-0.4,0.5l-5.1,11.3c-0.2,0.5-0.3,0.8-0.3,1c0,0.5,0.4,0.7,1.2,0.7
				l0.7,0h7.9c0.9,0,1.3-0.2,1.3-0.7c0-0.1,0-0.3-0.1-0.6L93.4,23.8z"/>
		</g>
	</g>
</g>
</svg>
