<?xml version="1.0" encoding="utf-8"?>
<!-- Generator: Adobe Illustrator 21.0.2, SVG Export Plug-In . SVG Version: 6.00 Build 0)  -->
<svg version="1.1" id="Capa_1" xmlns="http://www.w3.org/2000/svg" xmlns:xlink="http://www.w3.org/1999/xlink" x="0px" y="0px"
	 viewBox="0 0 216.2 46" style="enable-background:new 0 0 216.2 46;" xml:space="preserve">
<style type="text/css">
	.st0{fill:#221F20;}
	.st1{fill:#FFFFFF;}
	.st2{opacity:0.1;}
	.st3{opacity:8.000000e-02;fill:#C7C8CA;}
	.st4{opacity:0.43;fill:none;stroke:#FFFFFF;stroke-width:1.9494;stroke-miterlimit:10;}
	.st5{opacity:0.1;fill-rule:evenodd;clip-rule:evenodd;fill:#FFFFFF;}
	.st6{fill:#0D1117;}
	.st7{fill:#20252C;}
	.st8{fill:#EB0029;}
	.st9{fill:none;stroke:#FFFFFF;stroke-width:0.7615;stroke-miterlimit:10;}
	.st10{fill:#666666;}
	.st11{opacity:0.29;}
	.st12{fill:url(#SVGID_3_);}
	.st13{clip-path:url(#SVGID_7_);}
	.st14{fill:#D0D1D2;}
	.st15{clip-path:url(#SVGID_9_);}
	.st16{clip-path:url(#SVGID_11_);}
	.st17{clip-path:url(#SVGID_11_);fill:none;}
	.st18{fill:#BB2829;}
	.st19{opacity:0.39;fill:#211F20;}
	.st20{fill:none;stroke:#FFFFFF;stroke-width:7.3691;stroke-miterlimit:10;}
	.st21{fill:#BD2F27;}
	.st22{opacity:0.48;fill:#38383A;}
	.st23{opacity:0.59;fill:#665940;}
	.st24{opacity:0.2;}
	.st25{fill:none;stroke:#C7C8CA;stroke-width:2;stroke-miterlimit:10;}
	.st26{fill:#C7C8CA;}
	.st27{fill:none;stroke:#FFFFFF;stroke-width:7.3432;stroke-miterlimit:10;}
	.st28{fill:none;stroke:#FFFFFF;stroke-width:7.9334;stroke-miterlimit:10;}
	.st29{clip-path:url(#SVGID_13_);}
	.st30{clip-path:url(#SVGID_13_);fill:none;}
	.st31{clip-path:url(#SVGID_15_);}
	.st32{clip-path:url(#SVGID_15_);fill:none;}
	.st33{fill:none;}
	.st34{fill:#B12E33;}
	.st35{fill:none;stroke:#191919;stroke-width:4;stroke-miterlimit:10;}
	.st36{fill:#353535;}
	.st37{fill:#232323;}
	.st38{fill:none;stroke:#232323;stroke-width:2;stroke-miterlimit:10;}
	.st39{fill:none;stroke:#312783;stroke-width:3;stroke-linecap:round;stroke-linejoin:round;stroke-miterlimit:10;}
	.st40{fill:none;stroke:#99999E;stroke-width:3;stroke-linecap:round;stroke-linejoin:round;stroke-miterlimit:10;}
	.st41{fill:#312783;}
	.st42{fill:#99999E;}
	.st43{opacity:0.57;fill:#C7C8CA;}
	.st44{fill:#1A181B;fill-opacity:0.3;}
	.st45{opacity:0.8;fill:#BB2829;}
	.st46{fill:#CC1719;}
	.st47{fill:#BDBDBD;}
	.st48{clip-path:url(#SVGID_19_);}
	.st49{clip-path:url(#SVGID_19_);fill:none;}
</style>
<g>
	<g>
		<g>
			<path class="st1" d="M124.5,11V6.8c0-0.7-0.1-1.2-0.3-1.5c-0.2-0.3-0.5-0.5-1-0.5c-0.2,0-0.2-0.1-0.2-0.2c0-0.1,0.1-0.2,0.2-0.2
				c0.1,0,0.3,0,0.5,0.1c0.2,0,0.5,0,0.7,0c0.6,0,1,0,1.1,0c0.2,0,0.3,0,0.4,0c0.1,0,0.2,0,0.2,0.1c0,0.1-0.1,0.1-0.2,0.2
				c-0.3,0.1-0.5,0.3-0.6,0.6c-0.1,0.2-0.1,0.7-0.1,1.4v4c0,1.5-0.3,2.6-0.9,3.4c-0.4,0.5-0.9,0.9-1.6,1.2c-0.7,0.3-1.4,0.5-2.2,0.5
				c-0.9,0-1.8-0.2-2.5-0.5c-0.7-0.4-1.3-0.8-1.6-1.5c-0.4-0.7-0.6-1.6-0.6-2.8V7l0-0.5c0-0.6-0.1-1-0.2-1.2s-0.5-0.4-1-0.4
				c-0.1,0-0.2-0.1-0.2-0.2c0-0.1,0.1-0.2,0.3-0.2c0.1,0,0.3,0,0.6,0c0.3,0,0.4,0,0.5,0l0.6,0h0.6c0.1,0,0.2,0,0.5,0
				c0.2,0,0.3,0,0.4,0c0.1,0,0.2,0,0.2,0.1c0,0.1-0.1,0.2-0.3,0.2c-0.3,0.1-0.5,0.2-0.6,0.4c-0.1,0.2-0.2,0.6-0.2,1.1l0,0.5V11
				c0,1.4,0.2,2.4,0.7,3c0.6,0.8,1.6,1.3,3.1,1.3c1.3,0,2.3-0.4,2.9-1.1C124.1,13.5,124.5,12.4,124.5,11z"/>
		</g>
		<g>
			<path class="st1" d="M136,7.7v6.8c0,0.6,0,1,0,1.1c0,0.1-0.1,0.2-0.2,0.2c-0.1,0-0.1,0-0.2-0.1l-0.2-0.2l-6.9-7.9l-0.1-0.1
				c0,0-0.1,0-0.1,0c-0.1,0-0.2,0.1-0.2,0.4v5.5l0,0.3l0,0.6c0,0.4,0.1,0.6,0.3,0.7c0.1,0.1,0.4,0.2,0.9,0.3c0.2,0,0.3,0.1,0.3,0.2
				c0,0.1-0.1,0.2-0.2,0.2c-0.1,0-0.2,0-0.2,0c-0.1,0-0.3,0-0.7,0l-0.8,0l-0.4,0c-0.2,0-0.4,0-0.6,0c-0.1,0-0.2,0-0.3,0
				c-0.1,0-0.2-0.1-0.2-0.2c0-0.1,0.1-0.1,0.2-0.2c0.5-0.2,0.8-0.4,0.9-0.6c0.2-0.3,0.2-0.7,0.2-1.3V8c0-0.9-0.1-1.7-0.4-2.2
				c-0.3-0.5-0.7-0.9-1.3-0.9c-0.1,0-0.2-0.1-0.2-0.2c0-0.1,0.1-0.2,0.2-0.2c0,0,0.1,0,0.1,0l0.3,0l0.5,0l0.1,0c0.1,0,0.2,0,0.3,0
				c0.1,0,0.3,0.1,0.4,0.2l7.5,8.5c0.1,0.1,0.2,0.2,0.2,0.2c0.1,0,0.1-0.1,0.1-0.2v-4l0-1.1l-0.1-1.9c-0.1-0.5-0.2-0.8-0.4-1
				c-0.2-0.2-0.6-0.3-1.2-0.4c-0.2,0-0.2-0.1-0.2-0.2c0-0.1,0.1-0.2,0.2-0.2c0.1,0,0.2,0,0.3,0c0.4,0,0.9,0.1,1.5,0.1
				c0.3,0,0.6,0,0.8,0c0.2,0,0.3,0,0.4,0c0.1,0,0.2,0.1,0.2,0.2c0,0.1,0,0.1-0.2,0.2c-0.3,0.1-0.6,0.2-0.7,0.4
				c-0.1,0.2-0.2,0.5-0.2,1.1v0.9L136,7.7z"/>
		</g>
		<g>
			<path class="st1" d="M139.9,7v6.1c0,0.8,0,1.3,0.1,1.5c0.1,0.3,0.2,0.5,0.4,0.6c0.2,0.1,0.4,0.2,0.8,0.2c0.3,0,0.4,0.1,0.4,0.2
				c0,0.1-0.1,0.2-0.3,0.2c-0.1,0-0.2,0-0.3,0c-0.2,0-0.5,0-0.9,0l-1.2,0l-1,0.1c-0.2,0-0.3,0-0.4,0c-0.1,0-0.2-0.1-0.2-0.2
				c0-0.1,0.1-0.2,0.3-0.2c0.4-0.1,0.7-0.2,0.8-0.4c0.1-0.2,0.2-0.7,0.2-1.4v-7c0-0.7-0.1-1.1-0.2-1.4c-0.2-0.2-0.5-0.4-1-0.5
				c-0.2,0-0.3-0.1-0.3-0.2c0-0.1,0.1-0.2,0.2-0.2c0,0,0.1,0,0.1,0c0.4,0,0.9,0.1,1.6,0.1c0.4,0,0.7,0,1,0l0.5,0c0.1,0,0.2,0,0.2,0
				c0.1,0,0.2,0.1,0.2,0.2c0,0.1-0.1,0.2-0.2,0.2L140.5,5C140.1,5.2,139.9,5.8,139.9,7z"/>
		</g>
		<g>
			<path class="st1" d="M143.6,6.5l3.1,7.2c0.1,0.2,0.1,0.3,0.2,0.3c0.1,0,0.2-0.2,0.3-0.5l0.1-0.3l1.8-4.3c0.8-1.8,1.2-3,1.2-3.5
				c0-0.2,0-0.3-0.1-0.4s-0.2-0.1-0.5-0.2c-0.3-0.1-0.5-0.1-0.4-0.2c0-0.1,0.1-0.2,0.3-0.2c0,0,0.1,0,0.2,0c0.4,0,0.6,0,0.7,0h0.3
				l0.4,0h0.2l0.7,0c0.1,0,0.2,0,0.2,0.1c0,0.1-0.1,0.1-0.2,0.2c-0.4,0.1-0.7,0.5-0.9,0.9L151,6.3l-4.1,9.5
				c-0.1,0.3-0.2,0.4-0.3,0.4c-0.1,0-0.2-0.1-0.3-0.4l-4.1-9.6c-0.2-0.4-0.4-0.7-0.5-0.9c-0.2-0.2-0.4-0.3-0.6-0.3
				c-0.3-0.1-0.5-0.1-0.5-0.1s-0.1-0.1-0.1-0.1c0-0.1,0.1-0.2,0.2-0.2c0,0,0.1,0,0.2,0c0.1,0,0.4,0,0.8,0l0.8,0l0.5,0
				c0.1,0,0.3,0,0.5,0c0.1,0,0.2,0,0.2,0c0.1,0,0.2,0.1,0.2,0.2c0,0.1-0.1,0.1-0.2,0.2c-0.2,0.1-0.4,0.2-0.4,0.2
				c-0.1,0.1-0.1,0.2-0.1,0.3C143.2,5.6,143.3,6,143.6,6.5z"/>
		</g>
		<g>
			<path class="st1" d="M153.9,5.9v3.3c0,0.3,0,0.4,0.1,0.5c0,0.1,0.2,0.1,0.4,0.1h1.3c0.6,0,1,0,1.4-0.1c0.3-0.1,0.5-0.1,0.6-0.2
				c0.1-0.1,0.2-0.3,0.2-0.7c0-0.1,0.1-0.2,0.2-0.2c0.1,0,0.2,0.1,0.2,0.2c0,0,0,0.1,0,0.2c0,0.5-0.1,1-0.1,1.4c0,0.3,0,0.7,0,1
				c0,0.1,0,0.2,0,0.2c0,0.1-0.1,0.2-0.2,0.2c-0.1,0-0.2-0.1-0.2-0.2l0-0.2c-0.1-0.4-0.2-0.6-0.4-0.7c-0.2-0.1-0.5-0.2-1-0.2h-1.8
				c-0.3,0-0.4,0-0.5,0.1c-0.1,0.1-0.1,0.2-0.1,0.3l0,0.3v3c0,0.5,0.1,0.8,0.2,0.9c0.2,0.1,0.6,0.2,1.3,0.2c2.1,0,3.5-0.5,4.1-1.4
				c0.1-0.1,0.1-0.1,0.2-0.1c0.1,0,0.2,0.1,0.2,0.2c0,0.4-0.2,0.8-0.6,1.3c-0.5,0.6-1.1,0.9-1.8,0.9c-0.2,0-0.4,0-0.6,0
				c-1-0.1-1.9-0.1-2.6-0.1c-1,0-1.6,0-2,0.1c-0.2,0-0.3,0.1-0.4,0.1c-0.2,0-0.3-0.1-0.3-0.2c0-0.1,0.1-0.2,0.2-0.2l0.3-0.1
				c0.4-0.1,0.6-0.5,0.6-1.1l0-0.5V6.8c0-0.8-0.1-1.3-0.3-1.6c-0.2-0.3-0.5-0.4-1-0.4c-0.2,0-0.2-0.1-0.2-0.2c0-0.1,0.1-0.2,0.4-0.2
				c0.1,0,0.3,0,0.5,0c0.8,0.1,1.7,0.1,2.8,0.1c0.7,0,1.3,0,1.8,0l1.2-0.1c0.3,0,0.5,0,0.6,0c0.1,0,0.3,0,0.3,0
				c0.2,0,0.3,0.1,0.3,0.2c0,0,0,0.1,0,0.2c0,0.1,0,0.3-0.1,0.7l0,0.5c0,0.3-0.1,0.5-0.1,0.6c0,0.1-0.1,0.1-0.2,0.1
				c-0.1,0-0.2-0.1-0.2-0.2V6.3c0-0.2,0-0.3-0.1-0.5c-0.1-0.2-0.3-0.4-0.6-0.5c-0.3-0.1-0.9-0.1-1.7-0.1h-1.3c-0.3,0-0.6,0-0.7,0.1
				C154,5.4,153.9,5.6,153.9,5.9z"/>
		</g>
		<g>
			<path class="st1" d="M165.7,10.1l2.3,3.3l0.3,0.4c0.7,1,1.3,1.6,1.9,1.6l0.3,0c0.1,0,0.1,0,0.1,0.1c0,0.1-0.1,0.2-0.4,0.2
				c-0.2,0.1-0.5,0.1-0.8,0.1c-0.5,0-0.9-0.1-1.3-0.4c-0.4-0.3-0.8-0.7-1.2-1.3l-2-3.1l-0.1-0.2c-0.1-0.2-0.3-0.3-0.6-0.3H163
				l-0.2,0c-0.1,0-0.1,0.1-0.1,0.3v2.6l0,0.3c0,0.5,0,0.8,0.1,1c0,0.2,0.2,0.3,0.3,0.5c0.2,0.2,0.6,0.3,1.1,0.4
				c0.2,0,0.3,0.1,0.3,0.2c0,0.1-0.1,0.2-0.3,0.2c-0.1,0-0.2,0-0.5,0c-0.2,0-0.6,0-1,0l-0.8,0l-0.4,0c-0.2,0-0.4,0-0.7,0
				c-0.2,0-0.4,0-0.4,0c-0.1,0-0.2-0.1-0.2-0.2c0-0.1,0.1-0.1,0.2-0.2c0.4-0.1,0.7-0.3,0.9-0.6c0.1-0.3,0.2-0.9,0.2-1.9V7.2l0-0.9
				c0-0.9-0.3-1.3-0.9-1.4l-0.4-0.1c-0.2,0-0.3-0.1-0.3-0.2c0-0.1,0.1-0.2,0.3-0.2c0,0,0.2,0,0.6,0c0.2,0,0.4,0,0.7,0
				c0.3,0,0.7,0,1.3-0.1c0.4,0,0.8,0,1.2,0c1.3,0,2.2,0.2,2.8,0.7c0.6,0.5,1,1.2,1,2.1C167.7,8.5,167.1,9.5,165.7,10.1z M163.3,10
				h0.9c0.7,0,1.3-0.2,1.7-0.6s0.6-0.9,0.6-1.6c0-0.8-0.3-1.4-0.8-2c-0.6-0.5-1.3-0.8-2.1-0.8c-0.3,0-0.5,0.1-0.7,0.2
				c-0.1,0.1-0.2,0.3-0.2,0.6l0,0.3v3.3c0,0.3,0,0.4,0.1,0.5C162.9,9.9,163.1,10,163.3,10z"/>
		</g>
		<g>
			<path class="st1" d="M172.9,4.4c0.6,0,1.1,0.1,1.5,0.3l0.6,0.2c0,0,0.1,0,0.1,0c0.1,0,0.1,0,0.2-0.1l0.1-0.1c0,0,0,0,0.1,0
				c0.1,0,0.2,0.1,0.2,0.4c0,0.1,0,0.4,0.1,0.8l0.1,0.8c0,0.2,0,0.3,0,0.3c0,0.2-0.1,0.3-0.2,0.3c-0.1,0-0.2-0.1-0.3-0.4
				c-0.2-0.6-0.6-1.1-1.2-1.5c-0.6-0.4-1.3-0.6-2-0.6c-0.6,0-1.1,0.2-1.5,0.5c-0.4,0.3-0.6,0.8-0.6,1.3c0,0.5,0.1,0.9,0.4,1.2
				c0.2,0.3,0.5,0.5,0.7,0.6c0.3,0.1,0.9,0.4,1.9,0.7c2,0.7,3,1.7,3,3.2c0,1-0.4,1.8-1.1,2.5c-0.7,0.6-1.7,1-2.8,1
				c-0.4,0-0.9-0.1-1.4-0.2c-0.5-0.1-0.9-0.3-1.1-0.4c-0.1-0.1-0.2-0.1-0.2-0.2c0-0.1-0.1-0.3-0.1-0.6c0,0-0.1-0.3-0.2-0.7
				c-0.1-0.5-0.2-0.8-0.2-1c0-0.2,0.1-0.2,0.2-0.2c0.1,0,0.2,0.1,0.3,0.4c0.2,0.7,0.6,1.2,1.2,1.7c0.6,0.5,1.3,0.7,2.1,0.7
				c0.7,0,1.4-0.2,1.9-0.7c0.5-0.4,0.8-1,0.8-1.6c0-0.6-0.2-1.1-0.7-1.5c-0.2-0.2-1-0.5-2.1-0.9c-1.2-0.4-2.1-0.9-2.6-1.4
				c-0.5-0.5-0.8-1.1-0.8-1.9c0-0.9,0.3-1.6,1-2.2C171.1,4.6,171.9,4.4,172.9,4.4z"/>
		</g>
		<g>
			<path class="st1" d="M179.1,7v6.1c0,0.8,0,1.3,0.1,1.5c0.1,0.3,0.2,0.5,0.4,0.6c0.2,0.1,0.4,0.2,0.8,0.2c0.3,0,0.4,0.1,0.4,0.2
				c0,0.1-0.1,0.2-0.3,0.2c-0.1,0-0.2,0-0.3,0c-0.2,0-0.5,0-0.9,0l-1.2,0l-1,0.1c-0.2,0-0.3,0-0.4,0c-0.1,0-0.2-0.1-0.2-0.2
				c0-0.1,0.1-0.2,0.3-0.2c0.4-0.1,0.7-0.2,0.8-0.4c0.1-0.2,0.2-0.7,0.2-1.4v-7c0-0.7-0.1-1.1-0.2-1.4c-0.2-0.2-0.5-0.4-1-0.5
				c-0.2,0-0.3-0.1-0.3-0.2c0-0.1,0.1-0.2,0.2-0.2c0,0,0.1,0,0.1,0c0.4,0,0.9,0.1,1.6,0.1c0.4,0,0.7,0,1,0l0.5,0c0.1,0,0.2,0,0.2,0
				c0.1,0,0.2,0.1,0.2,0.2c0,0.1-0.1,0.2-0.2,0.2L179.7,5C179.3,5.2,179.1,5.8,179.1,7z"/>
		</g>
		<g>
			<path class="st1" d="M182.3,6.5c0-0.6-0.1-1-0.3-1.2c-0.2-0.3-0.5-0.4-0.9-0.4c-0.2,0-0.3-0.1-0.3-0.2c0-0.1,0.1-0.2,0.2-0.2
				l0.6,0c0.1,0,0.3,0,0.6,0c0.5,0,1,0,1.3,0l0.8-0.1c0.3,0,0.7,0,1.1,0c2.2,0,3.9,0.6,5,1.7c1,1,1.5,2.3,1.5,3.9c0,1-0.2,2-0.7,2.8
				c-0.4,0.9-1.1,1.5-1.9,2c-1,0.6-2.1,0.9-3.3,0.9c-0.1,0-0.4,0-0.8,0c-0.7,0-1.4-0.1-1.9-0.1c-0.6,0-1.1,0-1.5,0.1
				c-0.2,0-0.4,0-0.5,0c-0.2,0-0.3-0.1-0.3-0.2c0-0.1,0.1-0.2,0.2-0.2c0.4-0.1,0.6-0.2,0.7-0.4c0.1-0.2,0.2-0.6,0.2-1.2V6.5z
				 M183.6,5.9v8.4c0,0.3,0.2,0.6,0.5,0.7c0.3,0.1,0.7,0.2,1.1,0.3c0.4,0.1,0.8,0.1,1.1,0.1c0.9,0,1.8-0.2,2.5-0.7
				c1.3-0.8,1.9-2.1,1.9-4c0-1-0.2-2-0.6-2.8c-0.4-0.9-0.9-1.5-1.6-2c-0.8-0.6-1.9-0.9-3.1-0.9c-0.9,0-1.4,0.1-1.6,0.3
				C183.7,5.3,183.6,5.5,183.6,5.9z"/>
		</g>
		<g>
			<path class="st1" d="M198,11.5h-3c-0.4,0-0.7,0-0.8,0.1c-0.1,0.1-0.2,0.3-0.4,0.7l-0.5,1.2c-0.2,0.6-0.4,1-0.4,1.2
				c0,0.3,0.1,0.4,0.2,0.6c0.1,0.1,0.4,0.2,0.8,0.3c0.2,0,0.2,0.1,0.3,0.2c0,0.1-0.1,0.1-0.2,0.1c-0.1,0-0.2,0-0.3,0l-0.8,0
				c-0.3,0-0.6,0-0.9,0c-0.2,0-0.3,0-0.4,0c-0.3,0-0.4,0-0.5,0c-0.1,0-0.2-0.1-0.2-0.2c0-0.1,0-0.1,0.1-0.2l0.3-0.1
				c0.1,0,0.3-0.2,0.4-0.4c0.2-0.2,0.3-0.5,0.5-0.7l0.2-0.5l4.2-9.3c0.1-0.2,0.1-0.2,0.2-0.2c0.1,0,0.2,0.1,0.2,0.2l3.5,9l0.2,0.4
				c0.3,0.7,0.5,1.1,0.6,1.2c0.2,0.2,0.5,0.3,1,0.4c0.2,0,0.2,0.1,0.2,0.2c0,0.1-0.1,0.1-0.2,0.1c0,0-0.2,0-0.3,0
				c-0.3,0-0.8,0-1.5,0c-0.8,0-1.2,0-1.4,0c-0.1,0-0.2,0-0.3,0c-0.1,0-0.2-0.1-0.2-0.2c0-0.1,0.1-0.1,0.2-0.2l0.3-0.1
				c0.3-0.1,0.4-0.2,0.4-0.6c0-0.3-0.2-0.9-0.5-1.7l-0.4-1.1c-0.1-0.3-0.2-0.5-0.3-0.5C198.5,11.5,198.3,11.5,198,11.5z M198.1,10.1
				l-1.3-3.2l-0.1-0.2c-0.1-0.2-0.1-0.3-0.2-0.3c0,0-0.1,0-0.1,0.2l-1.6,3.5c-0.1,0.2-0.1,0.3-0.1,0.3c0,0.1,0.1,0.2,0.4,0.2l0.2,0
				h2.5c0.3,0,0.4-0.1,0.4-0.2c0,0,0-0.1,0-0.2L198.1,10.1z"/>
		</g>
		<g>
			<path class="st1" d="M203.3,6.5c0-0.6-0.1-1-0.3-1.2c-0.2-0.3-0.5-0.4-0.9-0.4c-0.2,0-0.3-0.1-0.3-0.2c0-0.1,0.1-0.2,0.2-0.2
				l0.6,0c0.1,0,0.3,0,0.6,0c0.5,0,1,0,1.3,0l0.8-0.1c0.3,0,0.7,0,1.1,0c2.2,0,3.9,0.6,5,1.7c1,1,1.5,2.3,1.5,3.9c0,1-0.2,2-0.7,2.8
				c-0.4,0.9-1.1,1.5-1.9,2c-1,0.6-2.1,0.9-3.3,0.9c-0.1,0-0.4,0-0.8,0c-0.7,0-1.4-0.1-1.9-0.1c-0.6,0-1.1,0-1.5,0.1
				c-0.2,0-0.4,0-0.5,0c-0.2,0-0.3-0.1-0.3-0.2c0-0.1,0.1-0.2,0.2-0.2c0.4-0.1,0.6-0.2,0.7-0.4c0.1-0.2,0.2-0.6,0.2-1.2V6.5z
				 M204.5,5.9v8.4c0,0.3,0.2,0.6,0.5,0.7c0.3,0.1,0.7,0.2,1.1,0.3c0.4,0.1,0.8,0.1,1.1,0.1c0.9,0,1.8-0.2,2.5-0.7
				c1.3-0.8,1.9-2.1,1.9-4c0-1-0.2-2-0.6-2.8c-0.4-0.9-0.9-1.5-1.6-2c-0.8-0.6-1.9-0.9-3.1-0.9c-0.9,0-1.4,0.1-1.6,0.3
				C204.6,5.3,204.5,5.5,204.5,5.9z"/>
		</g>
	</g>
	<g>
		<g>
			<path class="st1" d="M124.4,23.7v6.8c0,0.6,0,1,0,1.1c0,0.1-0.1,0.2-0.2,0.2c-0.1,0-0.1,0-0.2-0.1l-0.2-0.2l-6.9-7.9l-0.1-0.1
				c0,0-0.1,0-0.1,0c-0.1,0-0.2,0.1-0.2,0.4v5.5l0,0.3l0,0.6c0,0.4,0.1,0.6,0.3,0.7c0.1,0.1,0.4,0.2,0.9,0.3c0.2,0,0.3,0.1,0.3,0.2
				c0,0.1-0.1,0.2-0.2,0.2c-0.1,0-0.2,0-0.2,0c-0.1,0-0.3,0-0.7,0l-0.8,0l-0.4,0c-0.2,0-0.4,0-0.6,0c-0.1,0-0.2,0-0.3,0
				c-0.1,0-0.2-0.1-0.2-0.2c0-0.1,0.1-0.1,0.2-0.2c0.5-0.2,0.8-0.4,0.9-0.6s0.2-0.7,0.2-1.3V24c0-0.9-0.1-1.7-0.4-2.2
				c-0.3-0.5-0.7-0.9-1.3-0.9c-0.1,0-0.2-0.1-0.2-0.2c0-0.1,0.1-0.2,0.2-0.2c0,0,0.1,0,0.1,0l0.3,0l0.5,0l0.1,0c0.1,0,0.2,0,0.3,0
				c0.1,0,0.3,0.1,0.4,0.2l7.5,8.5c0.1,0.1,0.2,0.2,0.2,0.2c0.1,0,0.1-0.1,0.1-0.2v-4l0-1.1l-0.1-1.9c-0.1-0.5-0.2-0.8-0.4-1
				c-0.2-0.2-0.6-0.3-1.2-0.4c-0.2,0-0.2-0.1-0.2-0.2c0-0.1,0.1-0.2,0.2-0.2c0.1,0,0.2,0,0.3,0c0.4,0,0.9,0.1,1.5,0.1
				c0.3,0,0.6,0,0.8,0c0.2,0,0.3,0,0.4,0c0.1,0,0.2,0.1,0.2,0.2c0,0.1,0,0.1-0.2,0.2c-0.3,0.1-0.6,0.2-0.7,0.4
				c-0.1,0.2-0.2,0.5-0.2,1.1v0.9L124.4,23.7z"/>
		</g>
		<g>
			<path class="st1" d="M134.5,27.5h-3c-0.4,0-0.7,0-0.8,0.1c-0.1,0.1-0.2,0.3-0.4,0.7l-0.5,1.2c-0.2,0.6-0.4,1-0.4,1.2
				c0,0.3,0.1,0.4,0.2,0.6c0.1,0.1,0.4,0.2,0.8,0.3c0.2,0,0.2,0.1,0.3,0.2c0,0.1-0.1,0.1-0.2,0.1c-0.1,0-0.2,0-0.3,0l-0.8,0
				c-0.3,0-0.6,0-0.9,0c-0.2,0-0.3,0-0.4,0c-0.3,0-0.4,0-0.5,0c-0.1,0-0.2-0.1-0.2-0.2c0-0.1,0-0.1,0.1-0.2l0.3-0.1
				c0.1,0,0.3-0.2,0.4-0.4c0.2-0.2,0.3-0.5,0.5-0.7l0.2-0.5l4.2-9.3c0.1-0.2,0.1-0.2,0.2-0.2c0.1,0,0.2,0.1,0.2,0.2l3.5,9l0.2,0.4
				c0.3,0.7,0.5,1.1,0.6,1.2c0.2,0.2,0.5,0.3,1,0.4c0.2,0,0.2,0.1,0.2,0.2c0,0.1-0.1,0.1-0.2,0.1c0,0-0.2,0-0.3,0
				c-0.3,0-0.8,0-1.5,0c-0.8,0-1.2,0-1.4,0c-0.1,0-0.2,0-0.3,0c-0.1,0-0.2-0.1-0.2-0.2c0-0.1,0.1-0.1,0.2-0.2l0.3-0.1
				c0.3-0.1,0.4-0.2,0.4-0.6c0-0.3-0.2-0.9-0.5-1.7l-0.4-1.1c-0.1-0.3-0.2-0.5-0.3-0.5C134.9,27.5,134.8,27.5,134.5,27.5z
				 M134.6,26.2l-1.3-3.2l-0.1-0.2c-0.1-0.2-0.1-0.3-0.2-0.3c0,0-0.1,0-0.1,0.2l-1.6,3.5c-0.1,0.2-0.1,0.3-0.1,0.3
				c0,0.1,0.1,0.2,0.4,0.2l0.2,0h2.5c0.3,0,0.4-0.1,0.4-0.2c0,0,0-0.1,0-0.2L134.6,26.2z"/>
		</g>
		<g>
			<path class="st1" d="M151.3,21.5l0.3,2l0,0.2l0,0.1c0,0-0.1,0.1-0.1,0.1c-0.1,0-0.2-0.1-0.3-0.3c-1-1.8-2.4-2.7-4.1-2.7
				c-1.4,0-2.5,0.4-3.3,1.3c-0.8,0.9-1.2,2-1.2,3.5c0,1.7,0.4,3.1,1.3,4.2c0.9,1.1,2,1.6,3.4,1.6c0.8,0,1.6-0.2,2.4-0.7
				c0.8-0.4,1.3-1,1.6-1.6c0.1-0.3,0.3-0.4,0.3-0.4c0.1,0,0.1,0,0.1,0.2l0,0.1l0,0.2l-0.2,1l0,0.1c0,0.1-0.1,0.3-0.4,0.4
				c-1.3,0.8-2.6,1.2-4.2,1.2c-1.8,0-3.2-0.5-4.2-1.6c-1.1-1-1.6-2.4-1.6-4.1c0-1.7,0.6-3.1,1.7-4.2c1.1-1.1,2.5-1.7,4.2-1.7
				c1.1,0,2.2,0.3,3.2,0.8l0.3,0.2l0.1,0.1l0.1,0c0,0,0.1,0,0.1-0.1c0.1-0.1,0.2-0.1,0.2-0.1C151.2,21.2,151.3,21.3,151.3,21.5z"/>
		</g>
		<g>
			<path class="st1" d="M157.3,23v6.1c0,0.8,0,1.3,0.1,1.5c0.1,0.3,0.2,0.5,0.4,0.6c0.2,0.1,0.4,0.2,0.8,0.2c0.3,0,0.4,0.1,0.4,0.2
				c0,0.1-0.1,0.2-0.3,0.2c-0.1,0-0.2,0-0.3,0c-0.2,0-0.5,0-0.9,0l-1.2,0l-1,0.1c-0.2,0-0.3,0-0.4,0c-0.1,0-0.2-0.1-0.2-0.2
				c0-0.1,0.1-0.2,0.3-0.2c0.4-0.1,0.7-0.2,0.8-0.4c0.1-0.2,0.2-0.7,0.2-1.4v-7c0-0.7-0.1-1.1-0.2-1.4c-0.2-0.2-0.5-0.4-1-0.5
				c-0.2,0-0.3-0.1-0.3-0.2c0-0.1,0.1-0.2,0.2-0.2c0,0,0.1,0,0.1,0c0.4,0,0.9,0.1,1.6,0.1c0.4,0,0.7,0,1,0l0.5,0c0.1,0,0.2,0,0.2,0
				c0.1,0,0.2,0.1,0.2,0.2c0,0.1-0.1,0.2-0.2,0.2l-0.4,0.2C157.5,21.2,157.3,21.8,157.3,23z"/>
		</g>
		<g>
			<path class="st1" d="M167.6,20.4c1.7,0,3.1,0.5,4.2,1.6c1.1,1.1,1.6,2.4,1.6,4c0,1.7-0.6,3.2-1.7,4.3c-1.1,1.1-2.5,1.7-4.2,1.7
				c-1.8,0-3.2-0.5-4.3-1.6c-1.1-1.1-1.6-2.5-1.6-4.2c0-0.8,0.1-1.5,0.4-2.2c0.3-0.7,0.7-1.4,1.2-1.8c0.5-0.5,1.2-0.9,1.9-1.2
				C166,20.5,166.8,20.4,167.6,20.4z M167.1,20.9c-1.3,0-2.3,0.4-3,1.3c-0.7,0.9-1.1,2-1.1,3.4c0,1.6,0.5,3,1.4,4.2
				c1,1.1,2.1,1.7,3.5,1.7c1.3,0,2.3-0.5,3.1-1.4c0.8-0.9,1.2-2.1,1.2-3.5c0-1.6-0.5-3-1.5-4.1C169.8,21.4,168.6,20.9,167.1,20.9z"
				/>
		</g>
		<g>
			<path class="st1" d="M186.3,23.7v6.8c0,0.6,0,1,0,1.1c0,0.1-0.1,0.2-0.2,0.2c-0.1,0-0.1,0-0.2-0.1l-0.2-0.2l-6.9-7.9l-0.1-0.1
				c0,0-0.1,0-0.1,0c-0.1,0-0.2,0.1-0.2,0.4v5.5l0,0.3l0,0.6c0,0.4,0.1,0.6,0.3,0.7c0.1,0.1,0.4,0.2,0.9,0.3c0.2,0,0.3,0.1,0.3,0.2
				c0,0.1-0.1,0.2-0.2,0.2c-0.1,0-0.2,0-0.2,0c-0.1,0-0.3,0-0.7,0l-0.8,0l-0.4,0c-0.2,0-0.4,0-0.6,0c-0.1,0-0.2,0-0.3,0
				c-0.1,0-0.2-0.1-0.2-0.2c0-0.1,0.1-0.1,0.2-0.2c0.5-0.2,0.8-0.4,0.9-0.6s0.2-0.7,0.2-1.3V24c0-0.9-0.1-1.7-0.4-2.2
				c-0.3-0.5-0.7-0.9-1.3-0.9c-0.1,0-0.2-0.1-0.2-0.2c0-0.1,0.1-0.2,0.2-0.2c0,0,0.1,0,0.1,0l0.3,0l0.5,0l0.1,0c0.1,0,0.2,0,0.3,0
				c0.1,0,0.3,0.1,0.4,0.2l7.5,8.5c0.1,0.1,0.2,0.2,0.2,0.2c0.1,0,0.1-0.1,0.1-0.2v-4l0-1.1l-0.1-1.9c-0.1-0.5-0.2-0.8-0.4-1
				c-0.2-0.2-0.6-0.3-1.2-0.4c-0.2,0-0.2-0.1-0.2-0.2c0-0.1,0.1-0.2,0.2-0.2c0.1,0,0.2,0,0.3,0c0.4,0,0.9,0.1,1.5,0.1
				c0.3,0,0.6,0,0.8,0c0.2,0,0.3,0,0.4,0c0.1,0,0.2,0.1,0.2,0.2c0,0.1,0,0.1-0.2,0.2c-0.3,0.1-0.6,0.2-0.7,0.4
				c-0.1,0.2-0.2,0.5-0.2,1.1v0.9L186.3,23.7z"/>
		</g>
		<g>
			<path class="st1" d="M195.7,27.5h-3c-0.4,0-0.7,0-0.8,0.1c-0.1,0.1-0.2,0.3-0.4,0.7l-0.5,1.2c-0.2,0.6-0.4,1-0.4,1.2
				c0,0.3,0.1,0.4,0.2,0.6c0.1,0.1,0.4,0.2,0.8,0.3c0.2,0,0.2,0.1,0.3,0.2c0,0.1-0.1,0.1-0.2,0.1c-0.1,0-0.2,0-0.3,0l-0.8,0
				c-0.3,0-0.6,0-0.9,0c-0.2,0-0.3,0-0.4,0c-0.3,0-0.4,0-0.5,0c-0.1,0-0.2-0.1-0.2-0.2c0-0.1,0-0.1,0.1-0.2l0.3-0.1
				c0.1,0,0.3-0.2,0.4-0.4c0.2-0.2,0.3-0.5,0.5-0.7l0.2-0.5l4.2-9.3c0.1-0.2,0.1-0.2,0.2-0.2c0.1,0,0.2,0.1,0.2,0.2l3.5,9l0.2,0.4
				c0.3,0.7,0.5,1.1,0.6,1.2c0.2,0.2,0.5,0.3,1,0.4c0.2,0,0.2,0.1,0.2,0.2c0,0.1-0.1,0.1-0.2,0.1c0,0-0.2,0-0.3,0
				c-0.3,0-0.8,0-1.5,0c-0.8,0-1.2,0-1.4,0c-0.1,0-0.2,0-0.3,0c-0.1,0-0.2-0.1-0.2-0.2c0-0.1,0.1-0.1,0.2-0.2l0.3-0.1
				c0.3-0.1,0.4-0.2,0.4-0.6c0-0.3-0.2-0.9-0.5-1.7l-0.4-1.1c-0.1-0.3-0.2-0.5-0.3-0.5C196.2,27.5,196,27.5,195.7,27.5z M195.8,26.2
				l-1.3-3.2l-0.1-0.2c-0.1-0.2-0.1-0.3-0.2-0.3c0,0-0.1,0-0.1,0.2l-1.6,3.5c-0.1,0.2-0.1,0.3-0.1,0.3c0,0.1,0.1,0.2,0.4,0.2l0.2,0
				h2.5c0.3,0,0.4-0.1,0.4-0.2c0,0,0-0.1,0-0.2L195.8,26.2z"/>
		</g>
		<g>
			<path class="st1" d="M205.8,29.5l0,0.3c0,0.7,0.1,1,0.2,1.2c0.1,0.1,0.5,0.2,1.2,0.2c1,0,1.9-0.1,2.7-0.4c0.7-0.2,1.2-0.6,1.4-1
				c0.1-0.1,0.2-0.2,0.2-0.2c0.1,0,0.1,0.1,0.1,0.2c0,0.4-0.2,0.8-0.5,1.2c-0.5,0.6-1.2,0.9-2.3,0.9c-0.2,0-0.4,0-0.6,0l-0.9-0.1
				c-0.5,0-1.1-0.1-1.6-0.1c-0.7,0-1.2,0-1.7,0.1c-0.2,0-0.3,0-0.5,0c-0.1,0-0.2,0-0.2-0.1c0-0.1,0.1-0.1,0.2-0.2
				c0.4-0.1,0.6-0.3,0.8-0.5c0.1-0.2,0.2-0.6,0.2-1.1l0-0.4v-7.3c0-0.7-0.3-1.1-0.9-1.3l-0.4-0.1c-0.1,0-0.2-0.1-0.2-0.2
				c0-0.1,0.1-0.2,0.3-0.2c0.1,0,0.3,0,0.5,0c0.4,0,0.8,0,1.2,0c0.5,0,1,0,1.4,0c0.2,0,0.3,0,0.4,0c0.1,0,0.2,0,0.2,0.1
				c0,0.1-0.1,0.2-0.2,0.2l-0.3,0.1c-0.5,0.1-0.7,0.6-0.7,1.5V29.5z"/>
		</g>
	</g>
	<g>
		<g>
			<path class="st1" d="M119.2,37.1l0.1,1l0,0.1l0,0c0,0,0,0-0.1,0c0,0-0.1-0.1-0.1-0.2c-0.5-0.9-1.2-1.3-2.1-1.3
				c-0.7,0-1.2,0.2-1.6,0.6c-0.4,0.4-0.6,1-0.6,1.7c0,0.8,0.2,1.5,0.7,2.1s1,0.8,1.7,0.8c0.4,0,0.8-0.1,1.2-0.3
				c0.4-0.2,0.7-0.5,0.8-0.8c0.1-0.1,0.1-0.2,0.2-0.2c0,0,0.1,0,0.1,0.1l0,0l0,0.1l-0.1,0.5l0,0.1c0,0.1-0.1,0.1-0.2,0.2
				c-0.6,0.4-1.3,0.6-2.1,0.6c-0.9,0-1.6-0.3-2.1-0.8c-0.5-0.5-0.8-1.2-0.8-2c0-0.8,0.3-1.5,0.8-2.1c0.6-0.6,1.2-0.8,2.1-0.8
				c0.6,0,1.1,0.1,1.6,0.4l0.2,0.1l0.1,0l0.1,0c0,0,0,0,0.1,0c0.1,0,0.1-0.1,0.1-0.1C119.1,36.9,119.2,37,119.2,37.1z"/>
		</g>
		<g>
			<path class="st1" d="M128.8,36.5c0.8,0,1.5,0.3,2.1,0.8c0.5,0.5,0.8,1.2,0.8,2c0,0.9-0.3,1.6-0.8,2.1c-0.5,0.6-1.2,0.8-2.1,0.8
				c-0.9,0-1.6-0.3-2.1-0.8c-0.5-0.5-0.8-1.2-0.8-2.1c0-0.4,0.1-0.7,0.2-1.1c0.1-0.4,0.3-0.7,0.6-0.9c0.3-0.3,0.6-0.5,1-0.6
				C128,36.6,128.4,36.5,128.8,36.5z M128.5,36.8c-0.6,0-1.1,0.2-1.5,0.6c-0.4,0.4-0.6,1-0.6,1.7c0,0.8,0.2,1.5,0.7,2.1
				c0.5,0.6,1.1,0.8,1.7,0.8c0.6,0,1.1-0.2,1.6-0.7c0.4-0.5,0.6-1,0.6-1.7c0-0.8-0.2-1.5-0.7-2C129.9,37.1,129.3,36.8,128.5,36.8z"
				/>
		</g>
		<g>
			<path class="st1" d="M139.9,36.5c0.3,0,0.5,0,0.7,0.1l0.3,0.1c0,0,0,0,0.1,0c0,0,0.1,0,0.1,0l0.1,0c0,0,0,0,0,0
				c0.1,0,0.1,0.1,0.1,0.2c0,0,0,0.2,0.1,0.4l0.1,0.4c0,0.1,0,0.1,0,0.2c0,0.1,0,0.1-0.1,0.1c0,0-0.1-0.1-0.1-0.2
				c-0.1-0.3-0.3-0.5-0.6-0.7c-0.3-0.2-0.6-0.3-1-0.3c-0.3,0-0.5,0.1-0.7,0.3c-0.2,0.2-0.3,0.4-0.3,0.6c0,0.2,0.1,0.4,0.2,0.6
				c0.1,0.1,0.2,0.2,0.4,0.3c0.1,0.1,0.5,0.2,1,0.4c1,0.3,1.5,0.9,1.5,1.6c0,0.5-0.2,0.9-0.6,1.2c-0.4,0.3-0.8,0.5-1.4,0.5
				c-0.2,0-0.4,0-0.7-0.1c-0.3-0.1-0.4-0.1-0.6-0.2c0,0-0.1-0.1-0.1-0.1c0,0,0-0.1-0.1-0.3c0,0,0-0.1-0.1-0.4
				c-0.1-0.2-0.1-0.4-0.1-0.5c0-0.1,0-0.1,0.1-0.1c0,0,0.1,0.1,0.1,0.2c0.1,0.3,0.3,0.6,0.6,0.8c0.3,0.2,0.7,0.3,1,0.3
				c0.4,0,0.7-0.1,0.9-0.3s0.4-0.5,0.4-0.8c0-0.3-0.1-0.6-0.4-0.8c-0.1-0.1-0.5-0.3-1.1-0.5c-0.6-0.2-1-0.4-1.3-0.7
				c-0.2-0.2-0.4-0.6-0.4-1c0-0.4,0.2-0.8,0.5-1.1C139,36.7,139.4,36.5,139.9,36.5z"/>
		</g>
		<g>
			<path class="st1" d="M152,37h-1.1c-0.1,0-0.2,0-0.2,0c0,0,0,0.1,0,0.2v4l0,0.2c0,0.3,0.2,0.5,0.5,0.6c0.1,0,0.1,0,0.1,0.1
				c0,0.1,0,0.1-0.1,0.1c0,0-0.1,0-0.2,0c-0.1,0-0.2,0-0.4,0l-0.3,0l-0.3,0c-0.1,0-0.2,0-0.3,0c-0.2,0-0.2,0-0.3,0
				c-0.1,0-0.1,0-0.1-0.1c0,0,0-0.1,0.1-0.1c0.2,0,0.3-0.1,0.4-0.2c0.1-0.1,0.1-0.2,0.1-0.5v-4l0-0.1c0-0.1,0-0.2,0-0.2
				c0,0-0.1,0-0.2,0h-1.1c-0.2,0-0.4,0-0.5,0.1c-0.1,0.1-0.2,0.3-0.2,0.5c0,0.1-0.1,0.2-0.1,0.2c0,0-0.1,0-0.1-0.1
				c0-0.1,0-0.2,0-0.3c0-0.2,0.1-0.4,0.1-0.5c0-0.1,0-0.2,0-0.2c0,0,0.1-0.1,0.2-0.1h4.4c0.1,0,0.2,0,0.3,0c0,0,0,0.1,0,0.3
				c0,0.2,0,0.3,0,0.3c0,0.1,0,0.2,0,0.2c0,0.1,0,0.1-0.1,0.1c0,0-0.1,0-0.1-0.1c0-0.2-0.1-0.3-0.2-0.4C152.4,37.1,152.3,37,152,37z
				"/>
		</g>
		<g>
			<path class="st1" d="M161.2,40.1h-1.5c-0.2,0-0.3,0-0.4,0c0,0-0.1,0.1-0.2,0.3l-0.3,0.6c-0.1,0.3-0.2,0.5-0.2,0.6
				c0,0.1,0,0.2,0.1,0.3c0.1,0.1,0.2,0.1,0.4,0.1c0.1,0,0.1,0,0.1,0.1c0,0,0,0.1-0.1,0.1c0,0-0.1,0-0.1,0l-0.4,0c-0.1,0-0.3,0-0.5,0
				c-0.1,0-0.1,0-0.2,0c-0.1,0-0.2,0-0.2,0c-0.1,0-0.1,0-0.1-0.1c0,0,0-0.1,0.1-0.1l0.2,0c0.1,0,0.1-0.1,0.2-0.2
				c0.1-0.1,0.2-0.2,0.2-0.4l0.1-0.3l2.1-4.6c0-0.1,0.1-0.1,0.1-0.1c0,0,0.1,0,0.1,0.1l1.7,4.5l0.1,0.2c0.1,0.3,0.2,0.5,0.3,0.6
				c0.1,0.1,0.3,0.1,0.5,0.2c0.1,0,0.1,0,0.1,0.1c0,0,0,0.1-0.1,0.1c0,0-0.1,0-0.2,0c-0.1,0-0.4,0-0.8,0c-0.4,0-0.6,0-0.7,0
				c-0.1,0-0.1,0-0.1,0c-0.1,0-0.1,0-0.1-0.1c0,0,0-0.1,0.1-0.1l0.1,0c0.1,0,0.2-0.1,0.2-0.3c0-0.1-0.1-0.4-0.2-0.9l-0.2-0.5
				c-0.1-0.1-0.1-0.2-0.1-0.3C161.4,40.1,161.3,40.1,161.2,40.1z M161.2,39.4l-0.6-1.6l0-0.1c0-0.1-0.1-0.1-0.1-0.1c0,0,0,0-0.1,0.1
				l-0.8,1.8c0,0.1-0.1,0.1-0.1,0.2c0,0.1,0.1,0.1,0.2,0.1l0.1,0h1.2c0.1,0,0.2,0,0.2-0.1C161.3,39.5,161.3,39.5,161.2,39.4
				L161.2,39.4z"/>
		</g>
		<g>
			<path class="st1" d="M180.2,39.4l1.1,1.7l0.1,0.2c0.3,0.5,0.7,0.8,1,0.8l0.1,0c0,0,0.1,0,0.1,0.1c0,0-0.1,0.1-0.2,0.1
				c-0.1,0-0.3,0-0.4,0c-0.2,0-0.5-0.1-0.7-0.2c-0.2-0.1-0.4-0.4-0.6-0.7l-1-1.5l-0.1-0.1c-0.1-0.1-0.2-0.2-0.3-0.2h-0.5l-0.1,0
				c0,0,0,0.1,0,0.1V41l0,0.2c0,0.2,0,0.4,0,0.5c0,0.1,0.1,0.2,0.2,0.2c0.1,0.1,0.3,0.2,0.5,0.2c0.1,0,0.1,0,0.2,0.1
				c0,0.1,0,0.1-0.1,0.1c0,0-0.1,0-0.2,0c-0.1,0-0.3,0-0.5,0l-0.4,0l-0.2,0c-0.1,0-0.2,0-0.3,0c-0.1,0-0.2,0-0.2,0
				c-0.1,0-0.1,0-0.1-0.1c0,0,0-0.1,0.1-0.1c0.2,0,0.4-0.1,0.4-0.3c0.1-0.2,0.1-0.5,0.1-0.9v-2.9l0-0.4c0-0.4-0.1-0.7-0.4-0.7
				l-0.2,0c-0.1,0-0.1,0-0.1-0.1c0-0.1,0-0.1,0.1-0.1c0,0,0.1,0,0.3,0c0.1,0,0.2,0,0.4,0c0.1,0,0.3,0,0.6,0c0.2,0,0.4,0,0.6,0
				c0.6,0,1.1,0.1,1.4,0.4c0.3,0.2,0.5,0.6,0.5,1C181.2,38.6,180.9,39.1,180.2,39.4z M179,39.3h0.5c0.4,0,0.6-0.1,0.8-0.3
				c0.2-0.2,0.3-0.5,0.3-0.8c0-0.4-0.1-0.7-0.4-1c-0.3-0.3-0.6-0.4-1.1-0.4c-0.2,0-0.3,0-0.3,0.1c-0.1,0.1-0.1,0.1-0.1,0.3l0,0.1V39
				c0,0.1,0,0.2,0.1,0.2S178.9,39.3,179,39.3z"/>
		</g>
		<g>
			<path class="st1" d="M190,37.8v3c0,0.4,0,0.6,0.1,0.8c0.1,0.1,0.1,0.2,0.2,0.3c0.1,0.1,0.2,0.1,0.4,0.1c0.1,0,0.2,0.1,0.2,0.1
				c0,0.1,0,0.1-0.1,0.1c0,0-0.1,0-0.2,0c-0.1,0-0.2,0-0.4,0l-0.6,0l-0.5,0c-0.1,0-0.1,0-0.2,0c-0.1,0-0.1,0-0.1-0.1
				c0,0,0-0.1,0.1-0.1c0.2,0,0.3-0.1,0.4-0.2c0.1-0.1,0.1-0.3,0.1-0.7v-3.5c0-0.3,0-0.6-0.1-0.7c-0.1-0.1-0.2-0.2-0.5-0.2
				c-0.1,0-0.1,0-0.1-0.1c0-0.1,0-0.1,0.1-0.1c0,0,0,0,0.1,0c0.2,0,0.5,0,0.8,0c0.2,0,0.4,0,0.5,0l0.3,0c0.1,0,0.1,0,0.1,0
				c0.1,0,0.1,0,0.1,0.1c0,0,0,0.1-0.1,0.1l-0.2,0.1C190.1,36.9,190,37.2,190,37.8z"/>
		</g>
		<g>
			<path class="st1" d="M202.2,37.1l0.1,1l0,0.1l0,0c0,0,0,0-0.1,0c0,0-0.1-0.1-0.1-0.2c-0.5-0.9-1.2-1.3-2.1-1.3
				c-0.7,0-1.2,0.2-1.6,0.6c-0.4,0.4-0.6,1-0.6,1.7c0,0.8,0.2,1.5,0.7,2.1c0.4,0.5,1,0.8,1.7,0.8c0.4,0,0.8-0.1,1.2-0.3
				c0.4-0.2,0.7-0.5,0.8-0.8c0.1-0.1,0.1-0.2,0.2-0.2c0,0,0.1,0,0.1,0.1l0,0l0,0.1l-0.1,0.5l0,0.1c0,0.1-0.1,0.1-0.2,0.2
				c-0.6,0.4-1.3,0.6-2.1,0.6c-0.9,0-1.6-0.3-2.1-0.8c-0.5-0.5-0.8-1.2-0.8-2c0-0.8,0.3-1.5,0.8-2.1c0.6-0.6,1.2-0.8,2.1-0.8
				c0.6,0,1.1,0.1,1.6,0.4l0.2,0.1l0.1,0l0.1,0c0,0,0,0,0.1,0c0.1,0,0.1-0.1,0.1-0.1C202.2,36.9,202.2,37,202.2,37.1z"/>
		</g>
		<g>
			<path class="st1" d="M211.9,40.1h-1.5c-0.2,0-0.3,0-0.4,0c0,0-0.1,0.1-0.2,0.3l-0.3,0.6c-0.1,0.3-0.2,0.5-0.2,0.6
				c0,0.1,0,0.2,0.1,0.3c0.1,0.1,0.2,0.1,0.4,0.1c0.1,0,0.1,0,0.1,0.1c0,0,0,0.1-0.1,0.1c0,0-0.1,0-0.1,0l-0.4,0c-0.1,0-0.3,0-0.5,0
				c-0.1,0-0.1,0-0.2,0c-0.1,0-0.2,0-0.2,0c-0.1,0-0.1,0-0.1-0.1c0,0,0-0.1,0.1-0.1l0.2,0c0.1,0,0.1-0.1,0.2-0.2
				c0.1-0.1,0.2-0.2,0.2-0.4l0.1-0.3l2.1-4.6c0-0.1,0.1-0.1,0.1-0.1c0,0,0.1,0,0.1,0.1l1.7,4.5l0.1,0.2c0.1,0.3,0.2,0.5,0.3,0.6
				c0.1,0.1,0.3,0.1,0.5,0.2c0.1,0,0.1,0,0.1,0.1c0,0,0,0.1-0.1,0.1c0,0-0.1,0-0.2,0c-0.1,0-0.4,0-0.8,0c-0.4,0-0.6,0-0.7,0
				c-0.1,0-0.1,0-0.1,0c-0.1,0-0.1,0-0.1-0.1c0,0,0-0.1,0.1-0.1l0.1,0c0.1,0,0.2-0.1,0.2-0.3c0-0.1-0.1-0.4-0.2-0.9l-0.2-0.5
				c-0.1-0.1-0.1-0.2-0.1-0.3C212.1,40.1,212,40.1,211.9,40.1z M211.9,39.4l-0.6-1.6l0-0.1c0-0.1-0.1-0.1-0.1-0.1c0,0,0,0-0.1,0.1
				l-0.8,1.8c0,0.1-0.1,0.1-0.1,0.2c0,0.1,0.1,0.1,0.2,0.1l0.1,0h1.2c0.1,0,0.2,0,0.2-0.1C211.9,39.5,211.9,39.5,211.9,39.4
				L211.9,39.4z"/>
		</g>
	</g>
	<g>
		<rect x="113.9" y="17.7" class="st1" width="102.3" height="0.6"/>
	</g>
	<g>
		<path class="st1" d="M216.2,46H0v-1.6h216.2V46z M216.2,1.6H0V0h216.2V1.6z"/>
	</g>
	<g>
		<rect x="113.9" y="33.6" class="st1" width="102.3" height="0.6"/>
	</g>
	<g>
		<g>
			<path class="st1" d="M33.7,26.5V13c0-2.2-0.3-3.8-0.9-4.7c-0.6-1-1.7-1.5-3.2-1.7c-0.5-0.1-0.8-0.2-0.8-0.6
				c0-0.4,0.2-0.6,0.5-0.5c0.4,0,0.9,0.1,1.7,0.2c0.7,0.1,1.5,0.2,2.4,0.2c1.9,0,3.1,0,3.6-0.1c0.6-0.1,1-0.1,1.1-0.1
				c0.3,0,0.5,0.2,0.5,0.5c0,0.3-0.2,0.5-0.5,0.6c-1.1,0.4-1.8,1-2.1,1.8c-0.3,0.8-0.5,2.3-0.5,4.4v13c0,4.8-1,8.4-2.9,11
				c-1.2,1.6-2.9,2.9-5.2,3.9c-2.2,1-4.6,1.5-7.2,1.5c-3,0-5.6-0.6-8-1.7s-4.1-2.7-5.2-4.7c-1.2-2.3-1.9-5.2-1.9-8.9V13.7l-0.1-1.5
				c0-1.9-0.3-3.2-0.8-3.9C3.9,7.7,2.9,7.2,1.3,7C0.9,6.9,0.6,6.7,0.6,6.4c0-0.4,0.3-0.6,1-0.6c0.4,0,1,0,1.8,0.1
				C4.2,5.9,4.8,6,5.2,6l2,0h2c0.2,0,0.7,0,1.5-0.1c0.6-0.1,1.1-0.1,1.3-0.1c0.4,0,0.6,0.1,0.6,0.4c0,0.3-0.3,0.5-0.8,0.6
				c-1,0.2-1.7,0.7-2,1.3c-0.3,0.7-0.5,1.8-0.5,3.5l0.1,1.7v13.2c0,4.5,0.7,7.7,2.1,9.6c2,2.7,5.3,4.1,9.9,4.1
				c4.2,0,7.3-1.1,9.3-3.4C32.7,34.5,33.7,31.1,33.7,26.5z"/>
		</g>
		<g>
			<path class="st1" d="M70.8,15.9v21.9c0,2,0,3.2-0.1,3.6c-0.1,0.4-0.3,0.6-0.7,0.6c-0.3,0-0.5-0.1-0.6-0.2l-0.6-0.7L46.7,15.9
				l-0.3-0.3c-0.1-0.1-0.2-0.2-0.4-0.2c-0.3,0-0.5,0.4-0.5,1.2v17.8l0,1.1l0.1,1.9c0.1,1.2,0.4,1.9,0.9,2.4c0.5,0.4,1.4,0.8,2.8,1
				c0.6,0.1,0.9,0.3,0.9,0.7c0,0.3-0.2,0.5-0.5,0.5c-0.2,0-0.5,0-0.8-0.1c-0.2,0-1-0.1-2.3-0.2l-2.7-0.1l-1.3,0
				c-0.7,0-1.3,0-1.9,0.1c-0.5,0.1-0.8,0.1-1,0.1c-0.5,0-0.7-0.2-0.7-0.5c0-0.3,0.2-0.5,0.7-0.6c1.5-0.5,2.5-1.2,3-2
				c0.5-0.8,0.8-2.2,0.8-4.1V16.8c0-3-0.5-5.4-1.4-7.1s-2.3-2.7-4.2-3c-0.5-0.1-0.7-0.3-0.7-0.6c0-0.3,0.2-0.5,0.6-0.5
				c0.1,0,0.2,0,0.4,0l1.1,0L41,5.7l0.4,0c0.4,0,0.7,0,1,0c0.4,0,0.9,0.3,1.3,0.8l24.1,27.3c0.4,0.4,0.6,0.6,0.7,0.6
				c0.2,0,0.3-0.2,0.3-0.5v-13l0-3.5l-0.3-6c-0.2-1.5-0.6-2.5-1.3-3.2c-0.7-0.6-1.9-1.1-3.7-1.4c-0.5-0.1-0.8-0.3-0.8-0.6
				c0-0.3,0.3-0.5,0.8-0.5c0.2,0,0.6,0,1.1,0.1c1.2,0.1,2.8,0.2,4.8,0.2c1.1,0,1.9-0.1,2.6-0.2c0.6-0.1,1-0.2,1.3-0.2
				c0.5,0,0.7,0.2,0.7,0.5c0,0.2-0.2,0.4-0.5,0.5c-1.1,0.3-1.8,0.7-2.1,1.3c-0.3,0.6-0.5,1.8-0.5,3.4v2.8L70.8,15.9z"/>
		</g>
		<g>
			<path class="st1" d="M90.5,28H81c-1.3,0-2.1,0.1-2.4,0.3c-0.3,0.2-0.7,0.9-1.3,2.1l-1.7,3.9c-0.8,1.8-1.2,3.1-1.2,3.9
				c0,0.8,0.2,1.4,0.6,1.8c0.4,0.4,1.2,0.7,2.4,0.9c0.5,0.1,0.8,0.3,0.8,0.6c0,0.3-0.2,0.4-0.7,0.4c-0.2,0-0.5,0-0.9,0l-2.5-0.1
				c-0.8,0-1.8-0.1-2.9-0.1c-0.5,0-0.9,0-1.2,0c-0.9,0.1-1.4,0.1-1.5,0.1c-0.5,0-0.7-0.2-0.7-0.5c0-0.3,0.1-0.5,0.4-0.6l1-0.3
				c0.3-0.1,0.8-0.5,1.4-1.3c0.6-0.7,1.1-1.5,1.5-2.3l0.8-1.7L86.5,5.4c0.2-0.5,0.5-0.8,0.8-0.8c0.3,0,0.5,0.3,0.7,0.8l11.3,28.8
				l0.6,1.4c0.8,2.1,1.5,3.4,2,3.9c0.5,0.5,1.6,0.9,3.3,1.2c0.5,0.1,0.8,0.3,0.8,0.6c0,0.3-0.3,0.4-0.7,0.4c-0.2,0-0.5,0-1-0.1
				c-0.9-0.1-2.5-0.1-4.8-0.1c-2.4,0-3.9,0.1-4.6,0.2c-0.4,0.1-0.6,0.1-0.8,0.1c-0.5,0-0.7-0.2-0.7-0.5c0-0.3,0.2-0.5,0.7-0.5
				l0.8-0.2c0.9-0.2,1.3-0.8,1.3-1.8c0-0.9-0.5-2.8-1.6-5.5l-1.3-3.5c-0.4-1-0.7-1.5-0.9-1.7C92.1,28,91.5,28,90.5,28z M90.8,23.8
				l-4.1-10.4l-0.2-0.5c-0.2-0.6-0.4-0.8-0.7-0.9c-0.1,0-0.3,0.1-0.4,0.5l-5.1,11.3c-0.2,0.5-0.3,0.8-0.3,1c0,0.5,0.4,0.7,1.2,0.7
				l0.7,0h7.9c0.9,0,1.3-0.2,1.3-0.7c0-0.1,0-0.3-0.1-0.6L90.8,23.8z"/>
		</g>
	</g>
</g>
</svg>
