<?xml version="1.0" encoding="utf-8"?>
<!-- Generator: Adobe Illustrator 21.0.2, SVG Export Plug-In . SVG Version: 6.00 Build 0)  -->
<svg version="1.1" id="Capa_1" xmlns="http://www.w3.org/2000/svg" xmlns:xlink="http://www.w3.org/1999/xlink" x="0px" y="0px"
	 viewBox="0 0 63.1 65.1" style="enable-background:new 0 0 63.1 65.1;" xml:space="preserve">
<style type="text/css">
	.st0{fill:#221F20;}
	.st1{fill:#FFFFFF;}
	.st2{opacity:0.1;}
	.st3{opacity:8.000000e-02;fill:#C7C8CA;}
	.st4{opacity:0.43;fill:none;stroke:#FFFFFF;stroke-width:1.9494;stroke-miterlimit:10;}
	.st5{opacity:0.1;fill-rule:evenodd;clip-rule:evenodd;fill:#FFFFFF;}
	.st6{fill:#0D1117;}
	.st7{fill:#20252C;}
	.st8{fill:#EB0029;}
	.st9{fill:none;stroke:#FFFFFF;stroke-width:0.7615;stroke-miterlimit:10;}
	.st10{fill:#666666;}
	.st11{opacity:0.29;}
	.st12{fill:url(#SVGID_3_);}
	.st13{clip-path:url(#SVGID_7_);}
	.st14{fill:#D0D1D2;}
	.st15{clip-path:url(#SVGID_9_);}
	.st16{clip-path:url(#SVGID_11_);}
	.st17{clip-path:url(#SVGID_11_);fill:none;}
	.st18{fill:#BB2829;}
	.st19{opacity:0.39;fill:#211F20;}
	.st20{fill:none;stroke:#FFFFFF;stroke-width:7.3691;stroke-miterlimit:10;}
	.st21{fill:#BD2F27;}
	.st22{opacity:0.48;fill:#38383A;}
	.st23{opacity:0.59;fill:#665940;}
	.st24{opacity:0.2;}
	.st25{fill:none;stroke:#C7C8CA;stroke-width:2;stroke-miterlimit:10;}
	.st26{fill:#C7C8CA;}
	.st27{fill:none;stroke:#FFFFFF;stroke-width:7.3432;stroke-miterlimit:10;}
	.st28{fill:none;stroke:#FFFFFF;stroke-width:7.9334;stroke-miterlimit:10;}
	.st29{fill:#B12E33;}
	.st30{fill:none;stroke:#191919;stroke-width:4;stroke-miterlimit:10;}
	.st31{fill:#353535;}
	.st32{fill:#232323;}
	.st33{fill:none;stroke:#232323;stroke-width:2;stroke-miterlimit:10;}
	.st34{fill:none;stroke:#312783;stroke-width:3;stroke-linecap:round;stroke-linejoin:round;stroke-miterlimit:10;}
	.st35{fill:none;stroke:#99999E;stroke-width:3;stroke-linecap:round;stroke-linejoin:round;stroke-miterlimit:10;}
	.st36{opacity:0.57;fill:#C7C8CA;}
	.st37{fill:#1A181B;fill-opacity:0.3;}
	.st38{opacity:0.8;fill:#BB2829;}
</style>
<g>
	<ellipse class="st1" cx="30.8" cy="31.9" rx="28.9" ry="29.8"/>
	<g>
		<path class="st8" d="M31.5,0C14.1,0,0,14.6,0,32.5c0,18,14.1,32.5,31.5,32.5S63,50.5,63,32.5C63,14.6,48.9,0,31.5,0z M41.5,50.6
			c-0.6-1.3-1-2.8-1.2-4.5c-2.2,1.9-4.3,3.3-6.4,4.1c-2,0.8-4.2,1.2-6.6,1.2c-3.9,0-6.8-1-8.9-2.9c-2.1-1.9-3.1-4.4-3.1-7.5
			c0-1.8,0.4-3.4,1.2-4.9c0.8-1.5,1.8-2.6,3.1-3.5c1.3-0.9,2.7-1.6,4.3-2c1.2-0.3,2.9-0.6,5.3-0.9c4.8-0.6,8.3-1.3,10.6-2.1
			c0-0.8,0-1.4,0-1.6c0-2.5-0.6-4.3-1.7-5.3c-1.5-1.4-3.8-2.1-6.8-2.1c-2.8,0-4.9,0.5-6.2,1.5c-1.3,1-2.3,2.8-3,5.4l-5.8-0.8
			c0.5-2.6,1.4-4.6,2.6-6.2c1.2-1.6,3-2.8,5.3-3.7c2.3-0.9,5-1.3,8-1.3c3,0,5.4,0.4,7.3,1.1c1.9,0.7,3.3,1.6,4.1,2.7
			c0.9,1.1,1.5,2.5,1.9,4.2c0.2,1,0.3,2.9,0.3,5.7v8.2c0,5.7,0.1,9.3,0.4,10.8c0.3,1.5,0.8,3,1.5,4.3H41.5z"/>
		<path class="st8" d="M24.8,36c-1,0.5-1.8,1.1-2.3,2c-0.6,0.9-0.8,1.8-0.8,2.9c0,1.6,0.6,3,1.8,4.1c1.2,1.1,3,1.6,5.3,1.6
			c2.3,0,4.3-0.5,6.1-1.6c1.8-1,3.1-2.5,3.9-4.2c0.6-1.4,1-3.4,1-6.1v-2.3c-2.2,0.9-5.4,1.7-9.7,2.3C27.6,35.1,25.9,35.6,24.8,36z"
			/>
	</g>
</g>
</svg>
