<?xml version="1.0" encoding="utf-8"?>
<!-- Generator: Adobe Illustrator 21.0.2, SVG Export Plug-In . SVG Version: 6.00 Build 0)  -->
<svg version="1.1" id="Capa_1" xmlns="http://www.w3.org/2000/svg" xmlns:xlink="http://www.w3.org/1999/xlink" x="0px" y="0px"
	 viewBox="0 0 63.1 65.1" style="enable-background:new 0 0 63.1 65.1;" xml:space="preserve">
<style type="text/css">
	.st0{fill:#221F20;}
	.st1{fill:#FFFFFF;}
	.st2{opacity:0.1;}
	.st3{opacity:8.000000e-02;fill:#C7C8CA;}
	.st4{opacity:0.43;fill:none;stroke:#FFFFFF;stroke-width:1.9494;stroke-miterlimit:10;}
	.st5{opacity:0.1;fill-rule:evenodd;clip-rule:evenodd;fill:#FFFFFF;}
	.st6{fill:#0D1117;}
	.st7{fill:#20252C;}
	.st8{fill:#EB0029;}
	.st9{fill:none;stroke:#FFFFFF;stroke-width:0.7615;stroke-miterlimit:10;}
	.st10{fill:#666666;}
	.st11{opacity:0.29;}
	.st12{fill:url(#SVGID_3_);}
	.st13{clip-path:url(#SVGID_7_);}
	.st14{fill:#D0D1D2;}
	.st15{clip-path:url(#SVGID_9_);}
	.st16{clip-path:url(#SVGID_11_);}
	.st17{clip-path:url(#SVGID_11_);fill:none;}
	.st18{fill:#BB2829;}
	.st19{opacity:0.39;fill:#211F20;}
	.st20{fill:none;stroke:#FFFFFF;stroke-width:7.3691;stroke-miterlimit:10;}
	.st21{fill:#BD2F27;}
	.st22{opacity:0.48;fill:#38383A;}
	.st23{opacity:0.59;fill:#665940;}
	.st24{opacity:0.2;}
	.st25{fill:none;stroke:#C7C8CA;stroke-width:2;stroke-miterlimit:10;}
	.st26{fill:#C7C8CA;}
	.st27{fill:none;stroke:#FFFFFF;stroke-width:7.3432;stroke-miterlimit:10;}
	.st28{fill:none;stroke:#FFFFFF;stroke-width:7.9334;stroke-miterlimit:10;}
	.st29{fill:#B12E33;}
	.st30{fill:none;stroke:#191919;stroke-width:4;stroke-miterlimit:10;}
	.st31{fill:#353535;}
	.st32{fill:#232323;}
	.st33{fill:none;stroke:#232323;stroke-width:2;stroke-miterlimit:10;}
	.st34{fill:none;stroke:#312783;stroke-width:3;stroke-linecap:round;stroke-linejoin:round;stroke-miterlimit:10;}
	.st35{fill:none;stroke:#99999E;stroke-width:3;stroke-linecap:round;stroke-linejoin:round;stroke-miterlimit:10;}
	.st36{opacity:0.57;fill:#C7C8CA;}
	.st37{fill:#1A181B;fill-opacity:0.3;}
	.st38{opacity:0.8;fill:#BB2829;}
</style>
<g>
	<ellipse class="st1" cx="30.8" cy="31.9" rx="25.5" ry="26.3"/>
	<g>
		<path class="st8" d="M63.1,32.5c0.2,17.8-14.3,32.5-31.5,32.5C14.3,65.1,0,50.3,0,32.5C0,14.7,14.3,0,31.6,0
			C48.8,0,63.2,14.7,63.1,32.5z M34.2,43c0-2.9,0-5.7,0-8.6c0-0.8,0-0.8,0.8-0.8c1.3,0,2.6,0,3.9,0c0.3,0,0.5,0,0.5-0.4
			c0.2-1.9,0.3-3.7,0.5-5.5c0.1-0.5-0.1-0.5-0.5-0.5c-1.5,0-3.1,0-4.6,0c-0.4,0-0.6-0.1-0.6-0.6c0-1.1,0-2.2,0-3.3
			c0-1.4,0.6-2,1.9-2c1.1,0,2.1,0,3.2,0c0.4,0,0.6-0.1,0.5-0.5c0-1.7,0-3.4,0-5.2c0-0.5-0.2-0.6-0.6-0.6c-0.9,0-1.8,0-2.7,0
			c-1.5-0.1-3-0.1-4.5,0.2c-3.3,0.8-5,3.4-5.2,6.6c-0.1,1.6-0.1,3.2-0.1,4.7c0,0.5-0.2,0.6-0.6,0.6c-0.8,0-1.7,0-2.5,0
			c-0.3,0-0.5,0.1-0.5,0.5c0,1.8,0,3.7,0,5.5c0,0.4,0.2,0.5,0.5,0.5c0.8,0,1.5,0,2.3,0c0.8,0,0.8,0,0.8,0.9c0,5.7,0,11.5,0,17.2
			c0,0.8,0,0.8,0.8,0.8c2,0,4,0,6,0c0.5,0,0.7-0.1,0.7-0.7C34.2,48.8,34.2,45.9,34.2,43z"/>
	</g>
</g>
</svg>
