<?xml version="1.0" encoding="utf-8"?>
<!-- Generator: Adobe Illustrator 21.0.2, SVG Export Plug-In . SVG Version: 6.00 Build 0)  -->
<svg version="1.1" id="Capa_1" xmlns="http://www.w3.org/2000/svg" xmlns:xlink="http://www.w3.org/1999/xlink" x="0px" y="0px"
	 viewBox="0 0 63.1 65.1" style="enable-background:new 0 0 63.1 65.1;" xml:space="preserve">
<style type="text/css">
	.st0{fill:#221F20;}
	.st1{fill:#FFFFFF;}
	.st2{opacity:0.1;}
	.st3{opacity:8.000000e-02;fill:#C7C8CA;}
	.st4{opacity:0.43;fill:none;stroke:#FFFFFF;stroke-width:1.9494;stroke-miterlimit:10;}
	.st5{opacity:0.1;fill-rule:evenodd;clip-rule:evenodd;fill:#FFFFFF;}
	.st6{fill:#0D1117;}
	.st7{fill:#20252C;}
	.st8{fill:#EB0029;}
	.st9{fill:none;stroke:#FFFFFF;stroke-width:0.7615;stroke-miterlimit:10;}
	.st10{fill:#666666;}
	.st11{opacity:0.29;}
	.st12{fill:url(#SVGID_3_);}
	.st13{clip-path:url(#SVGID_7_);}
	.st14{fill:#D0D1D2;}
	.st15{clip-path:url(#SVGID_9_);}
	.st16{clip-path:url(#SVGID_11_);}
	.st17{clip-path:url(#SVGID_11_);fill:none;}
	.st18{fill:#BB2829;}
	.st19{opacity:0.39;fill:#211F20;}
	.st20{fill:none;stroke:#FFFFFF;stroke-width:7.3691;stroke-miterlimit:10;}
	.st21{fill:#BD2F27;}
	.st22{opacity:0.48;fill:#38383A;}
	.st23{opacity:0.59;fill:#665940;}
	.st24{opacity:0.2;}
	.st25{fill:none;stroke:#C7C8CA;stroke-width:2;stroke-miterlimit:10;}
	.st26{fill:#C7C8CA;}
	.st27{fill:none;stroke:#FFFFFF;stroke-width:7.3432;stroke-miterlimit:10;}
	.st28{fill:none;stroke:#FFFFFF;stroke-width:7.9334;stroke-miterlimit:10;}
	.st29{fill:#B12E33;}
	.st30{fill:none;stroke:#191919;stroke-width:4;stroke-miterlimit:10;}
	.st31{fill:#353535;}
	.st32{fill:#232323;}
	.st33{fill:none;stroke:#232323;stroke-width:2;stroke-miterlimit:10;}
	.st34{fill:none;stroke:#312783;stroke-width:3;stroke-linecap:round;stroke-linejoin:round;stroke-miterlimit:10;}
	.st35{fill:none;stroke:#99999E;stroke-width:3;stroke-linecap:round;stroke-linejoin:round;stroke-miterlimit:10;}
	.st36{opacity:0.57;fill:#C7C8CA;}
	.st37{fill:#1A181B;fill-opacity:0.3;}
	.st38{opacity:0.8;fill:#BB2829;}
</style>
<g>
	<ellipse class="st1" cx="30.6" cy="31.9" rx="28.9" ry="29.8"/>
	<path class="st8" d="M31.5,0C14.1,0,0,14.6,0,32.5s14.1,32.5,31.6,32.5c17.4,0,31.6-14.6,31.6-32.5S49,0,31.5,0z M5.8,36.4
		c-0.1,0.8-0.3,1.7-0.4,2.5c0,0.2-0.1,0.3-0.2,0.3c-0.1,0-0.2-0.1-0.2-0.3c-0.1-0.5-0.1-1.1-0.2-1.6c-0.1-0.4-0.1-0.8-0.2-1.2
		c0,0,0-0.1,0-0.2c0-0.3,0.1-0.6,0.1-0.9c0.1-0.7,0.2-1.3,0.3-2c0,0,0-0.1,0-0.1c0-0.1,0.1-0.2,0.2-0.2c0.1,0,0.2,0.1,0.2,0.2
		c0,0.2,0.1,0.4,0.1,0.6c0.1,0.8,0.2,1.6,0.4,2.3C5.9,36,5.9,36.2,5.8,36.4z M7.9,36.8c-0.1,0.7-0.2,1.4-0.3,2.1
		c-0.1,0.6-0.1,1.2-0.2,1.8c0,0.2-0.1,0.3-0.2,0.3C7.1,41,7,40.9,7,40.8c-0.1-0.4-0.1-0.9-0.1-1.3c-0.1-0.6-0.1-1.3-0.2-1.9
		c-0.1-0.5-0.1-1.1-0.2-1.6c0-0.3,0-0.5,0.1-0.8c0.1-0.6,0.1-1.2,0.2-1.7c0.1-0.6,0.1-1.2,0.2-1.7c0-0.2,0-0.5,0.1-0.7
		c0-0.2,0.1-0.3,0.2-0.3c0.1,0,0.2,0.1,0.2,0.3c0.1,0.8,0.2,1.5,0.3,2.3C7.8,34,7.9,34.8,8,35.6c0,0.1,0,0.2,0,0.4
		C8,36.2,8,36.5,7.9,36.8z M10.1,37.1c-0.1,0.5-0.1,1.1-0.2,1.6c-0.1,0.6-0.1,1.2-0.2,1.8c0,0.4-0.1,0.7-0.1,1.1
		c0,0.2-0.1,0.3-0.3,0.3c-0.2,0-0.3-0.1-0.3-0.3C9,40.7,8.9,39.8,8.8,39c-0.1-0.9-0.1-1.7-0.2-2.6c0-0.4,0-0.8,0-1.2
		c0-0.4,0.1-0.9,0.1-1.3c0-0.5,0.1-1.1,0.1-1.6c0-0.5,0.1-1,0.1-1.6C9,30.4,9,30.2,9,30c0-0.2,0.1-0.3,0.3-0.3
		c0.2,0,0.3,0.1,0.3,0.3c0.1,0.9,0.2,1.7,0.2,2.6c0.1,1.1,0.2,2.1,0.3,3.2c0,0.1,0,0.1,0,0.2C10.1,36.3,10.1,36.7,10.1,37.1z
		 M12.2,37.1c0,0.5-0.1,1-0.1,1.5c-0.1,0.6-0.1,1.2-0.2,1.8c0,0.5-0.1,0.9-0.1,1.4c0,0.2-0.1,0.4-0.3,0.4c-0.2,0-0.3-0.1-0.3-0.3
		c0-0.4-0.1-0.7-0.1-1.1c0-0.6-0.1-1.1-0.1-1.7c0-0.4-0.1-0.9-0.1-1.3c0-0.6-0.1-1.1-0.1-1.7c0-0.3,0-0.5,0-0.8c0-0.5,0.1-1,0.1-1.4
		c0-0.6,0.1-1.2,0.1-1.7c0-0.5,0.1-0.9,0.1-1.4c0-0.2,0-0.5,0.1-0.7c0,0,0-0.1,0-0.1c0-0.2,0.2-0.3,0.3-0.3c0.2,0,0.3,0.1,0.3,0.3
		c0,0.4,0.1,0.7,0.1,1.1c0.1,0.6,0.1,1.2,0.2,1.8c0,0.5,0.1,1,0.1,1.5c0,0.5,0.1,1,0.1,1.6c0,0,0,0.1,0,0.1
		C12.3,36.3,12.3,36.7,12.2,37.1z M14.3,37.6c0,0.4-0.1,0.8-0.1,1.3c0,0.5-0.1,1.1-0.1,1.6c0,0.4-0.1,0.8-0.1,1.2c0,0.1,0,0.1,0,0.2
		c0,0.2-0.2,0.3-0.4,0.3c-0.2,0-0.3-0.1-0.3-0.3c0-0.3-0.1-0.6-0.1-0.8c0-0.6-0.1-1.2-0.1-1.8c0-0.5-0.1-1-0.1-1.4
		c0-0.6-0.1-1.2-0.1-1.8c0-0.3,0-0.5,0-0.8c0-0.5,0.1-0.9,0.1-1.4c0-0.6,0.1-1.2,0.1-1.7c0-0.5,0.1-0.9,0.1-1.4c0-0.2,0-0.4,0-0.5
		c0-0.2,0.2-0.3,0.4-0.3c0.2,0,0.3,0.1,0.4,0.3c0,0.2,0.1,0.4,0.1,0.7c0.1,0.7,0.1,1.4,0.2,2.1c0.1,0.6,0.1,1.2,0.2,1.8
		c0,0.4,0.1,0.7,0.1,1.1c0,0,0,0.1,0,0.1C14.4,36.5,14.4,37.1,14.3,37.6z M16.6,36.8c0,0.5-0.1,0.9-0.1,1.4c0,0.6-0.1,1.2-0.1,1.7
		c0,0.4-0.1,0.9-0.1,1.3c0,0.2,0,0.4-0.1,0.6c0,0.2-0.2,0.4-0.4,0.4c-0.2,0-0.4-0.1-0.4-0.3c0-0.3-0.1-0.5-0.1-0.8
		c-0.1-0.8-0.1-1.6-0.2-2.3c0-0.5-0.1-1-0.1-1.6c0-0.4-0.1-0.8-0.1-1.2c0-0.1,0-0.1,0-0.2c0,0,0,0,0,0c0-0.8,0.1-1.6,0.1-2.4
		c0-0.4,0-0.8,0.1-1.1c0-0.9,0.1-1.7,0.1-2.6c0-0.4,0-0.8,0.1-1.2c0-0.6,0-1.1,0.1-1.7c0-0.3,0.2-0.5,0.4-0.4c0.2,0,0.4,0.2,0.4,0.5
		c0,0.8,0.1,1.6,0.1,2.4c0,0.8,0.1,1.6,0.1,2.3c0,1,0.1,1.9,0.1,2.9c0,0.5,0.1,1,0.1,1.5C16.7,36.2,16.6,36.5,16.6,36.8z M18.9,36
		c0,0.6-0.1,1.2-0.1,1.8c0,0.5-0.1,0.9-0.1,1.4c0,0.6-0.1,1.2-0.1,1.9c0,0.2,0,0.5-0.1,0.7c0,0.3-0.2,0.4-0.5,0.4
		c-0.2,0-0.4-0.2-0.5-0.4c0-0.4-0.1-0.9-0.1-1.3c0-0.6-0.1-1.1-0.1-1.7c0-0.4-0.1-0.7-0.1-1.1c0-0.6-0.1-1.1-0.1-1.7
		c0-0.1,0-0.2,0-0.2c0-1.1,0.1-2.2,0.1-3.3c0-0.7,0-1.3,0.1-2c0-1,0.1-2,0.1-2.9c0-0.7,0-1.3,0.1-2c0-0.3,0-0.6,0-1
		c0-0.3,0.2-0.4,0.5-0.4c0.2,0,0.4,0.2,0.5,0.5c0,0.3,0,0.6,0,0.8c0,0.5,0,1.1,0.1,1.6c0,0.8,0.1,1.7,0.1,2.5c0,0.6,0,1.2,0.1,1.8
		c0,0.8,0.1,1.7,0.1,2.5C18.8,34.6,18.9,35.3,18.9,36z M21,37.1c0,0.4-0.1,0.8-0.1,1.2c0,0.7-0.1,1.3-0.1,2c0,0.5-0.1,1-0.1,1.4
		c0,0.3-0.2,0.5-0.5,0.5c-0.3,0-0.5-0.2-0.5-0.5c0-0.6-0.1-1.3-0.1-1.9c-0.1-0.9-0.1-1.8-0.2-2.7c0-0.4-0.1-0.9-0.1-1.2
		c0-1.1,0.1-2,0.1-3c0-0.5,0-1,0-1.4c0-0.9,0.1-1.7,0.1-2.6c0-0.8,0-1.6,0.1-2.3c0-0.8,0.1-1.7,0.1-2.5c0-0.1,0-0.2,0-0.3
		c0-0.3,0.3-0.5,0.5-0.5c0.3,0,0.5,0.2,0.5,0.5c0,0.3,0,0.7,0,1c0,0.6,0,1.3,0.1,1.9c0,1,0.1,2,0.1,2.9c0,0.7,0,1.4,0.1,2.1
		c0,1,0.1,2,0.1,2.9c0,0.3,0,0.7,0,1C21.1,36.2,21,36.6,21,37.1z M23.2,37.4c0,0.4-0.1,0.8-0.1,1.2c0,0.6-0.1,1.2-0.1,1.8
		c0,0.4-0.1,0.8-0.1,1.3c0,0.1,0,0.2-0.1,0.3c-0.1,0.2-0.3,0.3-0.6,0.3c-0.2,0-0.4-0.2-0.4-0.5c0-0.2,0-0.4,0-0.6
		c0-0.6-0.1-1.3-0.1-1.9c-0.1-0.9-0.1-1.8-0.2-2.7c0-0.3-0.1-0.6,0-0.9c0-1.2,0.1-2.2,0.1-3.3c0-0.5,0-1,0-1.5c0-1,0.1-2,0.1-3
		c0-0.6,0-1.1,0-1.7c0-0.9,0-1.9,0.1-2.8c0-0.1,0-0.2,0-0.2c0.1-0.3,0.3-0.4,0.5-0.4c0.3,0,0.5,0.2,0.5,0.4c0,0.1,0,0.1,0,0.2
		c0,0.7,0,1.3,0.1,2c0,1.1,0.1,2.2,0.1,3.3c0,0.5,0,1,0,1.5c0,1.1,0.1,2.2,0.1,3.3c0,0.5,0,1,0,1.5c0,0.2,0,0.5,0,0.7
		C23.3,36.3,23.3,36.8,23.2,37.4z M25.5,37.5c0,0.4-0.1,0.9-0.1,1.3c0,0.6-0.1,1.3-0.1,1.9c0,0.3,0,0.6-0.1,0.9
		c0,0.4-0.3,0.7-0.6,0.7c-0.3,0-0.6-0.3-0.6-0.7c0-0.7-0.1-1.3-0.1-2c0-0.5-0.1-1-0.1-1.5c0-0.7-0.1-1.4-0.1-2c0-0.4,0-0.9,0-1.3
		c0-0.4,0-0.8,0-1.1c0-0.5,0-1,0-1.5c0-1,0.1-2.1,0.1-3.1c0-0.6,0-1.1,0-1.7c0-1,0.1-2.1,0.1-3.1c0-0.2,0-0.3,0-0.5
		c0-0.3,0.3-0.6,0.6-0.6c0.3,0,0.6,0.2,0.6,0.6c0,0.2,0,0.3,0,0.5c0,0.8,0,1.5,0.1,2.3c0,0.9,0,1.8,0.1,2.6c0,0.6,0,1.1,0,1.7
		c0,0.9,0,1.8,0.1,2.6c0,0.6,0,1.1,0,1.7c0,0.2,0,0.5,0,0.7C25.6,36.3,25.5,36.9,25.5,37.5z M27.8,37.5c0,0.3,0,0.6-0.1,1
		c0,0.7-0.1,1.4-0.1,2.1c0,0.3,0,0.7-0.1,1c0,0.3-0.2,0.6-0.6,0.7c-0.3,0.1-0.6-0.1-0.7-0.4c0-0.1,0-0.2-0.1-0.2
		c0-0.5-0.1-1-0.1-1.5c0-0.8-0.1-1.5-0.1-2.3c0-0.3,0-0.7-0.1-1c0-0.5,0-1.1,0-1.6c0-1.1,0.1-2.2,0.1-3.3c0-0.6,0-1.3,0-1.9
		c0-0.7,0-1.4,0.1-2.2c0-0.7,0-1.3,0-2c0-0.6,0-1.2,0-1.8c0-0.4,0.3-0.7,0.7-0.7c0.4,0,0.6,0.3,0.6,0.7c0,0.7,0,1.4,0.1,2.1
		c0,0.6,0,1.2,0,1.8c0,0.9,0,1.8,0.1,2.7c0,0.6,0,1.2,0,1.8c0,0.9,0,1.8,0.1,2.8c0,0.2,0,0.3,0,0.5C27.8,36.3,27.8,36.9,27.8,37.5z
		 M30.1,36c0,0.8-0.1,1.6-0.1,2.4c0,0.3,0,0.7-0.1,1c0,0.7-0.1,1.4-0.1,2.2c0,0.3-0.2,0.5-0.4,0.7c-0.2,0.1-0.5,0.1-0.7-0.1
		c-0.2-0.1-0.3-0.3-0.3-0.6c0-0.8-0.1-1.6-0.1-2.4c0-0.7-0.1-1.4-0.1-2.2c0-0.5-0.1-1,0-1.5c0,0,0,0,0,0c0-0.7,0-1.4,0-2.1
		c0-0.8,0-1.6,0-2.4c0-1,0-1.9,0.1-2.9c0-0.8,0-1.7,0-2.5c0-0.9,0-1.9,0.1-2.8c0-0.3,0-0.6,0-0.8c0-0.4,0.3-0.8,0.7-0.8
		c0.4,0,0.7,0.3,0.7,0.7c0,0.4,0,0.7,0,1.1c0,0.7,0,1.4,0,2.1c0,0.8,0,1.6,0.1,2.4c0,0.8,0,1.6,0,2.3c0,0.8,0,1.6,0,2.4
		c0,0.8,0,1.6,0,2.3C30.1,35.1,30.1,35.5,30.1,36z M32.4,37.5c0,0.3,0,0.6-0.1,0.9c0,0.8-0.1,1.7-0.1,2.5c0,0.2,0,0.5-0.1,0.7
		c-0.1,0.4-0.4,0.6-0.7,0.6c-0.4,0-0.7-0.3-0.7-0.7c0-0.6-0.1-1.2-0.1-1.8c-0.1-1-0.1-1.9-0.2-2.9c0-0.8,0-1.6,0-2.4
		c0,0,0-0.1,0-0.1c0-0.7,0-1.5,0-2.2c0-0.8,0-1.7,0-2.5c0-0.8,0-1.7,0-2.5c0-0.8,0-1.7,0-2.5c0-0.8,0-1.7,0.1-2.5c0-0.5,0-1,0-1.5
		c0-0.4,0.3-0.7,0.7-0.7c0.4,0,0.7,0.3,0.7,0.8c0,0.3,0,0.5,0,0.8c0,0.7,0,1.3,0,2c0,0.8,0,1.6,0.1,2.4c0,0.7,0,1.5,0,2.2
		c0,1.2,0.1,2.4,0.1,3.5c0,0.8,0,1.5,0,2.3c0,0.6,0,1.2,0,1.9C32.5,36.3,32.4,36.9,32.4,37.5z M52.9,42.2c-0.4,0.1-0.8,0.1-1.2,0.1
		c-3.5,0-7,0-10.6,0c-2.5,0-5,0-7.5,0c-0.5,0-0.8-0.3-0.8-0.9c0-3.6,0-7.2,0-10.8c0-3.6,0-7.2,0-10.8c0-0.4,0.2-0.6,0.5-0.8
		c0.1-0.1,0.3-0.1,0.4-0.2c0.9-0.3,1.9-0.6,2.9-0.7c2.3-0.2,4.5,0.2,6.5,1.3c2.5,1.4,4.3,3.4,5.3,6.1c0.4,1,0.7,2.1,0.8,3.2
		c0,0.3,0,0.3,0.3,0.2c0.9-0.3,1.8-0.5,2.8-0.4c1.7,0.1,3.1,0.9,4.3,2.1c0.9,1,1.5,2.2,1.7,3.6c0.3,2-0.2,3.9-1.5,5.4
		C55.8,41.2,54.5,41.9,52.9,42.2z"/>
</g>
</svg>
