<svg id="Capa_1" data-name="Capa 1" xmlns="http://www.w3.org/2000/svg" viewBox="0 0 179.48 183.52"><defs><style>.cls-1{fill:#fff;}.cls-2{fill:#20252c;}</style></defs><title>una_desing</title><ellipse class="cls-1" cx="87.66" cy="89.92" rx="81.49" ry="84.02"/><path class="cls-2" d="M89.74,0C40.59,0,.75,41.08.75,91.76s39.84,91.76,89,91.76,89-41.08,89-91.76S138.89,0,89.74,0Zm28.09,142.85a37.56,37.56,0,0,1-3.36-12.61q-9.34,8.18-18,11.55A50.53,50.53,0,0,1,78,145.16q-16.33,0-25.11-8.23t-8.77-21a28.64,28.64,0,0,1,3.31-13.71,28,28,0,0,1,8.68-10,40.22,40.22,0,0,1,12.09-5.68A116.66,116.66,0,0,1,83.12,84q20.34-2.5,30-6,.09-3.56.09-4.52,0-10.58-4.76-14.91Q102,52.69,89.27,52.69q-11.85,0-17.5,4.28T63.42,72.13L47,69.82q2.24-10.87,7.37-17.56T69.21,42A64.35,64.35,0,0,1,91.7,38.35q12.69,0,20.63,3.08T124,49.18A27.67,27.67,0,0,1,129.22,61q.84,4.43.84,16V100q0,24.15,1.07,30.55a39.28,39.28,0,0,0,4.25,12.27Z"/><path class="cls-2" d="M71,101.57a14.72,14.72,0,0,0-6.63,5.63A15.12,15.12,0,0,0,62,115.43,14.94,14.94,0,0,0,67.11,127Q72.19,131.6,82,131.6a33.82,33.82,0,0,0,17.27-4.38,26.63,26.63,0,0,0,11.11-12q2.71-5.87,2.71-17.32V91.57q-9.15,3.85-27.44,6.54Q75.27,99.65,71,101.57Z"/></svg>