<svg id="Capa_1" data-name="Capa 1" xmlns="http://www.w3.org/2000/svg" viewBox="0 0 179.48 183.52"><defs><style>.cls-1{fill:#fff;}.cls-2{fill:#20252c;}</style></defs><title>una_desing</title><ellipse class="cls-1" cx="90.92" cy="90.37" rx="81.49" ry="84.02"/><path class="cls-2" d="M.53,99.22V84.28c.08-.47.18-.93.22-1.4A88.11,88.11,0,0,1,11.49,47.53C27.13,19.88,50.38,4.1,81.37.88a82,82,0,0,1,38.27,5.3c36.7,14.09,61,52,57.37,93.55a92.19,92.19,0,0,1-10.51,35.79c-17.95,33.7-55,53.59-93.31,45.89-35.18-7.06-58.12-29-69.3-64.09C2,111.45,1.26,105.33.53,99.22Zm88.31,44h0q14.83,0,29.66,0a24,24,0,0,0,4.29-.24c9.54-1.77,16-9.57,16-19.56.05-21.16,0-42.32,0-63.48a18.44,18.44,0,0,0-.21-3.18c-1.75-9.91-9.32-16.53-19.12-16.56-20.41-.05-40.81,0-61.22,0a18.16,18.16,0,0,0-3.26.21c-9.6,1.77-16.07,9.6-16.09,19.67q-.07,31.65,0,63.3a19.06,19.06,0,0,0,.23,3.36c1.78,9.86,9.27,16.39,19,16.46C68.38,143.32,78.61,143.26,88.84,143.26Z"/><path class="cls-2" d="M88.77,133.73H60.14a17.42,17.42,0,0,1-4.62-.48C50.79,132,48.15,128,48.14,122c0-11.62,0-23.24,0-34.86,0-1.48,0-3,0-4.45,0-1.27.51-1.78,1.77-1.76,3.91.05,7.82.07,11.73,0,1.57,0,1.85.49,1.39,2a28.33,28.33,0,0,0,2.58,23.43,26.94,26.94,0,0,0,28.79,12.94c11-2.3,19.6-11.65,21.34-23.14a28.59,28.59,0,0,0-1-13.16c-.63-2-.59-2,1.33-2,3.85,0,7.71,0,11.56,0,1.4,0,2,.48,2,1.93,0,13.28.07,26.56-.07,39.84-.06,5.64-2.81,9.33-7.32,10.56a17.41,17.41,0,0,1-4.62.48Z"/><path class="cls-2" d="M106.66,91c.77,8.89-6.76,18-15.4,19-11,1.31-19.14-7.28-20.1-15.87-1.24-11.12,6.6-19.65,15.57-20.7C97.91,72.17,106.47,81.24,106.66,91Z"/><path class="cls-2" d="M127.63,60.76c0,2.37,0,4.73,0,7.1,0,1.26-.4,1.87-1.67,1.87q-7.06,0-14.11,0c-1.19,0-1.64-.59-1.64-1.74,0-4.85,0-9.7,0-14.55,0-1.32.59-1.73,1.8-1.72q7,.05,13.94,0c1.25,0,1.76.44,1.72,1.75C127.59,55.91,127.63,58.34,127.63,60.76Z"/></svg>