<svg id="Capa_1" data-name="Capa 1" xmlns="http://www.w3.org/2000/svg" viewBox="0 0 179.48 183.52"><defs><style>.cls-1{fill:#fff;}.cls-2{fill:#20252c;}</style></defs><title>una_desing</title><ellipse class="cls-1" cx="87.2" cy="89.91" rx="81.49" ry="84.02"/><path class="cls-2" d="M89.74,0C40.59,0,.74,41.08.74,91.76s39.85,91.76,89,91.76,89-41.08,89-91.76S138.9,0,89.74,0ZM17.28,102.61c-.36,2.37-.73,4.75-1.1,7.12-.07.48-.31.73-.66.73s-.57-.24-.64-.71c-.21-1.52-.41-3-.61-4.57l-.46-3.52c0-.13,0-.26,0-.43l.33-2.56.73-5.7c0-.14,0-.28.07-.42a.63.63,0,0,1,1.27,0c.1.61.19,1.21.29,1.82.33,2.2.66,4.4,1,6.6A5.42,5.42,0,0,1,17.28,102.61Zm5.91,1.28q-.36,2.94-.73,5.88c-.21,1.73-.42,3.45-.64,5.18-.06.45-.33.73-.67.73s-.62-.25-.67-.72c-.15-1.21-.27-2.42-.41-3.63l-.59-5.4c-.17-1.53-.38-3.06-.48-4.59a13.81,13.81,0,0,1,.21-2.26q.26-2.44.52-4.87l.52-4.87c.07-.69.14-1.39.23-2.08.06-.47.32-.72.68-.71a.74.74,0,0,1,.67.74c.26,2.15.51,4.3.77,6.45s.53,4.37.8,6.56c0,.33.07.66.11,1Q23.35,102.59,23.19,103.89Zm6,.7q-.22,2.24-.45,4.49l-.52,5.19-.3,3c-.06.56-.35.9-.79.9s-.78-.34-.83-.91c-.21-2.45-.42-4.91-.64-7.36s-.42-4.93-.68-7.39a18.47,18.47,0,0,1,.09-3.37c.1-1.23.21-2.45.32-3.68q.2-2.3.4-4.6t.37-4.39c0-.59.09-1.18.15-1.77s.36-.88.82-.88.75.33.8.89q.35,3.61.7,7.21.44,4.47.88,8.94c0,.14,0,.28,0,.51C29.41,102.38,29.3,103.49,29.19,104.59Zm6.08.06q-.19,2.07-.39,4.14l-.46,5-.36,4c-.06.62-.4,1-.91,1a.92.92,0,0,1-.94-.93c-.11-1-.18-2-.26-3q-.2-2.39-.39-4.78c-.1-1.25-.2-2.5-.3-3.75-.13-1.59-.27-3.18-.38-4.78A16.52,16.52,0,0,1,31,99.27c.09-1.36.21-2.71.32-4.07q.2-2.46.39-4.92.15-1.95.3-3.9c.05-.7.1-1.39.16-2.09a2.25,2.25,0,0,1,0-.28,1,1,0,0,1,.95-.82,1,1,0,0,1,.88.9c.1,1,.19,2.05.28,3.08q.23,2.6.47,5.2.18,2.05.36,4.1l.39,4.42c0,.12,0,.24,0,.37C35.48,102.39,35.38,103.52,35.27,104.65Zm6,1.5-.3,3.54-.39,4.53c-.1,1.17-.2,2.34-.3,3.5a3.42,3.42,0,0,1-.07.49,1.06,1.06,0,0,1-1.05.85,1,1,0,0,1-1-.93c-.09-.79-.15-1.58-.21-2.37q-.2-2.6-.4-5.21c-.1-1.35-.2-2.69-.3-4-.13-1.68-.27-3.35-.38-5A15.66,15.66,0,0,1,37,99.37c.09-1.31.21-2.62.31-3.93q.2-2.44.39-4.89c.1-1.27.2-2.55.3-3.82,0-.5.07-1,.14-1.48a1,1,0,0,1,1-.94,1,1,0,0,1,1,.87c.1.61.14,1.22.2,1.83q.27,3,.54,5.94c.15,1.66.29,3.33.44,5l.28,3.15c0,.08,0,.17,0,.33Zm6.37-2.23c-.1,1.29-.21,2.57-.32,3.86q-.2,2.44-.4,4.89-.15,1.84-.29,3.68c0,.58-.09,1.16-.15,1.73a1.25,1.25,0,0,1-1.11,1.13,1.14,1.14,0,0,1-1.19-1c-.12-.73-.15-1.48-.2-2.23q-.24-3.31-.47-6.63c-.1-1.46-.19-2.93-.3-4.4-.08-1.11-.17-2.22-.25-3.33,0-.19,0-.38,0-.57h0q.17-3.39.33-6.78c.05-1.07.1-2.13.15-3.2q.17-3.67.34-7.35c.05-1.17.1-2.34.15-3.52.07-1.6.14-3.2.22-4.79a1.25,1.25,0,0,1,1.21-1.26,1.27,1.27,0,0,1,1.17,1.3q.17,3.37.35,6.74l.34,6.57q.21,4,.42,8.06c.08,1.44.21,2.88.23,4.33C47.84,102.1,47.7,103,47.63,103.92ZM54,101.69c-.07,1.73-.25,3.45-.38,5.17-.1,1.31-.19,2.62-.29,3.93q-.2,2.62-.4,5.24c0,.65-.09,1.3-.15,1.95a1.3,1.3,0,0,1-1.31,1.24A1.28,1.28,0,0,1,50.17,118c-.11-1.25-.18-2.5-.27-3.76q-.17-2.41-.33-4.82c-.07-1.05-.15-2.1-.21-3.16q-.15-2.41-.3-4.82c0-.22,0-.45,0-.68q.15-4.58.3-9.17c.06-1.86.13-3.72.2-5.58q.14-4.14.29-8.28.1-2.82.2-5.65c0-.9.06-1.8.13-2.7a1.31,1.31,0,0,1,1.3-1.23,1.34,1.34,0,0,1,1.3,1.28c.05.79.09,1.58.12,2.38.06,1.54.1,3.08.16,4.62q.13,3.53.28,7.07l.21,5.19q.14,3.53.28,7.07C53.89,97.73,54.07,99.71,54,101.69Zm6.06,3c-.06,1.12-.16,2.24-.24,3.37q-.2,2.78-.4,5.56-.15,2-.29,4.08a1.51,1.51,0,0,1-1.44,1.51,1.47,1.47,0,0,1-1.43-1.48c-.12-1.82-.23-3.64-.35-5.46-.16-2.58-.32-5.15-.49-7.73-.08-1.26-.2-2.53-.2-3.45.08-3,.16-5.68.23-8.34,0-1.36.09-2.72.13-4.09q.11-3.68.22-7.36.1-3.31.2-6.61.11-3.59.21-7.18c0-.27,0-.54.05-.82a1.47,1.47,0,0,1,1.47-1.32,1.5,1.5,0,0,1,1.4,1.45c0,1,.09,1.94.12,2.91.06,1.82.1,3.65.16,5.47q.13,4.16.28,8.32.1,3,.2,6,.14,4.16.28,8.32c0,1,.09,1.92.12,2.88C60.31,102,60.12,103.36,60,104.69Zm6.26.7c-.07,1.15-.15,2.29-.22,3.44-.11,1.65-.22,3.31-.33,5q-.12,1.79-.22,3.58a2.46,2.46,0,0,1-.2,1,1.54,1.54,0,0,1-2.93-.46c-.07-.55-.1-1.11-.13-1.66-.1-1.79-.19-3.57-.3-5.36-.15-2.51-.32-5-.46-7.52a23.14,23.14,0,0,1-.1-2.52c.08-3.26.16-6.31.23-9.35,0-1.46.08-2.91.12-4.37q.11-4.21.22-8.42.06-2.38.13-4.76.11-4,.22-8a3.14,3.14,0,0,1,.09-.67,1.55,1.55,0,0,1,3,0,2.38,2.38,0,0,1,.08.53c.05,1.9.1,3.79.15,5.69q.14,4.66.28,9.31.07,2.19.13,4.37c.09,3.12.18,6.23.28,9.35,0,1.46.11,2.91.13,4.37,0,.64.06,1.28.06,1.92C66.58,102.35,66.4,103.87,66.31,105.39Zm6.35.38-.22,3.62q-.17,2.71-.34,5.43c-.05.85-.11,1.7-.15,2.55a1.72,1.72,0,1,1-3.43,0c-.09-1.89-.21-3.78-.32-5.68-.08-1.44-.15-2.89-.23-4.33-.11-1.93-.25-3.85-.31-5.78,0-1.22,0-2.44.07-3.66s0-2.16.09-3.23c.07-1.38.06-2.77.09-4.16q.1-4.43.22-8.85c0-1.59.09-3.17.13-4.76q.11-4.41.22-8.81c0-.49,0-1,.05-1.46a1.71,1.71,0,1,1,3.41,0c0,.48,0,1,.06,1.46.06,2.18.1,4.36.16,6.54.07,2.48.13,5,.21,7.43.05,1.55.1,3.1.14,4.66q.08,3.71.21,7.43c.05,1.56.11,3.13.14,4.69,0,.64.06,1.28.06,1.92C72.91,102.39,72.76,104.08,72.66,105.77Zm6.42,0q-.08,1.37-.15,2.73-.17,3-.34,6c-.05,1-.1,2-.15,2.95a1.88,1.88,0,0,1-1.58,1.84,1.81,1.81,0,0,1-2-1.13,2.06,2.06,0,0,1-.15-.69c-.08-1.44-.14-2.89-.22-4.33q-.16-3.21-.33-6.42c0-1-.09-1.94-.15-2.91-.09-1.49-.1-3-.07-4.48q.11-4.59.22-9.17.06-2.67.13-5.33.07-3.06.14-6.11.07-2.75.13-5.51c0-1.73.08-3.46.13-5.19a1.85,1.85,0,1,1,3.69,0c0,2,.08,4,.15,6q.08,2.52.14,5,.08,3.86.21,7.71.08,2.52.14,5c.06,2.61.13,5.21.21,7.82,0,.44,0,.88.08,1.42Zm6.67-4.21c-.08,2.21-.22,4.43-.33,6.64q-.07,1.47-.15,2.95c-.1,2-.19,4.07-.3,6.11a2,2,0,0,1-1.21,1.88,1.8,1.8,0,0,1-2-.27,2.06,2.06,0,0,1-.76-1.61c-.1-2.23-.19-4.45-.29-6.68-.09-2-.17-4.07-.28-6.11-.08-1.42-.16-2.84-.13-4.26h.09c0-2,0-4,0-5.94,0-2.28.08-4.55.12-6.83q.08-4.13.15-8.25.06-3.54.13-7.08c0-2.67.08-5.33.15-8q0-1.19,0-2.38a2,2,0,1,1,4-.06c0,1,0,2,.06,3,.06,2,.05,3.94.1,5.9.06,2.3.09,4.6.14,6.9s.09,4.41.14,6.61.09,4.6.14,6.9.09,4.39.14,6.58C85.73,98.88,85.8,100.21,85.75,101.54Zm6.37,4.25L92,108.38c-.14,2.33-.28,4.66-.41,7a17.86,17.86,0,0,1-.15,2.09,2.07,2.07,0,0,1-4.11-.28c-.1-1.71-.18-3.43-.28-5.15-.15-2.73-.3-5.46-.47-8.2a67.23,67.23,0,0,1,0-6.82c0-.08,0-.17,0-.25,0-2.07.06-4.15.09-6.22,0-2.36.09-4.72.14-7.08l.14-7.15L87,69.2c0-2.37.06-4.74.15-7.11.05-1.41,0-2.82.1-4.23a2.09,2.09,0,1,1,4.18,0c0,.71,0,1.42.05,2.13.05,1.88.05,3.77.1,5.66.06,2.28.1,4.55.14,6.83q.07,3.16.14,6.33c.07,3.32.15,6.64.21,10,0,2.15.11,4.29.13,6.44,0,1.75.09,3.51.14,5.29S92.23,104,92.12,105.79ZM150,119.08a19.84,19.84,0,0,1-3.4.27c-9.94,0-19.88,0-29.82,0-7.09,0-14.17,0-21.26,0a2.27,2.27,0,0,1-2.34-2.42q0-15.26,0-30.53t0-30.39a2.16,2.16,0,0,1,1.35-2.18c.38-.17.76-.33,1.15-.47a32.45,32.45,0,0,1,8.26-1.89,31.45,31.45,0,0,1,18.47,3.81,33.33,33.33,0,0,1,15.08,17.15,34.45,34.45,0,0,1,2.26,9c.1.84.1.83.87.54a17.89,17.89,0,0,1,7.9-1.09,18.13,18.13,0,0,1,12.14,6,18.74,18.74,0,0,1,4.84,10.26,19.22,19.22,0,0,1-4.19,15.36A18.1,18.1,0,0,1,150,119.08Z"/></svg>