<svg id="Capa_1" data-name="Capa 1" xmlns="http://www.w3.org/2000/svg" viewBox="0 0 1052.25 140.91"><defs><style>.cls-1{fill:#fff;fill-rule:evenodd;opacity:0.1;}</style></defs><title>una_desing</title><polygon class="cls-1" points="1048.82 0.65 1048.82 54.47 918.05 141.14 917.76 141.14 917.76 54.59 917.94 54.47 917.76 54.47 917.76 54.59 787.16 141.14 786.88 141.14 786.88 54.47 786.71 54.47 655.93 141.14 655.64 141.14 655.64 54.47 655.12 54.47 524.7 140.91 524.12 140.91 393.7 54.47 393.18 54.47 393.18 141.14 392.89 141.14 262.12 54.47 261.95 54.47 261.95 141.14 261.66 141.14 131.06 54.59 131.06 54.47 130.88 54.47 131.06 54.59 131.06 141.14 130.78 141.14 0 54.47 0 0.65 1048.82 0.65"/></svg>