<svg id="Capa_1" data-name="Capa 1" xmlns="http://www.w3.org/2000/svg" viewBox="0 0 179.48 183.52"><defs><style>.cls-1{fill:#fff;}.cls-2{fill:#20252c;}</style></defs><title>una_desing</title><ellipse class="cls-1" cx="89.05" cy="92.22" rx="80.03" ry="82.51"/><path class="cls-2" d="M82.45,0H97a103.33,103.33,0,0,1,12.26,2q50.38,13.34,65.94,64.51a98.28,98.28,0,0,1,3.13,17.3c.5,5.25.31,20.82-2,27.64-10.83,49-57.76,80.39-106.23,69.13C22.57,169.57-8.12,121,3.25,71.11,11.17,36.38,32.62,13.89,65.66,3.23A90.33,90.33,0,0,1,82.45,0Zm67,40.56A63,63,0,0,1,135.52,46a3.31,3.31,0,0,1-3.54-1C119.45,33,98.84,36.83,91.11,52.63a27.85,27.85,0,0,0-2.44,16.47c.26,1.87.09,2.13-1.74,2-1.61-.14-3.21-.36-4.8-.6-18.39-2.72-33.67-11.39-46-25.65-1.49-1.72-1.56-1.73-2.56.45a27.47,27.47,0,0,0,7.26,31.81c.54.45,1.37.7,1.42,1.64a2.6,2.6,0,0,1-1.88.11,25.16,25.16,0,0,1-7.78-2.3c-1.15-.58-1.67-.53-1.53,1,1,11.71,8.21,20.8,19.1,24.12.44.13,1,0,1.35.93a23.79,23.79,0,0,1-9.24.69c-1.34-.23-1.85.1-1.2,1.58,4.22,9.56,11.35,15,21.46,16.33.55.07,1.35-.16,1.55.48s-.64,1-1.11,1.37a51.41,51.41,0,0,1-28.31,10.24c-2.4.12-4.79,0-7.29-.07.31.81.92,1,1.39,1.23a72.52,72.52,0,0,0,49.87,9.28c19.8-3.2,35.6-13.31,47.27-30a80,80,0,0,0,14.55-47.46,3.56,3.56,0,0,1,1.49-3.16,49.82,49.82,0,0,0,10-10.53c.24-.34.72-.63.43-1.3-4.25,1.61-8.52,3.08-13.2,3.19C143.93,50.79,147.62,46.4,149.46,40.56Z"/></svg>