<svg id="Capa_1" data-name="Capa 1" xmlns="http://www.w3.org/2000/svg" viewBox="0 0 179.48 183.52"><defs><style>.cls-1{fill:#fff;}.cls-2{fill:#20252c;}</style></defs><title>una_desing</title><ellipse class="cls-1" cx="86.71" cy="89.92" rx="81.49" ry="84.02"/><path class="cls-2" d="M85.22,0h7.56a3.37,3.37,0,0,0,.39.06c2.31.07,4.61.29,6.91.59A84.63,84.63,0,0,1,116.6,4.43a88.32,88.32,0,0,1,40.37,28,91.56,91.56,0,0,1,18.66,37.82,90.46,90.46,0,0,1,2.28,15.66c0,.67.09,1.34.14,2v7.71c0,.15-.05.3-.06.45-.09,2.46-.32,4.91-.61,7.35a92.64,92.64,0,0,1-30,57.66,87,87,0,0,1-33.07,18.73,84.45,84.45,0,0,1-19.56,3.56l-2,.15H85.31a2.5,2.5,0,0,0-.35-.06c-1.3,0-2.6-.16-3.9-.27a81.59,81.59,0,0,1-10.93-1.7,86.42,86.42,0,0,1-24.21-9.4,89.21,89.21,0,0,1-25.56-21.93A92.07,92.07,0,0,1,1.94,110.86,89.31,89.31,0,0,1,.2,97.66C.16,97,.1,96.3.06,95.61V87.9l.23-3.42a86.51,86.51,0,0,1,1.11-9,92.53,92.53,0,0,1,11.32-31A90.43,90.43,0,0,1,37.56,16.86a86.61,86.61,0,0,1,33-14.91A82.89,82.89,0,0,1,83.32.15C84,.11,84.59.05,85.22,0Zm4,134.94c5.06,0,10.11,0,15.17-.15,3.82-.1,7.65-.2,11.47-.37,3.24-.14,6.48-.31,9.72-.56a83,83,0,0,0,8.87-1,14.81,14.81,0,0,0,11-8.24,21.48,21.48,0,0,0,1.75-6,113.87,113.87,0,0,0,1.41-12.88c.25-3.83.37-7.66.44-11.5.07-3.3,0-6.6-.13-9.9-.13-4-.35-7.94-.73-11.89a81.42,81.42,0,0,0-1.35-9.19,15.48,15.48,0,0,0-7.06-10.39,17.9,17.9,0,0,0-7-2.28c-4.8-.72-9.64-1-14.48-1.28q-4.28-.24-8.57-.36c-4.09-.12-8.18-.24-12.27-.28-8.1-.08-16.19-.07-24.29.15-2.87.08-5.75.16-8.62.27-4.38.16-8.77.38-13.14.75a71.46,71.46,0,0,0-7.63.94c-5.54,1.08-9.37,4.37-11.58,9.66a30.41,30.41,0,0,0-1.66,7.77c-.47,3.48-.72,7-.93,10.49s-.31,7.3-.41,10.95c-.08,2.83,0,5.66.09,8.48,0,1.59.09,3.18.18,4.76.19,3.43.4,6.86.78,10.28a52.73,52.73,0,0,0,1.33,8.13c1.61,5.91,5.32,9.71,11.08,11.28a51.41,51.41,0,0,0,8.84,1.24c3.28.3,6.56.48,9.85.64s6.78.27,10.18.37c2.88.09,5.75.15,8.63.18C83.1,135,86.14,134.94,89.18,134.94Z"/><path class="cls-2" d="M77,91.76q0-8.92,0-17.84c0-.76,0-.78.66-.4l30.08,17.9.19.11c.34.17.33.33,0,.52l-4.36,2.58L77.72,110l-.12.07c-.53.31-.59.28-.59-.35Q77,100.73,77,91.76Z"/></svg>